<?xml version="1.0" encoding="UTF-8" standalone="no"?>
<!-- Created with Inkscape (http://www.inkscape.org/) -->

<svg
   width="175.17514"
   height="120.39025"
   viewBox="0 0 46.348422 31.853255"
   version="1.1"
   id="svg5"
   inkscape:version="1.1.1 (1:1.1+202109281949+c3084ef5ed)"
   sodipodi:docname="moderna (copy).svg"
   xmlns:inkscape="http://www.inkscape.org/namespaces/inkscape"
   xmlns:sodipodi="http://sodipodi.sourceforge.net/DTD/sodipodi-0.dtd"
   xmlns:xlink="http://www.w3.org/1999/xlink"
   xmlns="http://www.w3.org/2000/svg"
   xmlns:svg="http://www.w3.org/2000/svg">
  <sodipodi:namedview
     id="namedview7"
     pagecolor="#505050"
     bordercolor="#eeeeee"
     borderopacity="1"
     inkscape:pageshadow="0"
     inkscape:pageopacity="0"
     inkscape:pagecheckerboard="0"
     inkscape:document-units="px"
     showgrid="false"
     showborder="true"
     inkscape:snap-global="false"
     inkscape:zoom="1.8101934"
     inkscape:cx="110.76165"
     inkscape:cy="67.672327"
     inkscape:window-width="1366"
     inkscape:window-height="715"
     inkscape:window-x="0"
     inkscape:window-y="25"
     inkscape:window-maximized="1"
     inkscape:current-layer="layer1"
     showguides="false"
     fit-margin-top="0"
     fit-margin-left="0"
     fit-margin-right="0"
     fit-margin-bottom="0" />
  <defs
     id="defs2">
    <clipPath
       clipPathUnits="userSpaceOnUse"
       id="clipPath14104">
      <rect
         style="fill:#ffffff;fill-opacity:1;stroke:none;stroke-width:0.658005;stroke-linecap:round;stroke-linejoin:round;paint-order:stroke fill markers"
         id="rect14106"
         width="165.61249"
         height="165.61249"
         x="-2042.5171"
         y="799.62646" />
    </clipPath>
    <clipPath
       clipPathUnits="userSpaceOnUse"
       id="clipPath15795">
      <path
         id="path15797"
         style="opacity:1;fill:#ffffff;stroke-width:0.217151;stroke-linecap:round;stroke-linejoin:round;paint-order:stroke fill markers"
         d="m -2258.4916,789.23067 490.6903,131.48007 -73.9576,276.01326 -490.6903,-131.48 z" />
    </clipPath>
    <linearGradient
       id="linear-gradient"
       x1="21.299999"
       y1="114.8"
       x2="21.299999"
       y2="53.84"
       gradientUnits="userSpaceOnUse"
       gradientTransform="matrix(0.26458333,0,0,0.26458333,809.05132,-2101.0359)">
      <stop
         offset="0"
         stop-color="#d4d8e1"
         id="stop4"
         style="stop-color:#f08894;stop-opacity:1" />
      <stop
         offset="1"
         stop-color="#f3f4f5"
         id="stop6" />
    </linearGradient>
    <linearGradient
       id="linear-gradient-2"
       x1="21.309999"
       y1="53.84"
       x2="21.309999"
       y2="45.709999"
       gradientUnits="userSpaceOnUse">
      <stop
         offset="0"
         stop-color="#949aaf"
         id="stop9" />
      <stop
         offset="1"
         stop-color="#c6ccda"
         id="stop11" />
    </linearGradient>
    <linearGradient
       id="linear-gradient-3"
       x1="21.309999"
       y1="45.709999"
       x2="21.309999"
       y2="37.580002"
       xlink:href="#linear-gradient-2" />
    <linearGradient
       id="linear-gradient-4"
       x1="21.309999"
       y1="126.99"
       x2="21.309999"
       y2="114.8"
       xlink:href="#linear-gradient-2"
       gradientTransform="matrix(0.26458333,0,0,0.26458333,807.68064,-2098.4965)" />
    <clipPath
       clipPathUnits="userSpaceOnUse"
       id="clipPath83602">
      <path
         id="path83604"
         style="opacity:1;fill:#ffffff;fill-opacity:1;stroke-width:0.145431;stroke-linecap:round;stroke-linejoin:round;paint-order:stroke fill markers"
         d="m -2285.4189,889.72422 -28.3349,105.74713 490.6903,131.48005 28.3349,-105.7471 z" />
    </clipPath>
    <linearGradient
       inkscape:collect="always"
       xlink:href="#linear-gradient"
       id="linearGradient1614"
       gradientUnits="userSpaceOnUse"
       gradientTransform="matrix(0.26458333,0,0,0.26458333,809.05132,-2101.0359)"
       x1="21.299999"
       y1="114.8"
       x2="21.299999"
       y2="53.84" />
  </defs>
  <g
     inkscape:label="Layer 1"
     inkscape:groupmode="layer"
     id="layer1"
     transform="translate(2348.4679,-894.75698)">
    <g
       id="g1027">
      <g
         id="g964">
        <g
           id="g1612"
           transform="matrix(0.96771558,-0.96771558,-0.96771558,-0.96771558,526.91847,-212.47543)"
           inkscape:export-filename="/home/sunny/Documents/file_kuliah/mata_kuliah/semester_3/Sistem_informasi/tugas_akhir/code/images/icons/corona_vaccine.png"
           inkscape:export-xdpi="385.3598"
           inkscape:export-ydpi="385.3598">
          <rect
             class="cls-1"
             x="811.46161"
             y="-2086.7905"
             width="6.4531875"
             height="16.129"
             id="rect1596"
             style="fill:url(#linearGradient1614);stroke-width:0.264583"
             transform="rotate(-135)" />
          <rect
             class="cls-2"
             x="811.46161"
             y="-2072.8127"
             width="6.4531875"
             height="2.1510625"
             id="rect1598"
             style="fill:#cf4055;fill-opacity:1;stroke-width:0.264583"
             transform="rotate(-135)" />
          <rect
             class="cls-3"
             x="812.53851"
             y="-2088.9417"
             width="4.302125"
             height="2.1510625"
             id="rect1600"
             style="fill:#f3eff0;fill-opacity:1;stroke-width:0.264583"
             transform="rotate(-135)" />
          <rect
             class="cls-4"
             x="812.53851"
             y="-2087.8674"
             width="4.302125"
             height="1.0742083"
             id="rect1602"
             style="fill:#cf4055;fill-opacity:1;stroke-width:0.264583"
             transform="rotate(-135)" />
          <polygon
             class="cls-5"
             points="17.65,37.58 24.96,37.58 27.4,45.71 15.21,45.71 "
             id="polygon1604"
             style="fill:#f3eff0;fill-opacity:1"
             transform="matrix(-0.18708867,-0.18708867,0.18708867,-0.18708867,-2057.7424,913.57102)" />
          <polygon
             class="cls-4"
             points="16.11,42.71 26.5,42.71 27.4,45.71 15.21,45.71 "
             id="polygon1606"
             style="fill:#cf4055;fill-opacity:1"
             transform="matrix(-0.18708867,-0.18708867,0.18708867,-0.18708867,-2057.7424,913.57102)" />
          <rect
             class="cls-6"
             x="813.07562"
             y="-2070.6616"
             width="3.2252707"
             height="3.2252707"
             id="rect1608"
             style="fill:#cf4055;fill-opacity:1;stroke-width:0.264583"
             transform="rotate(-135)" />
        </g>
        <path
           class="cls-19"
           d="m -2307.2576,909.83833 v -2.58173 l -21.7258,-2e-5 a 0.36209724,0.36209724 0 0 1 -0.3622,-0.36211 v -1.11153 l -2.5708,-3e-5 a 0.36209724,0.36209724 0 0 1 -0.3621,-0.36211 l -1e-4,-0.46705 -2.6867,-0.80393 c -0.3259,-0.0971 -0.2573,-0.33662 -0.2571,-1.31078 h -12.8834 a 0.362125,0.362125 0 0 1 0,-0.72425 l 12.8834,2e-5 c 0,-0.96675 -0.069,-1.2094 0.2571,-1.30713 l 2.6868,-0.80745 v -0.46714 a 0.36209724,0.36209724 0 0 1 0.362,-0.36205 l 2.5818,-5e-5 v -1.10808 a 0.36209724,0.36209724 0 0 1 0.3621,-0.36196 l 21.7259,-8e-5 -10e-5,-2.58172 a 0.36215,0.36215 0 0 1 0.7243,-3e-5 l -10e-5,4.79054 3.679,-7e-5 -10e-5,-1.1116 a 0.3621095,0.3621095 0 0 1 0.7242,-2e-5 v 7.35791 a 0.36209952,0.36209952 0 0 1 -0.7241,-7e-5 l -10e-5,-1.10792 -3.6897,-2e-5 v 4.79054 a 0.3621,0.3621 0 0 1 -0.7242,-8e-5 z m -27.2406,-8.41508 v 2.11099 l 2.2196,0.66625 1e-4,-3.44364 z m 2.9439,-1.52814 v 5.16356 l 2.2196,4e-5 10e-5,-5.16365 z m 28.7106,4.42855 10e-5,-3.68984 -3.6898,7e-5 v 3.68974 z m -4.4139,-5.89863 -21.3637,-3e-5 v 8.10733 l 2.2414,-3e-5 v -1.11153 a 0.3621095,0.3621095 0 0 1 0.7242,-10e-6 l -1e-4,1.11162 2.2088,-5e-5 v -1.84659 a 0.36215,0.36215 0 0 1 0.7243,-3e-5 v 1.84659 l 2.2196,6e-5 -1e-4,-1.11154 a 0.36215,0.36215 0 0 1 0.7243,-2e-5 v 1.11153 l 2.216,-10e-6 v -1.84659 a 0.36210466,0.36210466 0 0 1 0.7242,-3e-5 v 1.84659 l 2.2197,6e-5 -10e-5,-1.11154 a 0.36215,0.36215 0 0 1 0.7243,-2e-5 v 1.11154 l 2.2196,5e-5 v -1.8466 a 0.3621095,0.3621095 0 0 1 0.7242,-10e-6 v 1.84659 h 3.6934 z"
           id="path1610"
           style="fill:#231f20;fill-opacity:1;stroke-width:0.362097" />
      </g>
      <g
         id="g37502"
         transform="matrix(0.24692705,0,0,0.24692705,-2348.3925,915.07143)">
        <path
           fill-rule="evenodd"
           clip-rule="evenodd"
           fill="#8a0051"
           d="m 5.96,37.199 3.081,-8.366 2.939,8.366 z m 9.014,8.431 h 2.825 L 10.467,25.491 H 7.673 L 0,45.63 h 2.852 l 2.253,-6.172 h 7.673 z"
           id="path37462" />
        <path
           fill-rule="evenodd"
           clip-rule="evenodd"
           fill="#8a0051"
           d="m 23.941,38.675 c -2.618,-0.566 -5.322,-1.184 -5.322,-4.342 0,-2.773 2.345,-4.521 5.887,-4.521 2.291,0 4.479,0.853 5.571,2.938 l -2.382,0.994 c -0.191,-0.557 -1.424,-1.959 -3.481,-1.959 -2.016,0 -3.025,1.193 -3.025,2.226 0,1.45 1.917,2.054 3.552,2.383 3.385,0.681 6.328,1.547 6.328,4.738 0,2.48 -2.203,4.81 -6.411,4.81 -3.098,0 -5.299,-1.036 -6.358,-3.201 l 2.717,-0.474 c 0.682,1.186 1.915,1.7 3.752,1.7 2.278,0 3.61,-0.869 3.61,-2.514 10e-4,-1.74 -2.185,-2.291 -4.438,-2.778 z"
           id="path37464" />
        <path
           fill-rule="evenodd"
           clip-rule="evenodd"
           fill="#8a0051"
           d="m 36.711,30.276 h 2.782 v 2.141 h -2.782 v 8.712 c 0,1.807 0,2.582 1.099,2.582 0.485,0 1.166,-0.195 1.683,-0.355 v 2.12 C 39.04,45.54 37.971,45.734 37,45.734 c -2.975,0 -2.975,-1.446 -2.943,-3.442 V 32.417 H 31.63 v -2.141 h 2.427 v -3.658 l 2.654,-1.104 z"
           id="path37466" />
        <path
           fill-rule="evenodd"
           clip-rule="evenodd"
           fill="#8a0051"
           d="m 44.381,30.315 v 2.742 c 1.455,-2.893 4.206,-2.958 5.241,-2.99 v 2.653 c -2.523,0.017 -3.76,0.534 -4.593,1.891 -0.684,1.108 -0.648,2.665 -0.648,3.98 V 45.63 H 41.812 V 30.315 Z"
           id="path37468" />
        <polygon
           fill-rule="evenodd"
           clip-rule="evenodd"
           fill="#8a0051"
           points="67.929,43.214 79.613,43.214 79.613,45.63 64.818,45.63 64.818,43.014 76.272,27.977 64.827,27.977 64.827,25.494 79.327,25.494 79.327,28.006 "
           id="polygon37470" />
        <path
           fill-rule="evenodd"
           clip-rule="evenodd"
           fill="#8a0051"
           d="m 98.289,30.421 v 2.225 c 1.43,-2.5 3.866,-2.727 4.775,-2.727 1.949,0 4.284,0.975 5.029,3.502 0.261,0.904 0.261,1.841 0.261,3.134 v 9.075 h -2.562 v -8.655 c 0,-1.552 0,-2.003 -0.163,-2.521 -0.454,-1.453 -1.883,-2.099 -3.28,-2.099 -1.136,0 -2.111,0.355 -2.924,1.162 -1.137,1.131 -1.137,2.292 -1.137,3.426 v 8.687 h -2.57 V 30.421 Z"
           id="path37472" />
        <path
           fill-rule="evenodd"
           clip-rule="evenodd"
           fill="#8a0051"
           d="m 137.907,42.919 c -0.959,1.506 -2.701,3.022 -5.837,3.022 -5.412,0 -7.456,-4.171 -7.456,-7.918 0,-4.329 2.355,-8.252 7.23,-8.252 1.912,0 4.59,0.576 6.072,3.045 l -2.408,1.005 c -0.455,-1.003 -1.435,-2.162 -3.567,-2.162 -4.224,0 -4.471,4.813 -4.471,6.171 0,5.046 2.899,6.137 4.631,6.137 1.983,0 2.996,-0.951 3.531,-1.999 z"
           id="path37474" />
        <path
           fill-rule="evenodd"
           clip-rule="evenodd"
           fill="#8a0051"
           d="m 83.305,36.405 h 8.121 c -0.227,-4.006 -2.536,-4.683 -4.076,-4.683 -2.198,10e-4 -3.755,1.614 -4.045,4.683 z m 10.235,6.316 c -0.876,1.491 -2.567,3.202 -5.901,3.202 -4.52,0 -7.12,-3.072 -7.12,-8.222 0,-5.753 3.795,-7.952 7.025,-7.952 2.808,0 5.5,1.552 6.405,5.396 0.292,1.293 0.292,2.459 0.292,3.106 h -11 c -0.064,2.558 1.008,5.795 4.625,5.732 1.476,-0.025 2.515,-0.695 3.178,-1.745 z"
           id="path37476" />
        <path
           fill-rule="evenodd"
           clip-rule="evenodd"
           fill="#8a0051"
           d="m 112.518,36.405 h 8.122 c -0.226,-4.006 -2.535,-4.683 -4.076,-4.683 -2.196,10e-4 -3.754,1.614 -4.046,4.683 z m 10.237,6.316 c -0.876,1.491 -2.566,3.202 -5.9,3.202 -4.52,0 -7.121,-3.072 -7.121,-8.222 0,-5.753 3.795,-7.952 7.024,-7.952 2.809,0 5.499,1.552 6.405,5.396 0.291,1.293 0.291,2.459 0.291,3.106 h -11 c -0.065,2.558 1.011,5.795 4.625,5.732 1.476,-0.025 2.518,-0.695 3.179,-1.745 z"
           id="path37478" />
        <path
           fill-rule="evenodd"
           clip-rule="evenodd"
           fill="#8a0051"
           d="m 151.951,45.646 -2.672,0.01 c 0,0 -0.231,-1.079 -0.306,-2.257 -0.776,0.806 -2.216,2.473 -5.126,2.473 -2.976,0 -5.184,-1.765 -5.184,-4.351 0,-0.811 0.227,-1.618 0.681,-2.3 0.877,-1.295 2.5,-2.331 7.059,-2.686 l 2.423,-0.194 v -0.389 c 0,-1.586 0,-4.239 -3.416,-4.239 -2.149,0 -2.881,1.042 -3.129,1.983 l -2.366,-0.988 c 0.037,-0.082 0.08,-0.166 0.125,-0.251 0.909,-1.682 2.692,-2.718 5.271,-2.718 1.42,0 3.258,0.357 4.456,1.295 1.705,1.292 1.664,3.837 1.664,3.837 l 0.103,7.854 c 0,0.002 0.091,2.282 0.417,2.921 z m -3.513,-4.222 c 0.388,-0.841 0.421,-1.197 0.421,-3.433 -1,0.162 -2.353,0.356 -4.009,0.713 -2.846,0.614 -3.331,1.686 -3.331,2.753 0,1.23 0.971,2.267 2.878,2.267 1.78,0 3.299,-0.712 4.041,-2.3 z"
           id="path37480" />
        <path
           fill-rule="evenodd"
           clip-rule="evenodd"
           fill="#8a0051"
           d="m 63.004,45.646 -2.672,0.01 c 0,0 -0.232,-1.079 -0.306,-2.257 -0.776,0.806 -2.214,2.473 -5.125,2.473 -2.978,0 -5.185,-1.765 -5.185,-4.351 0,-0.811 0.227,-1.618 0.682,-2.3 0.877,-1.295 2.499,-2.331 7.056,-2.686 l 2.426,-0.194 v -0.389 c 0,-1.586 0,-4.239 -3.418,-4.239 -2.149,0 -2.879,1.042 -3.129,1.983 l -2.366,-0.988 c 0.039,-0.082 0.08,-0.166 0.126,-0.251 0.909,-1.682 2.693,-2.718 5.27,-2.718 1.419,0 3.259,0.357 4.456,1.295 1.705,1.292 1.664,3.837 1.664,3.837 l 0.103,7.854 c 0,0.002 0.091,2.282 0.418,2.921 z m -3.513,-4.222 c 0.39,-0.841 0.42,-1.197 0.42,-3.433 -0.998,0.162 -2.353,0.356 -4.007,0.713 -2.844,0.614 -3.33,1.686 -3.33,2.753 0,1.23 0.969,2.267 2.876,2.267 1.779,0 3.298,-0.712 4.041,-2.3 z"
           id="path37482" />
        <path
           fill-rule="evenodd"
           clip-rule="evenodd"
           fill="#efab00"
           d="m 187.068,24.432 c -0.01,-0.094 -0.021,-0.188 -0.044,-0.279 -0.048,-0.186 -0.099,-0.372 -0.17,-0.55 -0.077,-0.189 -0.172,-0.372 -0.273,-0.549 -0.113,-0.195 -0.239,-0.382 -0.372,-0.565 -0.077,-0.107 -0.166,-0.207 -0.258,-0.302 -0.103,-0.106 -0.209,-0.211 -0.325,-0.303 -0.262,-0.208 -0.522,-0.42 -0.808,-0.595 -0.624,-0.383 -1.246,-0.781 -1.916,-1.076 -0.81,-0.356 -1.593,-0.778 -2.428,-1.068 l -5.627,-1.954 c 0,-1.07 0.031,-2.14 0,-3.209 -0.047,-1.587 -0.111,-3.175 -0.234,-4.758 -0.086,-1.102 -0.218,-2.201 -0.39,-3.293 -0.134,-0.852 -0.337,-1.692 -0.526,-2.533 -0.043,-0.193 -0.108,-0.38 -0.172,-0.566 -0.057,-0.168 -0.119,-0.335 -0.188,-0.499 -0.062,-0.148 -0.13,-0.294 -0.203,-0.438 -0.066,-0.129 -0.139,-0.255 -0.216,-0.378 -0.069,-0.111 -0.146,-0.219 -0.225,-0.324 -0.072,-0.095 -0.148,-0.186 -0.229,-0.273 -0.073,-0.08 -0.151,-0.156 -0.232,-0.229 -0.073,-0.066 -0.151,-0.127 -0.231,-0.186 -0.074,-0.054 -0.151,-0.104 -0.229,-0.149 -0.073,-0.042 -0.147,-0.083 -0.225,-0.115 -0.136,-0.056 -0.274,-0.109 -0.415,-0.149 -0.117,-0.033 -0.238,-0.051 -0.358,-0.068 -0.09,-0.013 -0.181,-0.019 -0.271,-0.021 -0.154,-0.003 -0.31,-0.006 -0.463,0.005 -0.164,0.012 -0.328,0.032 -0.489,0.064 -0.173,0.034 -0.344,0.077 -0.511,0.133 -0.18,0.06 -0.355,0.133 -0.524,0.216 -0.189,0.093 -0.37,0.201 -0.549,0.313 -0.189,0.119 -0.376,0.243 -0.555,0.377 -0.313,0.236 -0.633,0.465 -0.918,0.733 -1.175,1.104 -2.329,2.23 -3.457,3.38 -0.602,0.613 -1.185,1.247 -1.73,1.909 -2.168,2.625 -4.326,5.258 -6.411,7.949 -0.926,1.194 -1.759,2.457 -2.616,3.699 -0.214,0.311 -0.414,0.632 -0.599,0.961 -0.321,0.575 -0.622,1.161 -0.916,1.75 -0.076,0.153 -0.136,0.315 -0.194,0.476 -0.056,0.154 -0.107,0.31 -0.148,0.468 -0.038,0.149 -0.071,0.301 -0.088,0.454 -0.015,0.141 -0.017,0.284 -0.008,0.425 0.005,0.071 0.026,0.141 0.049,0.208 0.025,0.073 0.058,0.143 0.096,0.21 0.042,0.073 0.091,0.142 0.142,0.208 0.056,0.072 0.113,0.142 0.177,0.206 0.139,0.137 0.281,0.271 0.432,0.395 0.155,0.128 0.315,0.25 0.483,0.36 0.293,0.192 0.596,0.371 0.897,0.547 0.132,0.077 0.271,0.143 0.405,0.213 0.048,0.024 -0.095,-0.05 -0.142,-0.076 -0.006,-0.002 -0.021,-0.011 -0.016,-0.009 0.008,0.002 0.016,0.008 0.023,0.012 0.074,0.039 0.148,0.077 0.223,0.116 1.853,0.968 3.713,1.922 5.557,2.905 1.854,0.988 3.707,1.979 5.538,3.008 l 4.117,2.313 c -1.43,1.082 -2.887,2.127 -4.287,3.244 -0.535,0.427 -1.032,0.9 -1.517,1.383 -0.394,0.393 -0.765,0.81 -1.115,1.241 -0.28,0.345 -0.535,0.71 -0.773,1.085 -0.187,0.292 -0.351,0.601 -0.498,0.914 -0.112,0.238 -0.202,0.486 -0.281,0.737 -0.057,0.176 -0.094,0.357 -0.126,0.539 -0.019,0.109 -0.023,0.222 -0.029,0.334 -0.002,0.038 0.005,0.076 0.005,0.114 0.002,0.101 -0.003,0.201 0.003,0.301 0.005,0.094 0.016,0.188 0.031,0.279 0.014,0.089 0.033,0.177 0.057,0.264 0.022,0.082 0.051,0.164 0.082,0.244 0.031,0.077 0.066,0.153 0.104,0.227 0.038,0.072 0.077,0.145 0.126,0.21 0.095,0.13 0.191,0.259 0.304,0.373 0.113,0.114 0.237,0.218 0.367,0.313 0.13,0.096 0.27,0.18 0.412,0.258 0.144,0.078 0.293,0.146 0.445,0.209 0.151,0.063 0.303,0.13 0.463,0.165 0.575,0.127 1.154,0.243 1.738,0.322 0.286,0.039 0.577,0.055 0.864,0.032 0.995,-0.078 1.989,-0.179 2.975,-0.334 1.151,-0.181 2.293,-0.423 3.432,-0.672 1.343,-0.294 2.682,-0.605 4.012,-0.954 0.94,-0.247 1.896,-0.466 2.796,-0.834 0.709,-0.289 1.425,-0.565 2.128,-0.868 0.158,-0.067 0.307,-0.155 0.455,-0.242 0.134,-0.078 0.266,-0.163 0.392,-0.253 0.111,-0.079 0.221,-0.163 0.32,-0.257 0.084,-0.079 0.161,-0.167 0.229,-0.261 0.059,-0.079 0.108,-0.167 0.149,-0.258 0.036,-0.08 0.063,-0.166 0.082,-0.253 0.018,-0.079 0.026,-0.162 0.026,-0.243 0,-0.079 -0.01,-0.158 -0.024,-0.235 -0.016,-0.075 -0.038,-0.15 -0.066,-0.223 -0.027,-0.073 -0.063,-0.144 -0.102,-0.212 -0.039,-0.068 -0.082,-0.135 -0.128,-0.198 -0.046,-0.063 -0.095,-0.126 -0.148,-0.184 -0.103,-0.108 -0.208,-0.217 -0.319,-0.315 -0.097,-0.086 -0.201,-0.163 -0.306,-0.237 -0.103,-0.073 -0.21,-0.141 -0.317,-0.206 -0.733,-0.442 -1.463,-0.893 -2.201,-1.328 l -3.091,-1.825 c 1.877,-1.273 3.771,-2.522 5.631,-3.822 0.795,-0.555 1.577,-1.129 2.331,-1.738 0.646,-0.522 1.261,-1.082 1.863,-1.652 0.287,-0.271 0.542,-0.572 0.802,-0.869 0.118,-0.135 0.227,-0.279 0.33,-0.426 0.095,-0.133 0.191,-0.267 0.266,-0.413 0.242,-0.48 0.48,-0.963 0.682,-1.461 0.081,-0.203 0.115,-0.422 0.161,-0.636 0.021,-0.099 0.029,-0.201 0.037,-0.302 0.008,-0.097 0.011,-0.195 0.01,-0.292 -0.005,-0.094 -0.011,-0.19 -0.022,-0.284 z M 163.996,11.8 c 1.048,-1.087 2.098,-2.172 3.164,-3.242 0.194,-0.195 0.41,-0.37 0.618,-0.551 0.072,-0.063 0.149,-0.123 0.226,-0.182 0.059,-0.045 0.117,-0.092 0.181,-0.132 0.045,-0.028 0.093,-0.052 0.142,-0.072 0.052,-0.021 0.104,-0.042 0.16,-0.051 0.058,-0.01 0.117,-0.009 0.177,-0.006 0.03,0.001 0.06,0.009 0.089,0.019 0.03,0.009 0.061,0.023 0.089,0.039 0.03,0.017 0.06,0.037 0.086,0.059 0.031,0.025 0.06,0.053 0.086,0.083 0.03,0.034 0.058,0.07 0.082,0.108 0.028,0.044 0.058,0.089 0.076,0.138 0.051,0.132 0.097,0.267 0.131,0.405 0.049,0.197 0.087,0.397 0.118,0.599 0.076,0.492 0.146,0.985 0.201,1.479 0.072,0.64 0.124,1.282 0.183,1.923 l 0.318,3.413 -3.803,-0.875 -3.549,-0.584 -0.859,-0.066 -0.279,-0.007 c 0.787,-0.833 1.568,-1.672 2.363,-2.497 z m -2.385,4.746 0.014,-0.021 0.02,-0.011 0.029,-0.003 0.046,0.007 0.133,0.038 0.344,0.132 0.468,0.208 c 1.208,0.517 2.416,1.034 3.625,1.549 0.801,0.342 1.603,0.681 2.403,1.023 l 1.583,0.676 0.141,0.063 c 0.085,1.251 0.189,2.501 0.255,3.753 0.052,0.978 0.073,1.958 0.097,2.937 0.003,0.124 -0.007,0.247 -0.016,0.37 -0.004,0.069 -0.011,0.139 -0.021,0.208 -0.011,0.069 -0.024,0.138 -0.044,0.204 -0.02,0.065 -0.042,0.131 -0.075,0.191 -0.031,0.059 -0.074,0.113 -0.117,0.165 -0.021,0.026 -0.05,0.049 -0.077,0.07 -0.028,0.021 -0.059,0.042 -0.091,0.06 -0.033,0.018 -0.07,0.033 -0.106,0.046 -0.04,0.014 -0.081,0.026 -0.123,0.034 -0.051,0.009 -0.103,0.014 -0.154,0.016 -0.054,0.001 -0.108,0 -0.162,-0.007 -0.058,-0.007 -0.114,-0.019 -0.169,-0.033 -0.06,-0.015 -0.119,-0.031 -0.175,-0.054 -0.123,-0.052 -0.246,-0.107 -0.362,-0.173 -0.132,-0.075 -0.259,-0.16 -0.382,-0.25 -0.136,-0.1 -0.266,-0.207 -0.392,-0.318 -0.138,-0.122 -0.273,-0.246 -0.398,-0.379 -0.274,-0.293 -0.545,-0.591 -0.799,-0.902 -0.459,-0.561 -0.936,-1.112 -1.339,-1.714 -0.556,-0.83 -1.126,-1.65 -1.667,-2.49 -0.323,-0.501 -0.654,-1 -0.923,-1.534 l -1.221,-2.419 -0.263,-0.771 -0.06,-0.229 -0.036,-0.221 -0.003,-0.16 z m 13.492,21.441 c 0.329,0.208 0.66,0.413 0.984,0.627 0.419,0.276 0.839,0.55 1.245,0.844 0.292,0.211 0.571,0.439 0.847,0.672 0.122,0.104 0.237,0.216 0.347,0.334 0.089,0.097 0.167,0.203 0.246,0.309 0.005,0.007 0.006,0.016 0.005,0.024 0,0.019 -0.002,0.037 -0.008,0.055 -0.003,0.012 -0.012,0.022 -0.02,0.03 -0.012,0.011 -0.025,0.021 -0.039,0.027 -0.019,0.009 -0.039,0.014 -0.06,0.018 -0.029,0.006 -0.059,0.01 -0.088,0.012 -1.604,0.12 -3.21,0.23 -4.813,0.356 l -6.267,0.492 -0.195,0.012 0.09,-0.097 0.395,-0.349 c 0.813,-0.604 1.599,-1.245 2.437,-1.813 l 3.549,-2.406 c 0.447,0.284 0.896,0.568 1.345,0.853 z m 4.827,-12.338 c -0.017,0.058 -0.039,0.115 -0.066,0.168 -0.033,0.062 -0.071,0.122 -0.116,0.175 -0.107,0.127 -0.22,0.251 -0.342,0.364 -0.262,0.239 -0.521,0.484 -0.81,0.689 -0.996,0.706 -1.981,1.429 -2.989,2.118 -0.694,0.475 -1.41,0.919 -2.118,1.374 l -4.117,2.645 c -0.583,-0.334 -1.166,-0.669 -1.749,-1.002 l -7.456,-4.262 c -1.684,-1.006 -3.378,-1.995 -5.051,-3.019 -0.315,-0.193 -0.611,-0.417 -0.912,-0.631 -0.096,-0.068 -0.185,-0.146 -0.277,-0.218 -0.029,-0.022 -0.061,-0.042 -0.088,-0.066 -0.063,-0.058 -0.127,-0.118 -0.186,-0.182 -0.036,-0.04 -0.066,-0.083 -0.096,-0.128 -0.029,-0.047 -0.058,-0.096 -0.078,-0.148 -0.021,-0.053 -0.04,-0.109 -0.048,-0.167 -0.009,-0.06 -0.01,-0.121 -0.001,-0.181 0.009,-0.066 0.027,-0.13 0.05,-0.192 0.024,-0.067 0.054,-0.133 0.091,-0.194 0.074,-0.126 0.153,-0.251 0.243,-0.368 0.104,-0.134 0.215,-0.262 0.333,-0.383 0.963,-0.991 1.941,-1.968 2.909,-2.955 l 2.61,-2.663 0.124,0.43 0.317,0.756 0.021,0.046 c 0.69,1.196 1.338,2.417 2.07,3.588 0.841,1.346 1.744,2.653 2.646,3.958 0.424,0.611 0.866,1.21 1.332,1.791 0.405,0.505 0.824,1.001 1.279,1.463 0.399,0.405 0.836,0.775 1.28,1.132 0.22,0.176 0.467,0.318 0.709,0.463 0.114,0.07 0.237,0.126 0.36,0.181 0.117,0.051 0.236,0.096 0.357,0.135 0.118,0.038 0.238,0.069 0.36,0.094 0.11,0.023 0.223,0.041 0.335,0.051 0.102,0.009 0.205,0.011 0.308,0.007 0.094,-0.002 0.189,-0.011 0.283,-0.026 0.087,-0.013 0.174,-0.033 0.258,-0.057 0.08,-0.022 0.158,-0.05 0.235,-0.083 0.071,-0.029 0.141,-0.064 0.209,-0.102 0.064,-0.036 0.129,-0.073 0.188,-0.118 0.108,-0.082 0.216,-0.167 0.314,-0.26 0.084,-0.08 0.161,-0.168 0.231,-0.26 0.09,-0.117 0.171,-0.241 0.246,-0.368 0.091,-0.154 0.177,-0.313 0.252,-0.476 0.084,-0.182 0.162,-0.367 0.225,-0.557 0.13,-0.396 0.254,-0.795 0.353,-1.201 0.133,-0.548 0.28,-1.097 0.339,-1.659 l 0.338,-3.251 c 0.771,0.359 1.56,0.685 2.314,1.078 0.736,0.384 1.441,0.828 2.156,1.252 0.084,0.05 0.162,0.108 0.237,0.17 0.106,0.088 0.208,0.181 0.305,0.28 0.051,0.052 0.096,0.111 0.136,0.171 0.039,0.059 0.075,0.122 0.102,0.187 0.025,0.064 0.042,0.133 0.055,0.201 0.006,0.034 0.004,0.069 0.002,0.104 0.001,0.037 -0.002,0.073 -0.012,0.106 z"
           id="path37484" />
      </g>
    </g>
  </g>
</svg>
