<?xml version="1.0" encoding="UTF-8" standalone="no"?>
<svg
   viewBox="0 0 512.57129 64.041695"
   version="1.1"
   id="svg21"
   sodipodi:docname="logo.svg"
   width="512.57129"
   height="64.041695"
   inkscape:version="1.1.1 (1:1.1+202109281949+c3084ef5ed)"
   xmlns:inkscape="http://www.inkscape.org/namespaces/inkscape"
   xmlns:sodipodi="http://sodipodi.sourceforge.net/DTD/sodipodi-0.dtd"
   xmlns="http://www.w3.org/2000/svg"
   xmlns:svg="http://www.w3.org/2000/svg"
   xmlns:rdf="http://www.w3.org/1999/02/22-rdf-syntax-ns#"
   xmlns:cc="http://creativecommons.org/ns#"
   xmlns:dc="http://purl.org/dc/elements/1.1/">
  <sodipodi:namedview
     id="namedview23"
     pagecolor="#505050"
     bordercolor="#eeeeee"
     borderopacity="1"
     inkscape:pageshadow="0"
     inkscape:pageopacity="0"
     inkscape:pagecheckerboard="0"
     showgrid="false"
     inkscape:zoom="1.0136719"
     inkscape:cx="85.826587"
     inkscape:cy="10.358381"
     inkscape:window-width="1366"
     inkscape:window-height="715"
     inkscape:window-x="0"
     inkscape:window-y="25"
     inkscape:window-maximized="1"
     inkscape:current-layer="svg21"
     fit-margin-top="0"
     fit-margin-left="0"
     fit-margin-right="0"
     fit-margin-bottom="0" />
  <defs
     id="defs4">
    <style
       id="style2">.cls-1{fill:#231f20;}</style>
  </defs>
  <title
     id="title6">Protection</title>
  <path
     id="path8"
     style="fill:#ffffff"
     d="M 26.680087,0.0526879 A 76.77,76.77 0 0 1 2.3500082,4.0019066 H 1.0003988 a 1,1 0 0 0 -1.00000003854,1 V 27.802688 A 37.65,37.65 0 0 0 26.711337,64.001907 a 1.07,1.07 0 0 0 0.578124,0 37.65,37.65 0 0 0 26.710938,-36.199219 V 5.0019066 a 1,1 0 0 0 -1,-1 H 51.65079 a 76.77,76.77 0 0 1 -24.330079,-3.9492187 1,1 0 0 0 -0.640624,0 z m 0.320312,10.6367191 a 1.4085997,1.4085997 0 0 1 1.408203,1.410156 v 2.902344 a 14.085997,14.085997 0 0 1 7.507813,3.083984 l 1.324218,-1.310546 a 2.8171994,2.8171994 0 1 1 2.703125,2.085937 3.1552634,3.1552634 0 0 1 -0.716797,-0.09961 l -1.324218,1.324218 a 13.987395,13.987395 0 0 1 3.097656,7.507814 h 2.902344 a 1.4086,1.4086 0 0 1 0,2.816406 h -2.902344 a 13.987395,13.987395 0 0 1 -3.097656,7.580078 l 1.324218,1.322266 a 2.8171994,2.8171994 0 0 1 2.71875,4.705078 2.8171994,2.8171994 0 0 1 -2.001953,0.832031 2.8171994,2.8171994 0 0 1 -2.703125,-3.537109 l -1.324218,-1.322266 a 13.987395,13.987395 0 0 1 -7.507813,3.097657 v 2.816406 a 1.4086,1.4086 0 0 1 -2.816406,0 v -2.816406 a 13.987395,13.987395 0 0 1 -7.494141,-3.183594 l -1.324218,1.324218 a 2.8171994,2.8171994 0 1 1 -1.986329,-2 l 1.324219,-1.324218 A 13.987395,13.987395 0 0 1 13.014071,30.41011 h -2.916016 a 1.4086,1.4086 0 0 1 0,-2.816406 h 2.902344 a 13.987395,13.987395 0 0 1 3.097656,-7.494141 l -1.324218,-1.324218 a 3.1552634,3.1552634 0 0 1 -0.716797,0.09961 2.8171994,2.8171994 0 1 1 2.703125,-2.085938 l 1.324218,1.310547 a 14.085997,14.085997 0 0 1 7.507813,-3.097657 v -2.902344 a 1.4085997,1.4085997 0 0 1 1.408203,-1.410156 z m 0,7.042969 a 11.268798,11.268798 0 0 0 -6.902344,2.380859 l 0.929688,0.929688 a 1.409431,1.409431 0 0 1 -2,1.986328 l -0.929688,-0.916016 a 11.268798,11.268798 0 0 0 -2.367187,6.888672 11.3674,11.3674 0 0 0 2.380859,6.916016 l 0.929688,-0.929688 a 1.4085997,1.4085997 0 0 1 2,0 1.4085997,1.4085997 0 0 1 0,1.986328 l -0.929688,0.929688 a 11.15611,11.15611 0 0 0 6.888672,2.367187 11.15611,11.15611 0 0 0 6.902344,-2.394531 l -0.929688,-0.929688 a 1.4085997,1.4085997 0 0 1 0,-1.986328 1.4085997,1.4085997 0 0 1 2,0 l 0.929688,0.929688 a 11.3674,11.3674 0 0 0 2.367187,-6.888672 11.268798,11.268798 0 0 0 -2.367187,-6.888672 l -0.929688,0.916016 a 1.4085997,1.4085997 0 0 1 -2,0 1.4085997,1.4085997 0 0 1 -0.01367,-2 l 0.929688,-0.929688 a 11.268798,11.268798 0 0 0 -6.888674,-2.367187 z m 3.912109,6.246093 a 2.1165705,2.1165705 0 0 1 1.56836,3.615235 2.1422328,2.1422328 0 1 1 -2.988281,-3.070313 v 0.06836 a 2.1165705,2.1165705 0 0 1 1.419921,-0.613282 z m -8.896484,1.220704 a 2.8173825,2.8173825 0 0 1 0,5.634765 2.8173825,2.8173825 0 0 1 0,-5.634765 z m 4.882813,8.375 a 1.4085997,1.4085997 0 0 1 1.103515,0.412109 1.4085997,1.4085997 0 1 1 -2.003906,0 1.4085997,1.4085997 0 0 1 0.900391,-0.412109 z" />
  <metadata
     id="metadata867">
    <rdf:RDF>
      <cc:Work
         rdf:about="">
        <dc:title>Protection</dc:title>
      </cc:Work>
    </rdf:RDF>
  </metadata>
  <text
     xml:space="preserve"
     style="font-size:64.3304px;line-height:1.25;font-family:Montserrat;-inkscape-font-specification:Montserrat;fill:#ffffff;stroke-width:1.60826"
     x="78.341797"
     y="55.501442"
     id="text1712"><tspan
       sodipodi:role="line"
       id="tspan1710"
       x="78.341797"
       y="55.501442"
       style="font-weight:bold;fill:#ffffff;stroke-width:1.60826">KoronaSehat</tspan></text>
</svg>
