<?xml version="1.0" encoding="UTF-8" standalone="no"?>
<!-- Created with Inkscape (http://www.inkscape.org/) -->

<svg
   width="175.17516"
   height="123.60583"
   viewBox="0 0 46.348426 32.704043"
   version="1.1"
   id="svg5"
   inkscape:version="1.1.1 (1:1.1+202109281949+c3084ef5ed)"
   sodipodi:docname="moderna.svg"
   xmlns:inkscape="http://www.inkscape.org/namespaces/inkscape"
   xmlns:sodipodi="http://sodipodi.sourceforge.net/DTD/sodipodi-0.dtd"
   xmlns:xlink="http://www.w3.org/1999/xlink"
   xmlns="http://www.w3.org/2000/svg"
   xmlns:svg="http://www.w3.org/2000/svg">
  <sodipodi:namedview
     id="namedview7"
     pagecolor="#505050"
     bordercolor="#eeeeee"
     borderopacity="1"
     inkscape:pageshadow="0"
     inkscape:pageopacity="0"
     inkscape:pagecheckerboard="0"
     inkscape:document-units="px"
     showgrid="false"
     showborder="true"
     inkscape:snap-global="false"
     inkscape:zoom="1.8101934"
     inkscape:cx="112.97135"
     inkscape:cy="67.672327"
     inkscape:window-width="1366"
     inkscape:window-height="715"
     inkscape:window-x="0"
     inkscape:window-y="25"
     inkscape:window-maximized="1"
     inkscape:current-layer="layer1"
     showguides="false"
     fit-margin-top="0"
     fit-margin-left="0"
     fit-margin-right="0"
     fit-margin-bottom="0" />
  <defs
     id="defs2">
    <clipPath
       clipPathUnits="userSpaceOnUse"
       id="clipPath14104">
      <rect
         style="fill:#ffffff;fill-opacity:1;stroke:none;stroke-width:0.658005;stroke-linecap:round;stroke-linejoin:round;paint-order:stroke fill markers"
         id="rect14106"
         width="165.61249"
         height="165.61249"
         x="-2042.5171"
         y="799.62646" />
    </clipPath>
    <clipPath
       clipPathUnits="userSpaceOnUse"
       id="clipPath15795">
      <path
         id="path15797"
         style="opacity:1;fill:#ffffff;stroke-width:0.217151;stroke-linecap:round;stroke-linejoin:round;paint-order:stroke fill markers"
         d="m -2258.4916,789.23067 490.6903,131.48007 -73.9576,276.01326 -490.6903,-131.48 z" />
    </clipPath>
    <linearGradient
       id="linear-gradient"
       x1="21.299999"
       y1="114.8"
       x2="21.299999"
       y2="53.84"
       gradientUnits="userSpaceOnUse"
       gradientTransform="matrix(0.26458333,0,0,0.26458333,809.05132,-2101.0359)">
      <stop
         offset="0"
         stop-color="#d4d8e1"
         id="stop4"
         style="stop-color:#f08894;stop-opacity:1" />
      <stop
         offset="1"
         stop-color="#f3f4f5"
         id="stop6" />
    </linearGradient>
    <linearGradient
       id="linear-gradient-2"
       x1="21.309999"
       y1="53.84"
       x2="21.309999"
       y2="45.709999"
       gradientUnits="userSpaceOnUse">
      <stop
         offset="0"
         stop-color="#949aaf"
         id="stop9" />
      <stop
         offset="1"
         stop-color="#c6ccda"
         id="stop11" />
    </linearGradient>
    <linearGradient
       id="linear-gradient-3"
       x1="21.309999"
       y1="45.709999"
       x2="21.309999"
       y2="37.580002"
       xlink:href="#linear-gradient-2" />
    <linearGradient
       id="linear-gradient-4"
       x1="21.309999"
       y1="126.99"
       x2="21.309999"
       y2="114.8"
       xlink:href="#linear-gradient-2"
       gradientTransform="matrix(0.26458333,0,0,0.26458333,807.68064,-2098.4965)" />
    <clipPath
       clipPathUnits="userSpaceOnUse"
       id="clipPath83602">
      <path
         id="path83604"
         style="opacity:1;fill:#ffffff;fill-opacity:1;stroke-width:0.145431;stroke-linecap:round;stroke-linejoin:round;paint-order:stroke fill markers"
         d="m -2285.4189,889.72422 -28.3349,105.74713 490.6903,131.48005 28.3349,-105.7471 z" />
    </clipPath>
    <linearGradient
       inkscape:collect="always"
       xlink:href="#linear-gradient"
       id="linearGradient1614"
       gradientUnits="userSpaceOnUse"
       gradientTransform="matrix(0.26458333,0,0,0.26458333,809.05132,-2101.0359)"
       x1="21.299999"
       y1="114.8"
       x2="21.299999"
       y2="53.84" />
  </defs>
  <g
     inkscape:label="Layer 1"
     inkscape:groupmode="layer"
     id="layer1"
     transform="translate(2348.4679,-894.75698)">
    <g
       id="g1005">
      <g
         id="g964">
        <g
           id="g1612"
           transform="matrix(0.96771558,-0.96771558,-0.96771558,-0.96771558,526.91847,-212.47543)"
           inkscape:export-filename="/home/sunny/Documents/file_kuliah/mata_kuliah/semester_3/Sistem_informasi/tugas_akhir/code/images/icons/corona_vaccine.png"
           inkscape:export-xdpi="385.3598"
           inkscape:export-ydpi="385.3598">
          <rect
             class="cls-1"
             x="811.46161"
             y="-2086.7905"
             width="6.4531875"
             height="16.129"
             id="rect1596"
             style="fill:url(#linearGradient1614);stroke-width:0.264583"
             transform="rotate(-135)" />
          <rect
             class="cls-2"
             x="811.46161"
             y="-2072.8127"
             width="6.4531875"
             height="2.1510625"
             id="rect1598"
             style="fill:#cf4055;fill-opacity:1;stroke-width:0.264583"
             transform="rotate(-135)" />
          <rect
             class="cls-3"
             x="812.53851"
             y="-2088.9417"
             width="4.302125"
             height="2.1510625"
             id="rect1600"
             style="fill:#f3eff0;fill-opacity:1;stroke-width:0.264583"
             transform="rotate(-135)" />
          <rect
             class="cls-4"
             x="812.53851"
             y="-2087.8674"
             width="4.302125"
             height="1.0742083"
             id="rect1602"
             style="fill:#cf4055;fill-opacity:1;stroke-width:0.264583"
             transform="rotate(-135)" />
          <polygon
             class="cls-5"
             points="17.65,37.58 24.96,37.58 27.4,45.71 15.21,45.71 "
             id="polygon1604"
             style="fill:#f3eff0;fill-opacity:1"
             transform="matrix(-0.18708867,-0.18708867,0.18708867,-0.18708867,-2057.7424,913.57102)" />
          <polygon
             class="cls-4"
             points="16.11,42.71 26.5,42.71 27.4,45.71 15.21,45.71 "
             id="polygon1606"
             style="fill:#cf4055;fill-opacity:1"
             transform="matrix(-0.18708867,-0.18708867,0.18708867,-0.18708867,-2057.7424,913.57102)" />
          <rect
             class="cls-6"
             x="813.07562"
             y="-2070.6616"
             width="3.2252707"
             height="3.2252707"
             id="rect1608"
             style="fill:#cf4055;fill-opacity:1;stroke-width:0.264583"
             transform="rotate(-135)" />
        </g>
        <path
           class="cls-19"
           d="m -2307.2576,909.83833 v -2.58173 l -21.7258,-2e-5 a 0.36209724,0.36209724 0 0 1 -0.3622,-0.36211 v -1.11153 l -2.5708,-3e-5 a 0.36209724,0.36209724 0 0 1 -0.3621,-0.36211 l -1e-4,-0.46705 -2.6867,-0.80393 c -0.3259,-0.0971 -0.2573,-0.33662 -0.2571,-1.31078 h -12.8834 a 0.362125,0.362125 0 0 1 0,-0.72425 l 12.8834,2e-5 c 0,-0.96675 -0.069,-1.2094 0.2571,-1.30713 l 2.6868,-0.80745 v -0.46714 a 0.36209724,0.36209724 0 0 1 0.362,-0.36205 l 2.5818,-5e-5 v -1.10808 a 0.36209724,0.36209724 0 0 1 0.3621,-0.36196 l 21.7259,-8e-5 -10e-5,-2.58172 a 0.36215,0.36215 0 0 1 0.7243,-3e-5 l -10e-5,4.79054 3.679,-7e-5 -10e-5,-1.1116 a 0.3621095,0.3621095 0 0 1 0.7242,-2e-5 v 7.35791 a 0.36209952,0.36209952 0 0 1 -0.7241,-7e-5 l -10e-5,-1.10792 -3.6897,-2e-5 v 4.79054 a 0.3621,0.3621 0 0 1 -0.7242,-8e-5 z m -27.2406,-8.41508 v 2.11099 l 2.2196,0.66625 1e-4,-3.44364 z m 2.9439,-1.52814 v 5.16356 l 2.2196,4e-5 10e-5,-5.16365 z m 28.7106,4.42855 10e-5,-3.68984 -3.6898,7e-5 v 3.68974 z m -4.4139,-5.89863 -21.3637,-3e-5 v 8.10733 l 2.2414,-3e-5 v -1.11153 a 0.3621095,0.3621095 0 0 1 0.7242,-10e-6 l -1e-4,1.11162 2.2088,-5e-5 v -1.84659 a 0.36215,0.36215 0 0 1 0.7243,-3e-5 v 1.84659 l 2.2196,6e-5 -1e-4,-1.11154 a 0.36215,0.36215 0 0 1 0.7243,-2e-5 v 1.11153 l 2.216,-10e-6 v -1.84659 a 0.36210466,0.36210466 0 0 1 0.7242,-3e-5 v 1.84659 l 2.2197,6e-5 -10e-5,-1.11154 a 0.36215,0.36215 0 0 1 0.7243,-2e-5 v 1.11154 l 2.2196,5e-5 v -1.8466 a 0.3621095,0.3621095 0 0 1 0.7242,-10e-6 v 1.84659 h 3.6934 z"
           id="path1610"
           style="fill:#231f20;fill-opacity:1;stroke-width:0.362097" />
      </g>
      <g
         id="g37805"
         transform="matrix(0.38667596,0,0,0.38667596,-1395.7234,569.70969)">
        <path
           style="fill:#98daf2;stroke-width:0.103813"
           d="m -2451.5402,925.09625 -2.2839,-0.0553 -0.094,-0.38222 c -0.074,-0.29987 -0.057,-0.43965 0.08,-0.64883 l 0.1747,-0.26661 h 3.6184 c 4.0154,0 3.8929,-0.0216 3.8929,0.68597 0,0.63973 -0.1815,0.71506 -1.7321,0.71892 -0.7545,0.002 -2.3997,-0.0215 -3.6558,-0.0519 z m 7.6534,-0.0612 c -0.1768,-0.12382 -0.2308,-0.26459 -0.2308,-0.60211 0,-0.24228 0.056,-0.49657 0.1246,-0.56508 0.092,-0.0921 1.0642,-0.12458 3.7298,-0.12458 4.0361,0 3.9316,-0.0194 3.9316,0.72822 0,0.7255 0,0.72516 -3.893,0.72516 -2.9378,0 -3.4647,-0.0233 -3.6622,-0.16161 z m 7.2178,-0.19847 c 0.1778,-0.0667 0.164,-0.62423 -0.019,-0.77634 -0.098,-0.0815 -0.497,-0.11501 -1.1679,-0.0982 -1.3762,0.0344 -1.3822,0.0367 -1.3822,0.51603 v 0.3991 l 0.9084,0.03 c 0.9537,0.0315 1.4445,0.0106 1.661,-0.0706 z m 2.852,0.19847 c -0.2537,-0.17767 -0.3161,-0.73059 -0.1233,-1.09097 0.1033,-0.1929 0.2391,-0.19989 3.4518,-0.17772 l 3.3443,0.0231 -3.2999,0.0548 c -3.5231,0.0585 -3.4966,0.0541 -3.4966,0.57384 0,0.62899 0.2735,0.67479 4.0315,0.67479 2.4239,0 3.3274,-0.0329 3.419,-0.12458 0.1319,-0.13191 0.1673,-0.6815 0.062,-0.95697 -0.037,-0.096 -0.1986,-0.17067 -0.3893,-0.17976 -0.3225,-0.0154 -0.3229,-0.0161 -0.035,-0.0594 0.4137,-0.0622 0.5906,0.13023 0.5906,0.64256 0,0.80006 0.089,0.78197 -3.8521,0.78197 -2.9748,0 -3.5055,-0.0232 -3.7031,-0.16161 z m 9.6893,-0.0691 c -0.219,-0.31259 -0.2048,-0.83996 0.028,-1.05084 0.1044,-0.0945 0.2316,-0.17181 0.2826,-0.17181 0.051,0 -0.011,0.0727 -0.1379,0.16161 -0.1609,0.11266 -0.2307,0.2676 -0.2307,0.51164 0,0.68726 -0.063,0.67632 3.8796,0.67632 2.6959,0 3.5885,-0.0313 3.6989,-0.12977 0.1238,-0.1104 0.125,-0.10265 0.01,0.0519 -0.1263,0.16691 -0.4311,0.18167 -3.7523,0.18167 h -3.6148 l -0.1616,-0.23073 z m 9.9441,0.15128 c -0.066,-0.0419 1.5763,-0.0763 3.6494,-0.0763 2.0732,0 3.7155,0.0343 3.6495,0.0763 -0.066,0.042 -1.7082,0.0763 -3.6495,0.0763 -1.9412,0 -3.5835,-0.0343 -3.6494,-0.0763 z m 10.008,-0.0327 c -0.1,-0.0582 -0.1817,-0.15354 -0.1817,-0.21188 0,-0.0583 0.073,-0.0327 0.1631,0.0571 0.1421,0.14207 0.6308,0.16314 3.784,0.16314 3.339,0 3.6292,-0.0141 3.7267,-0.18168 0.058,-0.0999 0.1073,-0.13262 0.109,-0.0727 0.01,0.33499 -0.2405,0.35816 -3.8327,0.355 -2.2425,-0.002 -3.6548,-0.0428 -3.7684,-0.10897 z m 9.7485,-0.0777 c -0.095,-0.10441 -0.1711,-0.25624 -0.1703,-0.33739 9e-4,-0.0812 0.061,-0.0308 0.1328,0.11199 l 0.1313,0.25953 3.6304,0.0284 c 3.5976,0.0282 3.6321,0.0264 3.8121,-0.19317 0.1,-0.12188 0.1817,-0.17695 0.1817,-0.12237 0,0.0546 -0.086,0.17654 -0.1899,0.27103 -0.1689,0.15288 -0.5845,0.17181 -3.773,0.17181 -3.3396,0 -3.595,-0.0129 -3.7551,-0.18985 z m 9.7482,-0.0409 c -0.089,-0.12689 -0.1562,-0.37215 -0.1497,-0.54501 0.012,-0.30906 0.013,-0.30819 0.084,0.0526 0.04,0.20177 0.107,0.42367 0.1499,0.49311 0.059,0.0953 0.9795,0.12624 3.7521,0.12624 3.3896,0 3.6822,-0.0141 3.7798,-0.18168 0.058,-0.0999 0.1073,-0.13262 0.109,-0.0727 0.01,0.33522 -0.2404,0.35816 -3.9047,0.35816 h -3.6587 z m 10.1837,0.15287 c -0.026,-0.0428 1.6113,-0.065 3.6396,-0.0493 2.8662,0.0222 3.7254,-9.3e-4 3.8571,-0.10381 0.151,-0.1179 0.1539,-0.11251 0.027,0.0493 -0.1309,0.1669 -0.4405,0.18167 -3.809,0.18167 -2.0165,0 -3.6882,-0.035 -3.7147,-0.0779 z m 9.7586,-0.11199 c -0.094,-0.10441 -0.1712,-0.25624 -0.1703,-0.33739 8e-4,-0.0812 0.061,-0.0308 0.1329,0.11199 l 0.1313,0.25953 h 3.7503 c 2.0627,0 3.6964,0.0343 3.6304,0.0763 -0.066,0.042 -1.7362,0.077 -3.7114,0.0779 -3.3486,10e-4 -3.603,-0.0113 -3.7632,-0.18826 z m 9.8621,0.11199 c -0.026,-0.0428 1.6112,-0.065 3.6395,-0.0493 2.8662,0.0222 3.7254,-9.3e-4 3.8571,-0.10381 0.151,-0.1179 0.1539,-0.11251 0.027,0.0493 -0.1308,0.1669 -0.4405,0.18167 -3.8089,0.18167 -2.0166,0 -3.6882,-0.035 -3.7147,-0.0779 z m -108.7562,-0.22675 c -0.167,-0.31208 -0.1269,-0.78754 0.082,-0.97696 0.1688,-0.15278 0.5809,-0.17181 3.7211,-0.17181 3.2893,0 3.5431,0.013 3.7032,0.18985 0.1944,0.21487 0.2243,0.65998 0.064,0.95892 -0.1031,0.19272 -0.2554,0.2008 -3.7855,0.2008 -3.5301,0 -3.6824,-0.008 -3.7855,-0.2008 z m 56.9491,-0.26636 c 0.085,-0.38171 0.1448,-0.46457 0.1426,-0.19898 -8e-4,0.10944 -0.049,0.26905 -0.1069,0.3547 -0.077,0.11372 -0.087,0.0717 -0.036,-0.15572 z m -9.7977,-0.15572 c 0,-0.19984 0.021,-0.28159 0.048,-0.18167 0.026,0.0999 0.026,0.26342 0,0.36334 -0.026,0.0999 -0.048,0.0182 -0.048,-0.18167 z m 49.6225,0 c 0,-0.19984 0.021,-0.28159 0.048,-0.18167 0.026,0.0999 0.026,0.26342 0,0.36334 -0.026,0.0999 -0.048,0.0182 -0.048,-0.18167 z m 19.6206,0 c 0,-0.19984 0.021,-0.28159 0.047,-0.18167 0.026,0.0999 0.026,0.26342 0,0.36334 -0.026,0.0999 -0.047,0.0182 -0.047,-0.18167 z m -67.2784,0 c 0,-0.14274 0.024,-0.20114 0.052,-0.12977 0.029,0.0714 0.029,0.18816 0,0.25954 -0.029,0.0714 -0.052,0.013 -0.052,-0.12977 z m 10.0699,0 c 0,-0.14274 0.023,-0.20114 0.052,-0.12977 0.029,0.0714 0.029,0.18816 0,0.25954 -0.029,0.0714 -0.052,0.013 -0.052,-0.12977 z m 7.8898,0 c 0,-0.14274 0.024,-0.20114 0.052,-0.12977 0.029,0.0714 0.029,0.18816 0,0.25954 -0.029,0.0714 -0.052,0.013 -0.052,-0.12977 z m 19.6244,-0.0519 c 0,-0.17129 0.025,-0.22879 0.052,-0.12779 0.026,0.10101 0.025,0.24116 0,0.31144 -0.028,0.0703 -0.05,-0.0124 -0.048,-0.18365 z m 2.1801,0 c 0,-0.17129 0.025,-0.22879 0.052,-0.12779 0.026,0.10101 0.025,0.24116 0,0.31144 -0.028,0.0703 -0.05,-0.0124 -0.048,-0.18365 z m 19.6167,0.0519 c 0,-0.14274 0.024,-0.20114 0.052,-0.12977 0.029,0.0714 0.029,0.18816 0,0.25954 -0.029,0.0714 -0.052,0.013 -0.052,-0.12977 z m -9.7666,-0.26818 c 0,-0.12094 0.03,-0.14554 0.063,-0.0627 0.03,0.0749 0.026,0.16448 -0.01,0.19897 -0.035,0.0345 -0.059,-0.0268 -0.055,-0.13625 z m -49.5268,-0.13436 c 0,-0.1047 0.3002,-0.37432 0.3485,-0.31299 0.018,0.0224 -0.053,0.1225 -0.1582,0.22242 -0.1047,0.0999 -0.1903,0.14068 -0.1903,0.0906 z m 7.5523,-0.13383 c -0.1,-0.10467 -0.1406,-0.19032 -0.09,-0.19032 0.1047,0 0.3743,0.30025 0.313,0.34855 -0.022,0.0177 -0.1225,-0.0536 -0.2225,-0.15823 z m 2.5175,0.15113 c 0,-0.0596 0.082,-0.17252 0.1817,-0.25088 0.168,-0.13179 0.1702,-0.12691 0.029,0.0652 -0.084,0.11419 -0.1656,0.22709 -0.1817,0.25088 -0.016,0.0238 -0.029,-0.006 -0.029,-0.0652 z m -12.3995,-0.18903 c -0.1108,-0.0838 -0.1516,-0.15242 -0.091,-0.15242 0.061,0 0.1691,0.0701 0.2402,0.15572 0.1617,0.19479 0.1108,0.19366 -0.1496,-0.003 z m 19.9646,-0.0226 c -0.1291,-0.16466 -0.1255,-0.16833 0.039,-0.0392 0.1,0.0784 0.1817,0.16012 0.1817,0.18167 0,0.0855 -0.085,0.0304 -0.2209,-0.14247 z m 12.0555,0.14247 c 0,-0.0216 0.082,-0.10331 0.1817,-0.18167 0.1646,-0.12913 0.1683,-0.12546 0.039,0.0392 -0.1356,0.17292 -0.2209,0.22792 -0.2209,0.14247 z m 7.5651,-0.14247 c -0.1291,-0.16466 -0.1255,-0.16833 0.039,-0.0392 0.1,0.0784 0.1817,0.16012 0.1817,0.18167 0,0.0855 -0.085,0.0304 -0.2209,-0.14247 z m 2.5048,0.14247 c 0,-0.0216 0.082,-0.10331 0.1816,-0.18167 0.1647,-0.12913 0.1683,-0.12546 0.039,0.0392 -0.1356,0.17292 -0.2208,0.22792 -0.2208,0.14247 z m 19.6206,0 c 0,-0.0216 0.082,-0.10331 0.1816,-0.18167 0.1647,-0.12913 0.1684,-0.12546 0.039,0.0392 -0.1356,0.17292 -0.2208,0.22792 -0.2208,0.14247 z m 7.565,-0.14247 c -0.1291,-0.16466 -0.1254,-0.16833 0.039,-0.0392 0.173,0.13562 0.228,0.22087 0.1425,0.22087 -0.021,0 -0.1033,-0.0817 -0.1817,-0.18167 z m -46.9378,-0.0388 c 0.07,-0.0709 0.1542,-0.10284 0.1862,-0.0709 0.032,0.032 -0.026,0.09 -0.128,0.129 -0.148,0.0563 -0.1599,0.0444 -0.058,-0.0581 z m 7.3984,0.0129 c -0.093,-0.0605 -0.1063,-0.10127 -0.032,-0.10222 0.068,-8.3e-4 0.1525,0.0451 0.1878,0.10222 0.08,0.12889 0.044,0.12889 -0.1558,0 z m 22.2921,-0.0129 c 0.07,-0.0709 0.1542,-0.10284 0.1861,-0.0709 0.032,0.032 -0.026,0.09 -0.128,0.129 -0.1479,0.0563 -0.1599,0.0444 -0.058,-0.0581 z"
           id="path37608" />
        <path
           style="fill:#e996a5;stroke-width:0.103813"
           d="m -2433.0875,918.06582 c 0.1,-0.0261 0.2635,-0.0261 0.3634,0 0.1,0.0261 0.018,0.0475 -0.1817,0.0475 -0.1998,0 -0.2816,-0.0214 -0.1817,-0.0475 z m 1.5592,-4.1e-4 c 0.101,-0.0263 0.2412,-0.0246 0.3114,0.004 0.07,0.0284 -0.012,0.05 -0.1836,0.0478 -0.1713,-0.002 -0.2288,-0.0254 -0.1278,-0.0517 z m 15.8833,0 c 0.1011,-0.0263 0.2412,-0.0246 0.3115,0.004 0.07,0.0284 -0.012,0.05 -0.1837,0.0478 -0.1713,-0.002 -0.2288,-0.0254 -0.1278,-0.0517 z m 1.3496,0 c 0.101,-0.0263 0.2412,-0.0246 0.3115,0.004 0.07,0.0284 -0.012,0.05 -0.1837,0.0478 -0.1713,-0.002 -0.2288,-0.0254 -0.1278,-0.0517 z m 16.7119,4.1e-4 c 0.1,-0.0261 0.2634,-0.0261 0.3633,0 0.1,0.0261 0.018,0.0475 -0.1816,0.0475 -0.1999,0 -0.2816,-0.0214 -0.1817,-0.0475 z m 1.5572,0 c 0.1,-0.0261 0.2634,-0.0261 0.3633,0 0.1,0.0261 0.018,0.0475 -0.1816,0.0475 -0.1999,0 -0.2816,-0.0214 -0.1817,-0.0475 z m 40.3831,0 c 0.1,-0.0261 0.2635,-0.0261 0.3634,0 0.1,0.0261 0.018,0.0475 -0.1817,0.0475 -0.1998,0 -0.2816,-0.0214 -0.1817,-0.0475 z m 1.3496,0 c 0.1,-0.0261 0.2634,-0.0261 0.3633,0 0.1,0.0261 0.018,0.0475 -0.1816,0.0475 -0.1999,0 -0.2816,-0.0214 -0.1817,-0.0475 z m -79.4622,-0.10317 c 0.075,-0.03 0.1645,-0.0263 0.199,0.008 0.034,0.0345 -0.027,0.059 -0.1362,0.0545 -0.121,-0.005 -0.1456,-0.0296 -0.063,-0.0627 z m 3.1144,0 c 0.075,-0.03 0.1645,-0.0263 0.199,0.008 0.034,0.0345 -0.027,0.059 -0.1363,0.0545 -0.1209,-0.005 -0.1455,-0.0296 -0.063,-0.0627 z m 14.2159,0.002 c 0.071,-0.0288 0.1881,-0.0288 0.2595,0 0.071,0.0288 0.013,0.0524 -0.1298,0.0524 -0.1427,0 -0.2011,-0.0236 -0.1297,-0.0524 z m 2.9067,0 c 0.071,-0.0288 0.1882,-0.0288 0.2596,0 0.071,0.0288 0.013,0.0524 -0.1298,0.0524 -0.1427,0 -0.2011,-0.0236 -0.1298,-0.0524 z m 15.1567,0 c 0.071,-0.0288 0.1882,-0.0288 0.2595,0 0.071,0.0288 0.013,0.0524 -0.1297,0.0524 -0.1428,0 -0.2012,-0.0236 -0.1298,-0.0524 z m 3.2247,-0.002 c 0.075,-0.03 0.1645,-0.0263 0.199,0.008 0.034,0.0345 -0.027,0.059 -0.1363,0.0545 -0.1209,-0.005 -0.1455,-0.0296 -0.063,-0.0627 z m 38.8259,0 c 0.075,-0.03 0.1645,-0.0263 0.199,0.008 0.035,0.0345 -0.027,0.059 -0.1362,0.0545 -0.121,-0.005 -0.1456,-0.0296 -0.063,-0.0627 z m 2.9068,0 c 0.075,-0.03 0.1645,-0.0263 0.199,0.008 0.034,0.0345 -0.027,0.059 -0.1363,0.0545 -0.1209,-0.005 -0.1455,-0.0296 -0.063,-0.0627 z m -109.7389,-0.21163 c 0.1843,-0.0229 0.5113,-0.0233 0.7267,-8.3e-4 0.2154,0.0225 0.065,0.0412 -0.3351,0.0417 -0.3996,4.1e-4 -0.5759,-0.0179 -0.3916,-0.0409 z m 9.6546,0 c 0.1843,-0.0229 0.5113,-0.0233 0.7267,-8.3e-4 0.2154,0.0225 0.065,0.0412 -0.3351,0.0417 -0.3997,4.1e-4 -0.5759,-0.0179 -0.3916,-0.0409 z m 9.8126,5.2e-4 c 0.157,-0.0238 0.414,-0.0238 0.571,0 0.157,0.0238 0.028,0.0432 -0.2855,0.0432 -0.314,0 -0.4425,-0.0195 -0.2855,-0.0432 z m 35.1425,-8.3e-4 c 0.1866,-0.0231 0.4669,-0.0226 0.6229,10e-4 0.156,0.0237 0,0.0426 -0.3393,0.042 -0.3426,-6.3e-4 -0.4702,-0.02 -0.2836,-0.0431 z m 22.6312,0 c 0.1866,-0.0231 0.4669,-0.0226 0.6229,10e-4 0.156,0.0237 0,0.0426 -0.3393,0.042 -0.3426,-6.3e-4 -0.4702,-0.02 -0.2836,-0.0431 z m 8.9794,7.2e-4 c 0.1578,-0.0239 0.3913,-0.0232 0.519,10e-4 0.1277,0.0246 0,0.0442 -0.2869,0.0434 -0.2855,-8.3e-4 -0.39,-0.0209 -0.2321,-0.0448 z m 10.3256,-4.1e-4 c 0.1843,-0.0229 0.5113,-0.0233 0.7267,-8.3e-4 0.2154,0.0225 0.065,0.0412 -0.3351,0.0417 -0.3997,4.1e-4 -0.5759,-0.0179 -0.3916,-0.0409 z m 17.9596,0 c 0.1843,-0.0229 0.5113,-0.0233 0.7267,-8.3e-4 0.2154,0.0225 0.065,0.0412 -0.3351,0.0417 -0.3997,4.1e-4 -0.5759,-0.0179 -0.3916,-0.0409 z m -115.0749,-7.0661 -0.025,-7.08911 0.9603,0.0298 0.9603,0.0299 0.052,1.12622 c 0.028,0.61942 0.017,1.14773 -0.026,1.17402 -0.043,0.0263 -0.078,-0.46883 -0.078,-1.10026 v -1.14807 h -0.8816 -0.8817 l -0.027,7.03331 -0.028,7.03332 z m 19.2275,2.8847 c 0,-2.31243 0.014,-3.25842 0.03,-2.10221 0.017,1.15622 0.017,3.0482 0,4.20442 -0.017,1.15621 -0.03,0.21022 -0.03,-2.10221 z m 1.869,-0.41525 c 0,-2.54082 0.014,-3.58024 0.03,-2.30983 0.017,1.27041 0.017,3.34926 0,4.61966 -0.017,1.27041 -0.03,0.23099 -0.03,-2.30983 z m 33.4019,3.48127 -0.022,-1.13839 -0.5969,0.56742 -0.5969,0.56743 0.5666,-0.5961 c 0.3116,-0.32785 0.6053,-0.55738 0.6526,-0.51005 0.047,0.0473 0.071,0.5725 0.052,1.16706 l -0.034,1.08103 z m 22.4269,-5.95072 -0.025,-7.08911 0.9602,0.0298 0.9603,0.0299 0.052,0.9605 c 0.029,0.52828 0.017,0.9604 -0.026,0.96027 -0.043,-1.3e-4 -0.078,-0.42067 -0.078,-0.93454 v -0.93432 h -0.8817 -0.8817 l -0.027,7.03331 -0.027,7.03332 z m 1.8891,4.13045 c 0,-1.62726 0.014,-2.29296 0.032,-1.47933 0.018,0.81363 0.018,2.14503 0,2.95867 -0.017,0.81363 -0.032,0.14793 -0.032,-1.47934 z m 37.5597,-4.0706 -0.025,-7.02928 -0.9084,-0.0346 -0.9083,-0.0346 0.9116,-0.0213 c 0.6501,-0.0152 0.9258,0.0159 0.9612,0.10841 0.027,0.0714 0.037,3.25972 0.022,7.08522 l -0.028,6.95546 z m -114.4838,3.1882 c 0,-2.0555 0.014,-2.91109 0.031,-1.90133 0.017,1.00976 0.017,2.69153 1e-4,3.73726 -0.017,1.04573 -0.031,0.21956 -0.031,-1.83593 z m 7.683,-0.83051 c 0,-2.51226 0.014,-3.52516 0.03,-2.25087 0.016,1.27429 0.016,3.32979 -1e-4,4.56776 -0.017,1.23798 -0.03,0.19538 -0.03,-2.31689 z m 104.8879,3.46751 c -0.018,-0.57659 0,-1.06986 0.045,-1.09616 0.043,-0.0263 0.078,0.44546 0.078,1.04835 0,0.60289 -0.02,1.09616 -0.045,1.09616 -0.025,0 -0.06,-0.47176 -0.078,-1.04835 z m -62.3724,0.79612 c 0,-0.0285 0.093,-0.10191 0.2076,-0.16302 0.1142,-0.0611 0.2077,-0.0878 0.2077,-0.0592 0,0.0285 -0.093,0.10191 -0.2077,0.16302 -0.1142,0.0611 -0.2076,0.0878 -0.2076,0.0592 z m 10.5757,-0.55232 c -0.1292,-0.16465 -0.1255,-0.16833 0.039,-0.0392 0.1729,0.13562 0.2279,0.22087 0.1424,0.22087 -0.021,0 -0.1033,-0.0817 -0.1816,-0.18167 z m 41.8365,-0.20763 c -0.1291,-0.16465 -0.1255,-0.16832 0.039,-0.0392 0.1729,0.13562 0.2279,0.22087 0.1425,0.22087 -0.022,0 -0.1033,-0.0818 -0.1817,-0.18168 z m -77.7005,-0.15572 -0.1977,-0.23357 0.2336,0.19776 c 0.2195,0.18585 0.2808,0.26939 0.1977,0.26939 -0.02,0 -0.1248,-0.10511 -0.2336,-0.23358 z m 35.1505,-0.23357 c -0.2521,-0.25694 -0.4351,-0.46716 -0.4065,-0.46716 0.029,0 0.2582,0.21022 0.5103,0.46716 0.2522,0.25693 0.4352,0.46715 0.4066,0.46715 -0.028,0 -0.2582,-0.21022 -0.5104,-0.46715 z m -25.2784,-0.15572 c 0.2812,-0.28549 0.5346,-0.51907 0.5632,-0.51907 0.028,0 -0.1782,0.23358 -0.4594,0.51907 -0.2812,0.28548 -0.5346,0.51906 -0.5631,0.51906 -0.029,0 0.1781,-0.23358 0.4593,-0.51906 z m 7.1076,-0.0779 -0.5674,-0.59693 0.5969,0.56743 c 0.3284,0.31208 0.597,0.5807 0.597,0.59692 0,0.0771 -0.099,-0.0129 -0.6265,-0.56742 z m 5.2786,0.42219 c 0.075,-0.03 0.1645,-0.0263 0.199,0.008 0.034,0.0345 -0.027,0.059 -0.1363,0.0545 -0.1209,-0.005 -0.1455,-0.0296 -0.063,-0.0627 z m 17.7455,0.002 c 0.071,-0.0288 0.1881,-0.0288 0.2595,0 0.071,0.0288 0.013,0.0524 -0.1298,0.0524 -0.1427,0 -0.2011,-0.0236 -0.1297,-0.0524 z m 42.2582,-0.002 c 0.075,-0.03 0.1645,-0.0263 0.199,0.008 0.035,0.0345 -0.027,0.059 -0.1362,0.0545 -0.121,-0.005 -0.1456,-0.0296 -0.063,-0.0627 z m -78.1774,-0.10165 c 0.071,-0.0288 0.1881,-0.0288 0.2595,0 0.071,0.0288 0.013,0.0524 -0.1298,0.0524 -0.1427,0 -0.2011,-0.0236 -0.1297,-0.0524 z m 1.092,-0.003 c 0.101,-0.0263 0.2411,-0.0246 0.3114,0.004 0.07,0.0284 -0.012,0.05 -0.1836,0.0479 -0.1713,-0.002 -0.2288,-0.0254 -0.1278,-0.0517 z m 16.0436,10e-4 c 0.075,-0.03 0.1644,-0.0263 0.1989,0.008 0.034,0.0345 -0.027,0.059 -0.1362,0.0545 -0.121,-0.005 -0.1456,-0.0296 -0.063,-0.0627 z m 17.8557,0 c 0.075,-0.03 0.1645,-0.0263 0.199,0.008 0.035,0.0345 -0.027,0.059 -0.1362,0.0545 -0.121,-0.005 -0.1456,-0.0296 -0.063,-0.0627 z m 1.9725,0 c 0.075,-0.03 0.1645,-0.0263 0.199,0.008 0.035,0.0345 -0.027,0.059 -0.1363,0.0545 -0.1209,-0.005 -0.1455,-0.0296 -0.063,-0.0627 z m 40.2793,0 c 0.075,-0.03 0.1645,-0.0263 0.199,0.008 0.035,0.0345 -0.027,0.059 -0.1362,0.0545 -0.121,-0.005 -0.1456,-0.0296 -0.063,-0.0627 z m 1.8687,0 c 0.075,-0.03 0.1644,-0.0263 0.1989,0.008 0.034,0.0345 -0.027,0.059 -0.1362,0.0545 -0.121,-0.005 -0.1456,-0.0296 -0.063,-0.0627 z m 3.9643,-0.29244 c 0.1341,-0.14274 0.2672,-0.25953 0.2957,-0.25953 0.029,0 -0.058,0.11679 -0.1919,0.25953 -0.1341,0.14274 -0.2672,0.25953 -0.2957,0.25953 -0.029,0 0.058,-0.11679 0.1919,-0.25953 z m -49.5767,-0.21335 c -0.1935,-0.15503 -0.1922,-0.15695 0.032,-0.0483 0.1284,0.0623 0.2336,0.13491 0.2336,0.16145 0,0.0794 -0.054,0.0565 -0.2657,-0.11319 z m -38.4145,-0.17595 -0.1977,-0.23358 0.2336,0.19777 c 0.1284,0.10877 0.2335,0.21388 0.2335,0.23358 0,0.0831 -0.084,0.0217 -0.2694,-0.19777 z m 2.9106,0.0721 c -0.1936,-0.15504 -0.1923,-0.15695 0.032,-0.0483 0.1285,0.0623 0.2336,0.13491 0.2336,0.16145 0,0.0794 -0.054,0.0565 -0.2656,-0.11319 z m 22.6892,0.11684 c 0,-0.0285 0.093,-0.10191 0.2076,-0.16302 0.1142,-0.0611 0.2076,-0.0878 0.2076,-0.0592 0,0.0285 -0.093,0.10191 -0.2076,0.16303 -0.1142,0.0611 -0.2076,0.0878 -0.2076,0.0592 z m 18.0357,-0.0721 c 0.07,-0.0709 0.1542,-0.10285 0.1861,-0.0709 0.032,0.032 -0.026,0.09 -0.128,0.12899 -0.148,0.0563 -0.1599,0.0444 -0.058,-0.0581 z m 3.0382,-0.13013 c 0,-0.0216 0.082,-0.10331 0.1817,-0.18167 0.1647,-0.12913 0.1683,-0.12546 0.039,0.0392 -0.1356,0.17293 -0.2209,0.22792 -0.2209,0.14248 z m 30.563,-0.2982 -0.1977,-0.23357 0.2335,0.19776 c 0.2195,0.18585 0.2809,0.26939 0.1978,0.26939 -0.02,0 -0.1248,-0.10511 -0.2336,-0.23358 z m -65.9631,0.0906 c 0,-0.0216 0.082,-0.10331 0.1817,-0.18168 0.1646,-0.12913 0.1683,-0.12545 0.039,0.0392 -0.1357,0.17292 -0.2209,0.22792 -0.2209,0.14248 z m 26.2568,-0.24629 -0.2517,-0.28549 0.2855,0.25167 c 0.157,0.13843 0.2855,0.26689 0.2855,0.28549 0,0.0814 -0.084,0.0152 -0.3193,-0.25167 z m 42.094,-0.0519 -0.1977,-0.23358 0.2335,0.19776 c 0.2195,0.18585 0.2809,0.2694 0.1978,0.2694 -0.02,0 -0.1248,-0.10511 -0.2336,-0.23358 z m -70.2238,-0.31144 c 0.4302,-0.45835 0.5234,-0.54077 0.5234,-0.46282 0,0.0167 -0.2219,0.23856 -0.4931,0.49311 l -0.4931,0.46282 z m 9.8098,0 -0.4104,-0.4412 0.4412,0.41036 c 0.4103,0.38164 0.4889,0.47205 0.4104,0.47205 -0.017,0 -0.2155,-0.19855 -0.4412,-0.44121 z m 67.4312,0.40201 c 0,-0.0216 0.082,-0.10331 0.1817,-0.18167 0.1647,-0.12913 0.1683,-0.12546 0.039,0.0392 -0.1356,0.17293 -0.2209,0.22792 -0.2209,0.14248 z m -59.5885,-0.42796 c 0.1341,-0.14274 0.2672,-0.25953 0.2958,-0.25953 0.028,0 -0.058,0.11679 -0.192,0.25953 -0.1341,0.14274 -0.2671,0.25953 -0.2957,0.25953 -0.028,0 0.058,-0.11679 0.1919,-0.25953 z m 9.9043,-0.18167 -0.1978,-0.23358 0.2336,0.19776 c 0.2195,0.18585 0.2808,0.26939 0.1978,0.26939 -0.02,0 -0.1248,-0.10511 -0.2336,-0.23357 z m 50.3071,-0.026 c 0.1341,-0.14274 0.2672,-0.25953 0.2957,-0.25953 0.029,0 -0.058,0.11679 -0.1919,0.25953 -0.1341,0.14274 -0.2671,0.25953 -0.2957,0.25953 -0.028,0 0.058,-0.11679 0.1919,-0.25953 z m -8.4221,-0.23358 c -0.1291,-0.16465 -0.1254,-0.16832 0.039,-0.0392 0.173,0.13562 0.228,0.22087 0.1425,0.22087 -0.022,0 -0.1033,-0.0818 -0.1817,-0.18168 z m -33.5182,0.0387 c 0,-0.0216 0.082,-0.10331 0.1816,-0.18167 0.1647,-0.12913 0.1684,-0.12546 0.039,0.0392 -0.1356,0.17293 -0.2208,0.22792 -0.2208,0.14248 z m -44.5357,-0.79131 c -0.061,-0.11419 -0.088,-0.20762 -0.059,-0.20762 0.028,0 0.1019,0.0934 0.163,0.20762 0.061,0.1142 0.088,0.20763 0.059,0.20763 -0.029,0 -0.1019,-0.0934 -0.163,-0.20763 z m 45.4423,-0.42813 c 0.07,-0.071 0.1542,-0.10285 0.1862,-0.0709 0.032,0.032 -0.026,0.09 -0.1281,0.12899 -0.1479,0.0563 -0.1599,0.0444 -0.058,-0.0581 z m -35.3643,-0.98199 c 0,-0.12094 0.03,-0.14554 0.063,-0.0627 0.03,0.0749 0.026,0.16448 -0.01,0.19897 -0.035,0.0345 -0.059,-0.0268 -0.055,-0.13625 z m 22.9427,-0.10381 c 0,-0.12094 0.029,-0.14554 0.063,-0.0627 0.03,0.0749 0.026,0.16447 -0.01,0.19897 -0.034,0.0345 -0.059,-0.0268 -0.054,-0.13625 z m -20.962,-0.14707 c 0,-0.14275 0.023,-0.20114 0.052,-0.12977 0.029,0.0714 0.029,0.18816 0,0.25953 -0.029,0.0714 -0.052,0.013 -0.052,-0.12976 z m -12.6734,-0.0606 c 0.01,-0.12094 0.03,-0.14553 0.063,-0.0627 0.03,0.0749 0.026,0.16448 -0.01,0.19897 -0.035,0.0345 -0.059,-0.0268 -0.055,-0.13625 z m 28.3409,0 c 0.01,-0.12094 0.03,-0.14553 0.063,-0.0627 0.03,0.0749 0.026,0.16448 -0.01,0.19897 -0.034,0.0345 -0.059,-0.0268 -0.055,-0.13625 z m 47.243,-0.0433 c 0,-0.14274 0.024,-0.20113 0.052,-0.12976 0.029,0.0714 0.029,0.18816 0,0.25953 -0.029,0.0714 -0.052,0.013 -0.052,-0.12977 z m -58.1433,-0.0605 c 0,-0.12094 0.03,-0.14554 0.063,-0.0627 0.03,0.0749 0.026,0.16448 -0.01,0.19897 -0.035,0.0345 -0.059,-0.0268 -0.055,-0.13625 z m -6.632,-0.19898 c 0,-0.17129 0.025,-0.22879 0.052,-0.12779 0.026,0.10101 0.025,0.24116 0,0.31144 -0.028,0.0703 -0.05,-0.0124 -0.048,-0.18365 z m 24.7036,0.0519 c 0,-0.14274 0.023,-0.20114 0.052,-0.12977 0.029,0.0714 0.029,0.18816 0,0.25954 -0.029,0.0714 -0.052,0.013 -0.052,-0.12977 z m 26.3883,-0.62288 c 0,-0.48532 0.018,-0.68386 0.04,-0.4412 0.022,0.24266 0.022,0.63974 0,0.88241 -0.022,0.24266 -0.04,0.0441 -0.04,-0.44121 z m -46.4022,-0.31144 c 0,-0.59951 0.017,-0.84477 0.038,-0.54501 0.021,0.29976 0.021,0.79027 0,1.09003 -0.021,0.29976 -0.038,0.0545 -0.038,-0.54502 z m 72.9661,0.72669 c 0,-0.19984 0.021,-0.28159 0.047,-0.18167 0.026,0.0999 0.026,0.26343 0,0.36335 -0.026,0.0999 -0.047,0.0182 -0.047,-0.18168 z m -90.4082,-0.67478 c -3e-4,-0.51387 0.017,-0.73718 0.039,-0.49624 0.022,0.24094 0.022,0.66138 7e-4,0.93431 -0.021,0.27294 -0.039,0.0758 -0.04,-0.43807 z m 35.5034,0.0519 c 0,-0.48533 0.018,-0.68387 0.04,-0.44121 0.022,0.24267 0.022,0.63975 0,0.88241 -0.022,0.24266 -0.04,0.0441 -0.04,-0.4412 z m 43.8847,0.66613 c 0,-0.12094 0.03,-0.14554 0.063,-0.0627 0.03,0.0749 0.026,0.16448 -0.01,0.19897 -0.034,0.0345 -0.059,-0.0268 -0.054,-0.13625 z m -77.5252,-0.66613 c 0,-0.31404 0.019,-0.4425 0.043,-0.28549 0.024,0.15702 0.024,0.41396 0,0.57097 -0.024,0.15702 -0.043,0.0285 -0.043,-0.28548 z m 17.4416,-0.0519 c 6e-4,-0.34258 0.02,-0.47021 0.043,-0.28362 0.023,0.18658 0.023,0.46688 0,0.62287 -0.024,0.156 -0.043,0.003 -0.042,-0.33925 z m 11.1069,0.0519 c 0,-0.31404 0.019,-0.4425 0.043,-0.28549 0.024,0.15702 0.024,0.41396 0,0.57097 -0.024,0.15702 -0.043,0.0285 -0.043,-0.28548 z m -15.6771,-0.0519 c 8e-4,-0.28548 0.021,-0.38995 0.045,-0.23215 0.024,0.1578 0.023,0.39138 0,0.51906 -0.025,0.12769 -0.044,-10e-4 -0.043,-0.28691 z m -27.408,-0.46716 c 0,-0.25693 0.02,-0.36204 0.045,-0.23358 0.025,0.12847 0.025,0.33869 0,0.46716 -0.025,0.12847 -0.045,0.0234 -0.045,-0.23358 z m 103.0819,-0.10381 c 0,-0.19984 0.021,-0.28159 0.047,-0.18167 0.026,0.0999 0.026,0.26342 0,0.36334 -0.026,0.0999 -0.047,0.0182 -0.047,-0.18167 z m -40.3832,-0.10381 c 0,-0.19984 0.021,-0.28159 0.047,-0.18167 0.026,0.0999 0.026,0.26342 0,0.36334 -0.026,0.0999 -0.047,0.0182 -0.047,-0.18167 z m 4.6716,-0.10381 c 0,-0.19984 0.021,-0.2816 0.048,-0.18168 0.026,0.0999 0.026,0.26343 0,0.36335 -0.026,0.0999 -0.048,0.0182 -0.048,-0.18167 z m -41.9481,0 c 0,-0.14275 0.024,-0.20114 0.052,-0.12977 0.029,0.0714 0.029,0.18816 0,0.25953 -0.029,0.0714 -0.052,0.013 -0.052,-0.12976 z m 66.6478,0 c 0,-0.14275 0.024,-0.20114 0.052,-0.12977 0.029,0.0714 0.029,0.18816 0,0.25953 -0.029,0.0714 -0.052,0.013 -0.052,-0.12976 z m -77.4525,-0.26819 c 0.01,-0.12093 0.03,-0.14553 0.063,-0.0627 0.03,0.0749 0.026,0.16448 -0.01,0.19898 -0.035,0.0345 -0.059,-0.0268 -0.055,-0.13626 z m 28.3409,0 c 0.01,-0.12093 0.03,-0.14553 0.063,-0.0627 0.03,0.0749 0.026,0.16448 -0.01,0.19898 -0.034,0.0345 -0.059,-0.0268 -0.055,-0.13626 z m 47.2468,-0.0952 c 0,-0.17129 0.025,-0.2288 0.052,-0.12779 0.026,0.10101 0.025,0.24115 0,0.31144 -0.028,0.0703 -0.05,-0.0124 -0.048,-0.18365 z m -62.9143,-0.0519 c 0,-0.14274 0.023,-0.20113 0.052,-0.12976 0.029,0.0714 0.029,0.18816 0,0.25953 -0.029,0.0714 -0.052,0.013 -0.052,-0.12977 z m -36.8617,-0.0606 c 0,-0.12094 0.03,-0.14554 0.063,-0.0627 0.03,0.0749 0.026,0.16448 -0.01,0.19897 -0.035,0.0345 -0.059,-0.0268 -0.055,-0.13625 z m 57.8237,-0.10382 c 0,-0.12093 0.029,-0.14553 0.063,-0.0627 0.03,0.0749 0.026,0.16448 -0.01,0.19898 -0.034,0.0345 -0.059,-0.0268 -0.054,-0.13626 z m 28.3408,0 c 0,-0.12093 0.03,-0.14553 0.063,-0.0627 0.03,0.0749 0.026,0.16448 -0.01,0.19898 -0.035,0.0345 -0.059,-0.0268 -0.055,-0.13626 z m 10.299,-0.30278 c 8e-4,-0.28549 0.021,-0.38996 0.045,-0.23215 0.024,0.1578 0.023,0.39138 0,0.51906 -0.025,0.12768 -0.044,-10e-4 -0.043,-0.28691 z m 5.2729,0.30278 c 0.01,-0.12093 0.03,-0.14553 0.063,-0.0627 0.03,0.0749 0.026,0.16448 -0.01,0.19898 -0.035,0.0345 -0.059,-0.0268 -0.055,-0.13626 z m 10.7966,0 c 0,-0.12093 0.03,-0.14553 0.063,-0.0627 0.03,0.0749 0.026,0.16448 -0.01,0.19898 -0.034,0.0345 -0.059,-0.0268 -0.054,-0.13626 z m -40.375,-0.14706 c 0,-0.14275 0.024,-0.20114 0.052,-0.12977 0.029,0.0714 0.029,0.18816 0,0.25953 -0.029,0.0714 -0.052,0.013 -0.052,-0.12976 z m -19.7326,-0.0606 c 0.01,-0.12094 0.03,-0.14554 0.063,-0.0627 0.03,0.0749 0.026,0.16448 -0.01,0.19897 -0.035,0.0345 -0.059,-0.0268 -0.055,-0.13625 z m 12.5717,0.0865 c 4.8002,-0.026 5.1605,-0.0404 5.2045,-0.20862 0.035,-0.13481 0.05,-0.12139 0.059,0.0529 l 0.012,0.23358 -5.2166,-0.025 -5.2166,-0.025 z m 29.5922,-0.23361 c 0,-0.19984 0.021,-0.28159 0.047,-0.18167 0.026,0.0999 0.026,0.26342 0,0.36334 -0.026,0.0999 -0.047,0.0182 -0.047,-0.18167 z m -17.5603,-0.0606 c 0.01,-0.12093 0.03,-0.14553 0.063,-0.0627 0.03,0.0749 0.026,0.16448 -0.01,0.19898 -0.035,0.0345 -0.059,-0.0268 -0.055,-0.13626 z m 0.1038,-0.62287 c 0,-0.12094 0.03,-0.14554 0.063,-0.0627 0.03,0.0749 0.026,0.16448 -0.01,0.19897 -0.035,0.0345 -0.059,-0.0268 -0.055,-0.13625 z m -59.9917,-0.19898 c 0,-0.17129 0.025,-0.22879 0.052,-0.12779 0.026,0.10101 0.025,0.24116 0,0.31144 -0.029,0.0703 -0.05,-0.0124 -0.048,-0.18365 z m 34.9256,0.0998 c -0.1002,-0.26106 -0.071,-0.32842 0.052,-0.11797 0.061,0.10421 0.088,0.21133 0.062,0.23806 -0.027,0.0267 -0.078,-0.0273 -0.1133,-0.12009 z m 42.411,-0.1517 c 0,-0.14275 0.024,-0.20114 0.052,-0.12977 0.029,0.0714 0.029,0.18816 0,0.25953 -0.029,0.0714 -0.052,0.013 -0.052,-0.12976 z m 1.8687,-0.10382 c 0,-0.14274 0.023,-0.20113 0.052,-0.12976 0.029,0.0714 0.029,0.18816 0,0.25953 -0.029,0.0714 -0.052,0.013 -0.052,-0.12977 z m -88.8719,-0.0606 c 0.01,-0.12094 0.03,-0.14554 0.063,-0.0627 0.03,0.0749 0.026,0.16447 -0.01,0.19897 -0.034,0.0345 -0.059,-0.0268 -0.054,-0.13625 z m 11.5314,-0.0433 c 0,-0.14274 0.024,-0.20114 0.052,-0.12977 0.029,0.0714 0.029,0.18816 0,0.25954 -0.029,0.0714 -0.052,0.013 -0.052,-0.12977 z m 21.2652,-0.30531 c 0,-0.0537 0.046,-0.12623 0.1026,-0.16111 0.059,-0.0364 0.076,0.005 0.041,0.0977 -0.069,0.17985 -0.1434,0.21276 -0.1434,0.0634 z m -14.8971,-0.42138 c 0.1033,-0.11419 0.2112,-0.20762 0.2398,-0.20762 0.028,0 -0.033,0.0934 -0.136,0.20762 -0.1034,0.1142 -0.2113,0.20763 -0.2398,0.20763 -0.029,0 0.033,-0.0934 0.136,-0.20763 z m 75.1085,0.10994 c 0,-0.0537 0.046,-0.12623 0.1026,-0.16111 0.059,-0.0364 0.076,0.005 0.041,0.0977 -0.069,0.17984 -0.1434,0.21275 -0.1434,0.0634 z m 10.9909,-0.084 c -0.1291,-0.16465 -0.1255,-0.16832 0.039,-0.0392 0.1729,0.13562 0.2279,0.22087 0.1425,0.22087 -0.022,0 -0.1033,-0.0818 -0.1817,-0.18168 z m -8.5513,-0.12976 c 0.1033,-0.1142 0.2113,-0.20763 0.2398,-0.20763 0.028,0 -0.033,0.0934 -0.136,0.20763 -0.1033,0.11419 -0.2113,0.20762 -0.2398,0.20762 -0.028,0 0.033,-0.0934 0.136,-0.20762 z m -69.5594,-0.33739 -0.4104,-0.44121 0.4412,0.41037 c 0.4103,0.38164 0.4889,0.47204 0.4104,0.47204 -0.017,0 -0.2155,-0.19854 -0.4412,-0.4412 z m 17.6011,-0.026 c -0.2521,-0.25693 -0.4351,-0.46715 -0.4066,-0.46715 0.029,0 0.2583,0.21022 0.5104,0.46715 0.2522,0.25694 0.4352,0.46716 0.4066,0.46716 -0.028,0 -0.2582,-0.21022 -0.5104,-0.46716 z m 36.2826,0.15572 c 0.1033,-0.11419 0.2112,-0.20762 0.2398,-0.20762 0.028,0 -0.033,0.0934 -0.136,0.20762 -0.1034,0.1142 -0.2113,0.20763 -0.2398,0.20763 -0.029,0 0.033,-0.0934 0.136,-0.20763 z m -44.2762,0.0713 c 0,-0.0179 0.1519,-0.16969 0.3374,-0.33739 l 0.3374,-0.30491 -0.3049,0.33739 c -0.2842,0.3145 -0.3699,0.38511 -0.3699,0.30491 z m 25.8948,-0.30491 -0.3049,-0.33739 0.3374,0.30491 c 0.1855,0.1677 0.3374,0.31953 0.3374,0.33739 0,0.0802 -0.086,0.01 -0.3699,-0.30491 z m -57.8734,-0.20762 c 0.2545,-0.27121 0.4764,-0.49311 0.4931,-0.49311 0.078,0 0,0.0932 -0.4628,0.5234 l -0.4931,0.46282 z m 50.2497,0.18167 c 0.1341,-0.14274 0.2672,-0.25953 0.2957,-0.25953 0.029,0 -0.058,0.11679 -0.1919,0.25953 -0.1341,0.14274 -0.2672,0.25953 -0.2957,0.25953 -0.029,0 0.058,-0.11679 0.1919,-0.25953 z m -52.1495,-0.0985 c -0.039,-0.10035 -0.01,-0.13129 0.092,-0.0929 0.082,0.0316 0.124,0.0993 0.092,0.15043 -0.08,0.12874 -0.1176,0.11689 -0.1845,-0.0575 z m 94.557,-0.16101 c 0.1033,-0.11419 0.2112,-0.20763 0.2398,-0.20763 0.028,0 -0.033,0.0934 -0.136,0.20763 -0.1033,0.11419 -0.2113,0.20762 -0.2398,0.20762 -0.029,0 0.033,-0.0934 0.136,-0.20762 z m -77.4962,0.0646 c 0,-0.0216 0.082,-0.10331 0.1816,-0.18168 0.1647,-0.12913 0.1684,-0.12545 0.039,0.0392 -0.1356,0.17293 -0.2208,0.22792 -0.2208,0.14248 z m 51.8025,0 c 0,-0.0216 0.082,-0.10331 0.1817,-0.18168 0.1647,-0.12913 0.1683,-0.12545 0.039,0.0392 -0.1356,0.17293 -0.2209,0.22792 -0.2209,0.14248 z m -34.2582,-0.10382 c 0,-0.0216 0.082,-0.10331 0.1817,-0.18167 0.1647,-0.12913 0.1683,-0.12546 0.039,0.0392 -0.1356,0.17292 -0.2209,0.22792 -0.2209,0.14247 z m 6.527,-0.24629 c -0.1291,-0.16465 -0.1255,-0.16832 0.039,-0.0392 0.1729,0.13562 0.2279,0.22087 0.1425,0.22087 -0.022,0 -0.1034,-0.0818 -0.1817,-0.18168 z m 11.5364,0.14248 c 0,-0.0216 0.082,-0.10331 0.1817,-0.18167 0.1647,-0.12913 0.1683,-0.12546 0.039,0.0392 -0.1356,0.17293 -0.2209,0.22792 -0.2209,0.14248 z m -60.0037,-0.10381 c 0,-0.0216 0.082,-0.10331 0.1816,-0.18167 0.1647,-0.12913 0.1684,-0.12546 0.039,0.0392 -0.1356,0.17293 -0.2208,0.22792 -0.2208,0.14248 z m 39.6564,-0.22034 c 0.1341,-0.14274 0.2672,-0.25953 0.2958,-0.25953 0.028,0 -0.058,0.11679 -0.1919,0.25953 -0.1341,0.14274 -0.2672,0.25953 -0.2958,0.25953 -0.028,0 0.058,-0.11679 0.1919,-0.25953 z m 10.948,0.14873 c -0.051,-0.0831 -0.037,-0.10258 0.04,-0.0548 0.09,0.0554 0.126,-0.91583 0.1445,-3.85098 l 0.025,-3.92506 0.028,3.8865 c 0.026,3.60258 -0.016,4.30366 -0.2378,3.94437 z m 33.6915,-0.051 c 0,-0.089 0.048,-0.1325 0.1055,-0.0966 0.058,0.0359 0.079,0.10869 0.046,0.16184 -0.089,0.144 -0.1513,0.11715 -0.1513,-0.0652 z m 26.2062,-0.17517 c -0.2842,-0.31409 -0.2857,-0.32016 -0.023,-0.0893 l 0.2817,0.24773 0.034,-1.07861 0.034,-1.07861 0.022,1.16789 c 0.012,0.64234 0.01,1.16789 -0.011,1.16789 -0.018,0 -0.1697,-0.15165 -0.3374,-0.33701 z m -105.8923,-3.8e-4 -0.1978,-0.23358 0.2336,0.19777 c 0.2195,0.18584 0.2808,0.26939 0.1978,0.26939 -0.02,0 -0.1249,-0.10511 -0.2336,-0.23358 z m 9.7031,0.0519 c -0.1291,-0.16465 -0.1255,-0.16833 0.039,-0.0392 0.1,0.0784 0.1817,0.16012 0.1817,0.18168 0,0.0854 -0.085,0.0304 -0.2209,-0.14248 z m 8.0068,-0.0779 c 0.1341,-0.14274 0.2672,-0.25953 0.2957,-0.25953 0.029,0 -0.058,0.11679 -0.1919,0.25953 -0.1341,0.14274 -0.2671,0.25953 -0.2957,0.25953 -0.029,0 0.058,-0.11679 0.1919,-0.25953 z m 46.4464,0.026 -0.1978,-0.23358 0.2336,0.19777 c 0.1284,0.10876 0.2336,0.21387 0.2336,0.23357 0,0.0831 -0.084,0.0218 -0.2694,-0.19776 z m -35.7537,-0.33739 c -0.2521,-0.25694 -0.4351,-0.46716 -0.4065,-0.46716 0.028,0 0.2582,0.21022 0.5103,0.46716 0.2522,0.25694 0.4352,0.46716 0.4066,0.46716 -0.029,0 -0.2582,-0.21022 -0.5104,-0.46716 z m 43.809,0.32415 c 0,-0.0216 0.082,-0.10331 0.1817,-0.18167 0.1646,-0.12913 0.1683,-0.12546 0.039,0.0392 -0.1356,0.17293 -0.2209,0.22792 -0.2209,0.14248 z m 23.306,-0.37606 c 0.223,-0.22838 0.4288,-0.41525 0.4574,-0.41525 0.028,0 -0.1306,0.18687 -0.3536,0.41525 -0.223,0.22839 -0.4289,0.41526 -0.4574,0.41526 -0.029,0 0.1306,-0.18687 0.3536,-0.41526 z m 2.7233,0.29856 c 0.07,-0.0709 0.1542,-0.10284 0.1862,-0.0709 0.032,0.032 -0.026,0.09 -0.1281,0.12899 -0.1479,0.0563 -0.1598,0.0444 -0.058,-0.0581 z m -94.8571,-0.0263 c 0,-0.0216 0.082,-0.10331 0.1816,-0.18168 0.1647,-0.12912 0.1684,-0.12545 0.039,0.0392 -0.1356,0.17293 -0.2208,0.22792 -0.2208,0.14248 z m 52.8406,-0.0646 c 0.086,-0.0553 0.2025,-0.10063 0.2596,-0.10063 0.057,0 0.034,0.0453 -0.052,0.10063 -0.086,0.0553 -0.2025,0.10063 -0.2596,0.10063 -0.057,0 -0.034,-0.0453 0.052,-0.10063 z m -61.8204,-0.62288 c 0.339,-0.34258 0.6397,-0.62287 0.6682,-0.62287 0.029,0 -0.2254,0.28029 -0.5644,0.62287 -0.339,0.34259 -0.6398,0.62288 -0.6683,0.62288 -0.029,0 0.2254,-0.28029 0.5645,-0.62288 z m 50.9145,0.23358 -0.3577,-0.3893 0.3893,0.35776 c 0.3623,0.33299 0.437,0.42084 0.3577,0.42084 -0.017,0 -0.1925,-0.17518 -0.3893,-0.3893 z m 7.9992,0.35682 c 0,-0.0179 0.1518,-0.1697 0.3374,-0.3374 l 0.3374,-0.3049 -0.3049,0.33739 c -0.2843,0.3145 -0.3699,0.38511 -0.3699,0.30491 z m 27.147,-0.38277 c 0.223,-0.22839 0.4289,-0.41525 0.4574,-0.41525 0.029,0 -0.1306,0.18686 -0.3536,0.41525 -0.223,0.22839 -0.4288,0.41525 -0.4574,0.41525 -0.028,0 0.1306,-0.18686 0.3536,-0.41525 z m -62.3395,0.17514 c 0,-0.0179 0.1518,-0.16969 0.3374,-0.33739 l 0.3374,-0.30491 -0.305,0.33739 c -0.2842,0.3145 -0.3698,0.38511 -0.3698,0.30491 z m 70.787,-0.14919 c -0.1291,-0.16465 -0.1254,-0.16832 0.039,-0.0392 0.1729,0.13561 0.2279,0.22086 0.1425,0.22086 -0.022,0 -0.1033,-0.0817 -0.1817,-0.18167 z m 21.0684,0.0552 c 0.055,-0.0554 0.1873,-0.0823 0.2933,-0.0598 0.1427,0.0303 0.1166,0.0564 -0.1007,0.10066 -0.1894,0.0386 -0.2577,0.0242 -0.1926,-0.0408 z m -103.3981,-0.0483 c 0.075,-0.03 0.1645,-0.0263 0.199,0.008 0.034,0.0345 -0.027,0.059 -0.1363,0.0545 -0.1209,-0.005 -0.1455,-0.0296 -0.063,-0.0627 z m 15.4681,0 c 0.075,-0.03 0.1645,-0.0263 0.199,0.008 0.035,0.0345 -0.027,0.059 -0.1363,0.0545 -0.1209,-0.005 -0.1455,-0.0296 -0.063,-0.0627 z m 19.932,0 c 0.075,-0.03 0.1645,-0.0263 0.199,0.008 0.034,0.0345 -0.027,0.059 -0.1362,0.0545 -0.121,-0.005 -0.1456,-0.0296 -0.063,-0.0627 z m 28.7756,0.0317 c 0,-0.0216 0.082,-0.10331 0.1817,-0.18168 0.1647,-0.12913 0.1683,-0.12545 0.039,0.0392 -0.1356,0.17293 -0.2209,0.22792 -0.2209,0.14248 z m 28.7367,-0.0317 c 0.075,-0.03 0.1645,-0.0263 0.199,0.008 0.035,0.0345 -0.027,0.059 -0.1363,0.0545 -0.1209,-0.005 -0.1455,-0.0296 -0.063,-0.0627 z m 2.4915,0 c 0.075,-0.03 0.1645,-0.0263 0.199,0.008 0.034,0.0345 -0.027,0.059 -0.1363,0.0545 -0.1209,-0.005 -0.1455,-0.0296 -0.063,-0.0627 z m 7.7267,0.0274 c 0.042,-0.0512 0.019,-0.16481 -0.052,-0.2524 -0.1027,-0.12702 -0.1026,-0.14347 0,-0.0813 0.097,0.0585 0.1298,-0.0599 0.1298,-0.47319 v -0.55114 h 0.4053 c 0.2229,0 0.3857,0.0318 0.3616,0.0707 -0.024,0.0389 0,0.10003 0.062,0.13589 0.058,0.0359 0.104,0.12084 0.1023,0.18884 0,0.068 -0.051,0.0419 -0.109,-0.058 -0.063,-0.10806 -0.2299,-0.18167 -0.4121,-0.18167 -0.2981,0 -0.3059,0.0131 -0.2921,0.49311 0.01,0.27121 0.034,0.388 0.059,0.25953 0.031,-0.16227 0.1141,-0.2299 0.2714,-0.22154 0.1756,0.009 0.1856,0.0227 0.045,0.0595 -0.1,0.0261 -0.1817,0.10689 -0.1817,0.1795 0,0.0726 -0.1051,0.22051 -0.2336,0.32867 -0.1285,0.10816 -0.1989,0.15474 -0.1566,0.1035 z m -112.065,-0.13545 c 0.1856,-0.023 0.4892,-0.023 0.6748,0 0.1856,0.023 0.034,0.0419 -0.3374,0.0419 -0.3711,0 -0.523,-0.0188 -0.3374,-0.0419 z m 9.6546,0 c 0.1856,-0.023 0.4892,-0.023 0.6748,0 0.1855,0.023 0.034,0.0419 -0.3374,0.0419 -0.3711,0 -0.523,-0.0188 -0.3374,-0.0419 z m 4.269,-0.10657 c -0.1291,-0.16466 -0.1254,-0.16833 0.039,-0.0392 0.1,0.0784 0.1817,0.16012 0.1817,0.18167 0,0.0854 -0.085,0.0304 -0.2209,-0.14247 z m 11.3029,0.10657 c 0.1856,-0.023 0.4892,-0.023 0.6748,0 0.1855,0.023 0.034,0.0419 -0.3374,0.0419 -0.3711,0 -0.523,-0.0188 -0.3374,-0.0419 z m 13.0545,-0.13253 c 0.1033,-0.11419 0.2112,-0.20762 0.2398,-0.20762 0.029,0 -0.033,0.0934 -0.136,0.20762 -0.1034,0.1142 -0.2113,0.20763 -0.2398,0.20763 -0.029,0 0.033,-0.0934 0.136,-0.20763 z m 4.1285,0.13569 c 0.101,-0.0263 0.2411,-0.0246 0.3114,0.004 0.07,0.0284 -0.012,0.05 -0.1836,0.0479 -0.1713,-0.002 -0.2288,-0.0254 -0.1278,-0.0517 z m 1.1419,0 c 0.101,-0.0263 0.2412,-0.0246 0.3115,0.004 0.07,0.0284 -0.012,0.05 -0.1837,0.0479 -0.1713,-0.002 -0.2288,-0.0254 -0.1278,-0.0517 z m 16.6665,10e-4 c 0.075,-0.03 0.1645,-0.0263 0.199,0.008 0.035,0.0345 -0.027,0.059 -0.1363,0.0545 -0.1209,-0.005 -0.1455,-0.0296 -0.063,-0.0627 z m 1.3431,0.002 c 0.071,-0.0288 0.1881,-0.0288 0.2595,0 0.071,0.0288 0.013,0.0524 -0.1298,0.0524 -0.1427,0 -0.2011,-0.0236 -0.1297,-0.0524 z m 4.0668,-0.21675 -0.2517,-0.28548 0.2855,0.25167 c 0.157,0.13842 0.2854,0.26689 0.2854,0.28549 0,0.0814 -0.084,0.0152 -0.3192,-0.25168 z m 10.3643,0.21207 c 0.1292,-0.0248 0.316,-0.0239 0.4153,0.002 0.099,0.026 -0.01,0.0463 -0.2348,0.0452 -0.2284,-10e-4 -0.3096,-0.0224 -0.1805,-0.0472 z m 9.8675,0.002 c 0.075,-0.03 0.1645,-0.0263 0.199,0.008 0.035,0.0345 -0.027,0.059 -0.1362,0.0545 -0.121,-0.005 -0.1456,-0.0296 -0.063,-0.0627 z m 16.6575,-10e-4 c 0.101,-0.0263 0.2411,-0.0246 0.3114,0.004 0.07,0.0284 -0.012,0.05 -0.1836,0.0479 -0.1713,-0.002 -0.2288,-0.0254 -0.1278,-0.0517 z m 1.1419,0 c 0.101,-0.0263 0.2412,-0.0246 0.3114,0.004 0.07,0.0284 -0.012,0.05 -0.1836,0.0479 -0.1713,-0.002 -0.2288,-0.0254 -0.1278,-0.0517 z m 9.1679,-0.0992 c -0.036,-0.0935 -0.041,-0.19444 -0.011,-0.22433 0.03,-0.0299 0.058,0.0118 0.062,0.0927 0,0.0869 0.044,0.0621 0.097,-0.0605 0.086,-0.20018 0.09,-0.19947 0.096,0.0198 0.01,0.28387 -0.1561,0.40071 -0.2438,0.17235 z m -26.1414,-0.008 c 0.1866,-0.0231 0.4669,-0.0226 0.6229,0.001 0.156,0.0237 0,0.0426 -0.3393,0.042 -0.3426,-6.3e-4 -0.4702,-0.02 -0.2836,-0.0431 z m 20.5658,-0.21023 c -0.1291,-0.16465 -0.1255,-0.16832 0.039,-0.0392 0.1729,0.13561 0.2279,0.22086 0.1424,0.22086 -0.021,0 -0.1033,-0.0817 -0.1816,-0.18167 z m -103.3389,-0.25953 -0.3049,-0.33739 0.3374,0.30491 c 0.1856,0.16769 0.3374,0.31952 0.3374,0.33739 0,0.0802 -0.086,0.01 -0.3699,-0.30491 z m 109.4937,-0.006 c -0.011,-0.26955 -0.055,-0.37184 -0.1365,-0.32135 -0.077,0.0478 -0.091,0.0283 -0.04,-0.0548 0.1354,-0.21898 0.2824,0.0431 0.2362,0.42101 l -0.043,0.35059 z m -92.2023,0.20051 c 0,-0.0216 0.082,-0.10331 0.1816,-0.18167 0.1647,-0.12913 0.1684,-0.12546 0.039,0.0392 -0.1356,0.17292 -0.2208,0.22791 -0.2208,0.14247 z m 17.4405,0 c 0,-0.0216 0.082,-0.10331 0.1817,-0.18167 0.1646,-0.12913 0.1683,-0.12546 0.039,0.0392 -0.1357,0.17292 -0.2209,0.22791 -0.2209,0.14247 z m -31.8705,-0.10381 c 0,-0.0216 0.082,-0.10331 0.1817,-0.18167 0.1646,-0.12913 0.1683,-0.12546 0.039,0.0392 -0.1357,0.17293 -0.2209,0.22792 -0.2209,0.14248 z m 76.7176,0 c 0,-0.0216 0.082,-0.10331 0.1817,-0.18167 0.1646,-0.12913 0.1683,-0.12546 0.039,0.0392 -0.1356,0.17293 -0.2209,0.22792 -0.2209,0.14248 z m 6.8384,-0.3501 c -0.1291,-0.16466 -0.1255,-0.16833 0.039,-0.0392 0.1729,0.13562 0.2279,0.22087 0.1425,0.22087 -0.022,0 -0.1033,-0.0818 -0.1817,-0.18167 z m 22.0215,0.026 c 0,-0.11708 0.073,-0.15981 0.2336,-0.13699 0.1285,0.0183 0.2336,0.0799 0.2336,0.13699 0,0.0571 -0.1051,0.11874 -0.2336,0.13699 -0.1607,0.0228 -0.2336,-0.0199 -0.2336,-0.13699 z m 0.3872,-0.0108 c -0.035,-0.0345 -0.1241,-0.0382 -0.199,-0.008 -0.083,0.0331 -0.058,0.0577 0.063,0.0627 0.1095,0.005 0.1708,-0.02 0.1363,-0.0545 z m -99.6454,-0.11896 c -0.1291,-0.16465 -0.1254,-0.16832 0.039,-0.0392 0.1,0.0784 0.1817,0.16011 0.1817,0.18167 0,0.0854 -0.085,0.0304 -0.2209,-0.14248 z m 61.0552,0.0387 c 0,-0.0216 0.082,-0.10331 0.1816,-0.18167 0.1647,-0.12913 0.1684,-0.12546 0.039,0.0392 -0.1356,0.17293 -0.2208,0.22792 -0.2208,0.14248 z m 25.7455,-0.27224 c 0.086,-0.0554 0.2024,-0.10064 0.2595,-0.10064 0.057,0 0.034,0.0453 -0.052,0.10064 -0.086,0.0553 -0.2024,0.10063 -0.2595,0.10063 -0.057,0 -0.034,-0.0453 0.052,-0.10063 z m 12.3858,-0.18563 c -0.068,-0.0434 0.057,-0.0786 0.2794,-0.0786 0.2223,0 0.3476,0.0353 0.2794,0.0786 -0.068,0.0433 -0.1938,0.0786 -0.2794,0.0786 -0.086,0 -0.2114,-0.0354 -0.2794,-0.0786 z m -31.669,-0.0983 c 0.2712,-0.0214 0.715,-0.0214 0.9862,0 0.2712,0.0214 0.049,0.0389 -0.4931,0.0389 -0.5424,0 -0.7643,-0.0175 -0.4931,-0.0389 z m -80.922,-0.30388 c 0.071,-0.0288 0.1881,-0.0288 0.2595,0 0.071,0.0288 0.013,0.0524 -0.1298,0.0524 -0.1427,0 -0.2011,-0.0236 -0.1297,-0.0524 z m 1.7713,-0.002 c 0.075,-0.03 0.1644,-0.0263 0.1989,0.008 0.034,0.0345 -0.027,0.059 -0.1362,0.0545 -0.1209,-0.005 -0.1455,-0.0296 -0.063,-0.0627 z m 7.8897,0 c 0.075,-0.03 0.1645,-0.0263 0.199,0.008 0.034,0.0345 -0.027,0.059 -0.1362,0.0545 -0.121,-0.005 -0.1456,-0.0296 -0.063,-0.0627 z m 1.7649,0 c 0.075,-0.03 0.1644,-0.0263 0.1989,0.008 0.034,0.0345 -0.027,0.059 -0.1362,0.0545 -0.121,-0.005 -0.1456,-0.0296 -0.063,-0.0627 z m 13.2815,0.002 c 0.071,-0.0288 0.1882,-0.0288 0.2595,0 0.071,0.0288 0.013,0.0524 -0.1297,0.0524 -0.1428,0 -0.2012,-0.0236 -0.1298,-0.0524 z m 2.1801,0 c 0.071,-0.0288 0.1881,-0.0288 0.2595,0 0.071,0.0288 0.013,0.0524 -0.1298,0.0524 -0.1427,0 -0.2011,-0.0236 -0.1297,-0.0524 z m 15.1566,0 c 0.071,-0.0288 0.1882,-0.0288 0.2596,0 0.071,0.0288 0.013,0.0524 -0.1298,0.0524 -0.1428,0 -0.2011,-0.0236 -0.1298,-0.0524 z m 2.1801,0 c 0.071,-0.0288 0.1882,-0.0288 0.2595,0 0.071,0.0288 0.013,0.0524 -0.1297,0.0524 -0.1428,0 -0.2012,-0.0236 -0.1298,-0.0524 z m 15.8833,0 c 0.071,-0.0288 0.1882,-0.0288 0.2596,0 0.071,0.0288 0.013,0.0524 -0.1298,0.0524 -0.1427,0 -0.2011,-0.0236 -0.1298,-0.0524 z m 2.1801,0 c 0.071,-0.0288 0.1882,-0.0288 0.2595,0 0.071,0.0288 0.013,0.0524 -0.1297,0.0524 -0.1428,0 -0.2012,-0.0236 -0.1298,-0.0524 z m 15.0593,-0.002 c 0.075,-0.03 0.1645,-0.0263 0.199,0.008 0.034,0.0345 -0.027,0.059 -0.1362,0.0545 -0.121,-0.005 -0.1456,-0.0296 -0.063,-0.0627 z m 9.2394,0 c 0.075,-0.03 0.1645,-0.0263 0.199,0.008 0.035,0.0345 -0.027,0.059 -0.1363,0.0545 -0.1209,-0.005 -0.1455,-0.0296 -0.063,-0.0627 z m 1.8686,0 c 0.075,-0.03 0.1645,-0.0263 0.199,0.008 0.035,0.0345 -0.027,0.059 -0.1363,0.0545 -0.1209,-0.005 -0.1455,-0.0296 -0.063,-0.0627 z m 13.6968,0.002 c 0.071,-0.0288 0.1882,-0.0288 0.2595,0 0.071,0.0288 0.013,0.0524 -0.1297,0.0524 -0.1428,0 -0.2012,-0.0236 -0.1298,-0.0524 z m 2.0763,0 c 0.071,-0.0288 0.1881,-0.0288 0.2595,0 0.071,0.0288 0.013,0.0524 -0.1298,0.0524 -0.1427,0 -0.2011,-0.0236 -0.1297,-0.0524 z m -103.2872,-0.10598 c 0.075,-0.03 0.1644,-0.0263 0.1989,0.008 0.034,0.0345 -0.027,0.059 -0.1362,0.0545 -0.1209,-0.005 -0.1455,-0.0296 -0.063,-0.0627 z m 24.915,0 c 0.075,-0.03 0.1645,-0.0263 0.199,0.008 0.035,0.0345 -0.027,0.059 -0.1363,0.0545 -0.1209,-0.005 -0.1455,-0.0296 -0.063,-0.0627 z m 17.2265,0.002 c 0.071,-0.0288 0.1881,-0.0288 0.2595,0 0.071,0.0288 0.013,0.0524 -0.1298,0.0524 -0.1427,0 -0.2011,-0.0236 -0.1297,-0.0524 z m 18.1737,-0.002 c 0.075,-0.03 0.1645,-0.0263 0.1989,0.008 0.034,0.0345 -0.027,0.059 -0.1362,0.0545 -0.1209,-0.005 -0.1455,-0.0296 -0.063,-0.0627 z m 41.9403,0 c 0.075,-0.03 0.1645,-0.0263 0.199,0.008 0.034,0.0345 -0.027,0.059 -0.1363,0.0545 -0.1209,-0.005 -0.1455,-0.0296 -0.063,-0.0627 z"
           id="path37606" />
        <path
           style="fill:#65caee;stroke-width:0.103813"
           d="m -2433.5548,924.97211 c -0.4358,-0.15915 -0.5221,-0.90813 -0.1224,-1.06153 0.085,-0.0327 1.7261,-0.0626 3.6464,-0.0663 2.7528,-0.005 3.5093,0.0216 3.5766,0.12776 0.1289,0.20322 0.1054,0.85489 -0.036,0.99626 -0.1586,0.15866 -6.6311,0.16218 -7.0646,0.004 z m 9.5324,-0.0424 c -0.09,-0.0897 -0.1631,-0.32065 -0.1631,-0.51318 0,-0.66422 0.052,-0.67325 3.841,-0.67325 3.8257,0 3.8411,0.003 3.8411,0.71181 0,0.21373 -0.056,0.44466 -0.1246,0.51318 -0.092,0.092 -1.0526,0.12458 -3.6779,0.12458 -3.0919,0 -3.5745,-0.0212 -3.7165,-0.16314 z m 9.7584,0 c -0.2267,-0.22672 -0.2038,-0.73049 0.044,-0.9788 0.1994,-0.19937 0.346,-0.20763 3.6853,-0.20763 3.4011,0 3.4826,0.005 3.6971,0.21931 0.1718,0.1718 0.2063,0.29931 0.1594,0.58853 -0.033,0.20306 -0.12,0.40731 -0.1934,0.45388 -0.073,0.0466 -1.7301,0.0854 -3.6816,0.0863 -3.0886,10e-4 -3.5693,-0.0195 -3.7113,-0.16155 z m 7.3953,-0.42689 c 0.052,-0.53249 -0.1505,-0.57804 -2.1403,-0.48242 -0.953,0.0458 -1.7912,0.0774 -1.8625,0.0703 -0.076,-0.008 -0.1298,0.10807 -0.1298,0.2806 0,0.31367 -0.058,0.29179 1.1938,0.44708 0.1713,0.0212 0.8954,0.0333 1.6091,0.0268 l 1.2977,-0.0119 z m 2.6745,0.42689 c -0.2084,-0.20846 -0.2091,-0.65924 0,-0.9557 l 0.1616,-0.23073 h 3.5596 c 3.3166,0 3.5713,0.013 3.7314,0.18985 0.094,0.10441 0.1711,0.25624 0.1702,0.33739 -8e-4,0.0811 -0.061,0.0308 -0.1328,-0.11199 l -0.1312,-0.25953 -3.5493,-0.0273 -3.5493,-0.0273 -0.1788,0.27285 c -0.1602,0.24462 -0.1629,0.30115 -0.026,0.54637 0.1416,0.25314 0.2185,0.27789 1.0319,0.33205 l 0.879,0.0585 -0.901,0.0194 c -0.6996,0.015 -0.9374,-0.0171 -1.0641,-0.1438 z m 7.2076,0.12234 c 0,-0.0224 0.073,-0.0686 0.1611,-0.10263 0.092,-0.0354 0.1341,-0.0181 0.098,0.0408 -0.061,0.0987 -0.2588,0.14591 -0.2588,0.0618 z m 2.5821,-0.14088 c -0.1291,-0.16465 -0.1255,-0.16832 0.039,-0.0392 0.1729,0.13562 0.2279,0.22087 0.1425,0.22087 -0.022,0 -0.1033,-0.0818 -0.1817,-0.18168 z m 27.3406,-0.0508 c 0.072,-0.15387 0.1482,-0.22999 0.1691,-0.16916 0.021,0.0608 -0.038,0.18674 -0.1311,0.27977 -0.1564,0.15633 -0.1593,0.14795 -0.038,-0.11061 z m 19.5589,0.12869 c 0.065,-0.0856 0.1415,-0.24915 0.1696,-0.36334 0.048,-0.19721 0.052,-0.19654 0.063,0.0132 0.01,0.12148 -0.07,0.28498 -0.1697,0.36335 -0.158,0.12391 -0.1662,0.12218 -0.063,-0.0132 z m -90.825,-0.0819 -0.9084,-0.03 v -0.3991 c 0,-0.47937 0.01,-0.4816 1.3822,-0.51603 1.1319,-0.0283 1.317,0.0453 1.317,0.52393 0,0.42712 -0.1984,0.47377 -1.7908,0.42119 z m 63.6632,-0.48294 c 0,-0.19647 0.036,-0.3794 0.08,-0.40652 0.044,-0.0271 0.062,0.13363 0.041,0.35722 -0.048,0.50198 -0.1207,0.53174 -0.1207,0.0493 z m 19.6287,0.19285 c 0.01,-0.12094 0.03,-0.14554 0.063,-0.0627 0.03,0.0749 0.026,0.16448 -0.01,0.19897 -0.035,0.0345 -0.059,-0.0268 -0.055,-0.13625 z m -31.7584,-0.14707 c 0,-0.14274 0.023,-0.20114 0.052,-0.12977 0.029,0.0714 0.029,0.18816 0,0.25954 -0.029,0.0714 -0.052,0.013 -0.052,-0.12977 z m 29.6904,0 c 0,-0.14274 0.024,-0.20114 0.052,-0.12977 0.029,0.0714 0.029,0.18816 0,0.25954 -0.029,0.0714 -0.052,0.013 -0.052,-0.12977 z m -37.4846,-0.0606 c 0.01,-0.12093 0.03,-0.14553 0.063,-0.0627 0.03,0.0749 0.026,0.16448 -0.01,0.19898 -0.035,0.0345 -0.059,-0.0268 -0.055,-0.13626 z m 39.5526,-0.20762 c 0.01,-0.12094 0.03,-0.14554 0.063,-0.0627 0.03,0.0749 0.026,0.16448 -0.01,0.19897 -0.035,0.0345 -0.059,-0.0268 -0.055,-0.13625 z m 7.6822,0 c 0.01,-0.12094 0.03,-0.14554 0.063,-0.0627 0.03,0.0749 0.026,0.16448 -0.01,0.19897 -0.035,0.0345 -0.059,-0.0268 -0.055,-0.13625 z m -37.3808,-0.0371 c 0,-0.0537 0.046,-0.12623 0.1026,-0.16111 0.059,-0.0364 0.076,0.005 0.041,0.0977 -0.069,0.17985 -0.1434,0.21276 -0.1434,0.0634 z m -9.7584,-0.10381 c 0,-0.0537 0.046,-0.12623 0.1026,-0.16112 0.059,-0.0364 0.076,0.005 0.041,0.0977 -0.069,0.17985 -0.1434,0.21275 -0.1434,0.0634 z m 7.5331,-0.0795 c -0.056,-0.14796 -0.044,-0.15988 0.058,-0.0581 0.071,0.0704 0.1029,0.15419 0.071,0.18615 -0.032,0.032 -0.09,-0.0257 -0.129,-0.12803 z m 29.5861,-0.0856 c -0.1109,-0.0838 -0.1516,-0.15242 -0.091,-0.15242 0.061,0 0.1691,0.0701 0.2402,0.15572 0.1616,0.19479 0.1108,0.19366 -0.1496,-0.003 z m -36.4157,-0.12475 c 0.2442,-0.0219 0.6179,-0.0216 0.8305,7.2e-4 0.2126,0.0223 0.013,0.0403 -0.4439,0.0399 -0.4568,-4.2e-4 -0.6308,-0.0186 -0.3866,-0.0406 z m 1.5544,0.007 c 0.071,-0.0288 0.1882,-0.0288 0.2596,0 0.071,0.0288 0.013,0.0524 -0.1298,0.0524 -0.1427,0 -0.2011,-0.0236 -0.1298,-0.0524 z"
           id="path37604" />
        <path
           style="fill:#d77687;stroke-width:0.103813"
           d="m -2432.3594,918.06289 c 0.1578,-0.0239 0.3914,-0.0232 0.5191,10e-4 0.1277,0.0246 0,0.0442 -0.2869,0.0434 -0.2855,-8.4e-4 -0.39,-0.0209 -0.2322,-0.0448 z m 17.2834,10e-4 c 0.1285,-0.0247 0.3387,-0.0247 0.4672,0 0.1285,0.0248 0.023,0.045 -0.2336,0.045 -0.2569,0 -0.362,-0.0202 -0.2336,-0.045 z m 18.2206,-10e-4 c 0.1578,-0.0239 0.3914,-0.0232 0.5191,10e-4 0.1277,0.0246 0,0.0442 -0.2869,0.0434 -0.2855,-8.4e-4 -0.39,-0.0209 -0.2322,-0.0448 z m 41.8882,10e-4 c 0.1292,-0.0248 0.316,-0.0239 0.4153,0.002 0.099,0.026 -0.01,0.0463 -0.2348,0.0452 -0.2284,-10e-4 -0.3096,-0.0224 -0.1805,-0.0472 z m -61.6595,-0.20512 c 0.075,-0.03 0.1645,-0.0263 0.199,0.008 0.035,0.0345 -0.027,0.059 -0.1362,0.0545 -0.121,-0.005 -0.1456,-0.0296 -0.063,-0.0627 z m 3.4259,0 c 0.075,-0.03 0.1644,-0.0263 0.1989,0.008 0.035,0.0345 -0.027,0.059 -0.1362,0.0545 -0.121,-0.005 -0.1456,-0.0296 -0.063,-0.0627 z m -40.8358,-3.92587 c 0,-2.11259 0.014,-2.9621 0.031,-1.8878 0.017,1.07431 0.017,2.80279 0,3.84107 -0.017,1.03829 -0.031,0.15932 -0.031,-1.95327 z m 46.5903,-5.88718 -0.025,-9.72825 -0.8564,-0.035 -0.8565,-0.035 0.8597,-0.0211 c 0.6085,-0.015 0.8742,0.0168 0.9092,0.10863 0.027,0.0714 0.037,4.47433 0.022,9.78435 l -0.027,9.65459 z m 29.9218,2.66898 c 0,-3.8826 0.013,-5.45584 0.029,-3.4961 0.016,1.95974 0.016,5.13641 0,7.05927 -0.016,1.92285 -0.029,0.31943 -0.029,-3.56317 z m 1.7618,3.89298 c 0,-1.74146 0.014,-2.45388 0.032,-1.58315 0.017,0.87073 0.017,2.29556 0,3.16629 -0.017,0.87073 -0.032,0.15832 -0.032,-1.58314 z m 8.7207,-0.31144 c 0,-1.91275 0.014,-2.69524 0.031,-1.73886 0.017,0.95637 0.017,2.52135 0,3.47772 -0.017,0.95638 -0.031,0.17389 -0.031,-1.73886 z m 1.7656,-0.67478 c 0,-2.28388 0.014,-3.20341 0.031,-2.04339 0.017,1.16002 0.017,3.02865 -1e-4,4.15251 -0.017,1.12386 -0.03,0.17476 -0.03,-2.10912 z m -86.9958,0.51906 c 10e-5,-1.9413 0.014,-2.72079 0.031,-1.73222 0.017,0.98858 0.017,2.57692 0,3.52964 -0.017,0.95272 -0.031,0.14388 -0.031,-1.79742 z m 24.557,2.50422 c 0,-0.0216 0.082,-0.10331 0.1817,-0.18167 0.1647,-0.12913 0.1683,-0.12546 0.039,0.0392 -0.1356,0.17293 -0.2209,0.22792 -0.2209,0.14248 z m 8.3956,-0.14248 c -0.1291,-0.16465 -0.1254,-0.16832 0.039,-0.0392 0.173,0.13561 0.2279,0.22086 0.1425,0.22086 -0.022,0 -0.1033,-0.0818 -0.1817,-0.18167 z m 4.0879,-0.0975 c 0.1,-0.0261 0.2634,-0.0261 0.3634,0 0.1,0.0261 0.018,0.0475 -0.1817,0.0475 -0.1998,0 -0.2816,-0.0214 -0.1817,-0.0475 z m 0.8824,0.003 c 0.071,-0.0288 0.1882,-0.0288 0.2596,0 0.071,0.0288 0.013,0.0524 -0.1298,0.0524 -0.1427,0 -0.2011,-0.0236 -0.1298,-0.0524 z m 16.9754,-0.003 c 0.101,-0.0263 0.2411,-0.0246 0.3114,0.004 0.07,0.0284 -0.012,0.05 -0.1836,0.0479 -0.1713,-0.002 -0.2288,-0.0254 -0.1278,-0.0517 z m 0.8804,0.003 c 0.071,-0.0288 0.1882,-0.0288 0.2596,0 0.071,0.0288 0.013,0.0524 -0.1298,0.0524 -0.1428,0 -0.2011,-0.0236 -0.1298,-0.0524 z m 4.9571,-0.34649 c 0.223,-0.22839 0.4288,-0.41525 0.4574,-0.41525 0.029,0 -0.1306,0.18686 -0.3536,0.41525 -0.223,0.22839 -0.4288,0.41525 -0.4574,0.41525 -0.029,0 0.1306,-0.18686 0.3536,-0.41525 z m 31.9145,0.12976 -0.2516,-0.28548 0.2855,0.25167 c 0.157,0.13842 0.2854,0.26689 0.2854,0.28549 0,0.0814 -0.084,0.0151 -0.3193,-0.25168 z m 4.4998,0.21355 c 0.101,-0.0263 0.2411,-0.0246 0.3114,0.004 0.07,0.0284 -0.012,0.05 -0.1836,0.0479 -0.1713,-0.002 -0.2288,-0.0254 -0.1278,-0.0517 z m 0.8305,0 c 0.101,-0.0263 0.2411,-0.0246 0.3114,0.004 0.07,0.0284 -0.012,0.05 -0.1836,0.0479 -0.1713,-0.002 -0.2288,-0.0254 -0.1278,-0.0517 z m 4.2284,-0.18759 c 0.1341,-0.14275 0.2671,-0.25954 0.2957,-0.25954 0.028,0 -0.058,0.11679 -0.1919,0.25954 -0.1341,0.14274 -0.2672,0.25953 -0.2957,0.25953 -0.029,0 0.058,-0.11679 0.1919,-0.25953 z m -87.2645,-0.18168 -0.1978,-0.23357 0.2336,0.19776 c 0.2195,0.18585 0.2809,0.26939 0.1978,0.26939 -0.02,0 -0.1248,-0.10511 -0.2336,-0.23358 z m 35.1372,-0.36334 c -0.1291,-0.16465 -0.1254,-0.16833 0.039,-0.0392 0.1,0.0784 0.1817,0.16012 0.1817,0.18168 0,0.0854 -0.085,0.0304 -0.2209,-0.14248 z m 42.0442,0 c -0.1291,-0.16465 -0.1255,-0.16833 0.039,-0.0392 0.1729,0.13562 0.2279,0.22087 0.1425,0.22087 -0.022,0 -0.1033,-0.0818 -0.1817,-0.18167 z m 10.7059,-0.0779 c 0.1341,-0.14274 0.2672,-0.25953 0.2958,-0.25953 0.028,0 -0.058,0.11679 -0.1919,0.25953 -0.1341,0.14274 -0.2672,0.25953 -0.2958,0.25953 -0.028,0 0.058,-0.11679 0.1919,-0.25953 z m -77.3404,0.11652 c 0,-0.0216 0.082,-0.10331 0.1816,-0.18167 0.1647,-0.12913 0.1684,-0.12546 0.039,0.0392 -0.1356,0.17292 -0.2208,0.22792 -0.2208,0.14247 z m 6.3193,-0.3501 c -0.1291,-0.16465 -0.1255,-0.16832 0.039,-0.0392 0.1729,0.13561 0.2279,0.22086 0.1425,0.22086 -0.022,0 -0.1033,-0.0817 -0.1817,-0.18167 z m -15.6155,-0.57097 -0.4103,-0.4412 0.4412,0.41036 c 0.4103,0.38164 0.4889,0.47205 0.4103,0.47205 -0.017,0 -0.2155,-0.19855 -0.4412,-0.44121 z m 35.5529,0.15572 -0.2517,-0.28548 0.2855,0.25167 c 0.2669,0.23523 0.3331,0.3193 0.2517,0.3193 -0.019,0 -0.1471,-0.12847 -0.2855,-0.28549 z m 7.3786,0.24629 c 0,-0.0216 0.082,-0.10331 0.1817,-0.18167 0.1646,-0.12913 0.1683,-0.12546 0.039,0.0392 -0.1357,0.17293 -0.2209,0.22792 -0.2209,0.14248 z m 34.6166,-0.40201 -0.4103,-0.4412 0.4412,0.41036 c 0.2426,0.2257 0.4412,0.42425 0.4412,0.44121 0,0.0785 -0.09,-5e-5 -0.4721,-0.41037 z m -69.7572,0.0259 c 0.1033,-0.11419 0.2112,-0.20762 0.2398,-0.20762 0.028,0 -0.033,0.0934 -0.136,0.20762 -0.1034,0.1142 -0.2113,0.20763 -0.2398,0.20763 -0.029,0 0.033,-0.0934 0.136,-0.20763 z m 77.6519,0 c 0.1033,-0.11419 0.2113,-0.20762 0.2398,-0.20762 0.029,0 -0.033,0.0934 -0.136,0.20762 -0.1033,0.1142 -0.2112,0.20763 -0.2398,0.20763 -0.028,0 0.033,-0.0934 0.136,-0.20763 z m -41.9923,-0.143 c 0,-0.0216 0.082,-0.10331 0.1817,-0.18168 0.1647,-0.12913 0.1683,-0.12545 0.039,0.0392 -0.1356,0.17293 -0.2209,0.22792 -0.2209,0.14248 z m 30.7368,-2.51287 c 0.01,-0.12094 0.03,-0.14554 0.063,-0.0627 0.03,0.0749 0.026,0.16448 -0.01,0.19897 -0.035,0.0345 -0.059,-0.0268 -0.055,-0.13625 z m -77.5399,-0.3547 c 0,-0.14274 0.024,-0.20113 0.052,-0.12976 0.029,0.0714 0.029,0.18816 0,0.25953 -0.029,0.0714 -0.052,0.013 -0.052,-0.12977 z m 17.4405,0 c 0,-0.14274 0.024,-0.20113 0.052,-0.12976 0.029,0.0714 0.029,0.18816 0,0.25953 -0.029,0.0714 -0.052,0.013 -0.052,-0.12977 z m 72.8684,0.0433 c 0.01,-0.12094 0.03,-0.14553 0.063,-0.0627 0.03,0.0749 0.026,0.16448 -0.01,0.19897 -0.034,0.0345 -0.059,-0.0268 -0.054,-0.13625 z m -54.805,-0.14707 c 0,-0.14274 0.024,-0.20114 0.052,-0.12976 0.029,0.0714 0.029,0.18816 0,0.25953 -0.029,0.0714 -0.052,0.013 -0.052,-0.12977 z m 19.0125,-0.31144 c 0,-0.31403 0.019,-0.4425 0.043,-0.28548 0.024,0.15702 0.024,0.41395 0,0.57097 -0.024,0.15702 -0.043,0.0285 -0.043,-0.28549 z m 24.7883,0.3547 c 0,-0.12094 0.03,-0.14554 0.063,-0.0627 0.03,0.0749 0.026,0.16448 -0.01,0.19897 -0.034,0.0345 -0.059,-0.0268 -0.054,-0.13625 z m -64.7671,-0.30279 c 0,-0.17129 0.025,-0.2288 0.052,-0.12779 0.026,0.10101 0.025,0.24115 0,0.31144 -0.029,0.0703 -0.05,-0.0124 -0.048,-0.18365 z m -12.781,-0.009 c 0,-0.12093 0.03,-0.14553 0.063,-0.0627 0.03,0.0749 0.026,0.16448 -0.01,0.19898 -0.034,0.0345 -0.059,-0.0268 -0.054,-0.13626 z m 17.4406,0 c 0,-0.12093 0.029,-0.14553 0.063,-0.0627 0.03,0.0749 0.026,0.16448 -0.01,0.19898 -0.034,0.0345 -0.059,-0.0268 -0.054,-0.13626 z m 11.1079,0 c 0.01,-0.12093 0.03,-0.14553 0.063,-0.0627 0.03,0.0749 0.026,0.16448 -0.01,0.19898 -0.034,0.0345 -0.059,-0.0268 -0.054,-0.13626 z m 47.1392,-0.0433 c 0,-0.14274 0.024,-0.20113 0.052,-0.12976 0.029,0.0714 0.029,0.18816 0,0.25953 -0.029,0.0714 -0.052,0.013 -0.052,-0.12977 z m -64.6585,-0.62287 c 0,-0.37113 0.019,-0.52296 0.042,-0.33739 0.023,0.18556 0.023,0.48921 0,0.67478 -0.023,0.18556 -0.042,0.0337 -0.042,-0.33739 z m 24.5085,0.31144 0.01,-0.25954 6.2995,-0.0267 c 6.2117,-0.0264 6.3002,-0.0297 6.3464,-0.23517 0.039,-0.17196 0.044,-0.16728 0.033,0.0267 l -0.014,0.23517 -6.2998,0.0268 -6.2998,0.0267 -0.043,0.23278 c -0.037,0.20106 -0.041,0.19742 -0.033,-0.0267 z m 41.9281,-0.36335 c 0,-0.28548 0.021,-0.38995 0.045,-0.23215 0.024,0.1578 0.023,0.39138 0,0.51906 -0.025,0.12769 -0.044,-0.001 -0.043,-0.28691 z m 11.2062,0.0519 c 0,-0.19984 0.021,-0.28159 0.048,-0.18168 0.026,0.0999 0.026,0.26343 0,0.36335 -0.026,0.0999 -0.048,0.0182 -0.048,-0.18167 z m -112.8522,-0.72669 c 0,-0.14274 0.024,-0.20114 0.052,-0.12977 0.029,0.0714 0.029,0.18816 0,0.25953 -0.029,0.0714 -0.052,0.013 -0.052,-0.12976 z m 24.1884,0 c 0,-0.14274 0.024,-0.20114 0.052,-0.12977 0.029,0.0714 0.029,0.18816 0,0.25953 -0.029,0.0714 -0.052,0.013 -0.052,-0.12976 z m 12.7728,-0.0519 c 0,-0.17129 0.025,-0.2288 0.052,-0.12779 0.026,0.10101 0.025,0.24116 0,0.31144 -0.029,0.0703 -0.05,-0.0124 -0.048,-0.18365 z m 15.7675,0.0952 c 0.01,-0.12093 0.03,-0.14553 0.063,-0.0627 0.03,0.0749 0.026,0.16448 -0.01,0.19898 -0.034,0.0345 -0.059,-0.0268 -0.054,-0.13626 z m -11.1079,-0.10381 c 0,-0.12094 0.029,-0.14553 0.063,-0.0627 0.03,0.0749 0.026,0.16448 -0.01,0.19898 -0.034,0.0345 -0.059,-0.0268 -0.054,-0.13626 z m 44.5438,-0.0433 c 0,-0.14275 0.024,-0.20114 0.052,-0.12977 0.029,0.0714 0.029,0.18816 0,0.25953 -0.029,0.0714 -0.052,0.013 -0.052,-0.12976 z m 13.6951,0.0433 c 0.01,-0.12094 0.03,-0.14553 0.063,-0.0627 0.03,0.0749 0.026,0.16448 -0.01,0.19898 -0.035,0.0345 -0.059,-0.0268 -0.055,-0.13626 z m -41.9322,-0.25088 c 0,-0.14274 0.024,-0.20114 0.052,-0.12977 0.029,0.0714 0.029,0.18816 0,0.25954 -0.029,0.0714 -0.052,0.013 -0.052,-0.12977 z m -48.2811,-0.0606 c 0.01,-0.12093 0.03,-0.14553 0.063,-0.0627 0.03,0.0749 0.026,0.16448 -0.01,0.19898 -0.035,0.0345 -0.059,-0.0268 -0.055,-0.13626 z m 12.7772,-0.0432 c 0,-0.14275 0.024,-0.20114 0.052,-0.12977 0.029,0.0714 0.029,0.18816 0,0.25953 -0.029,0.0714 -0.052,0.013 -0.052,-0.12976 z m 90.3089,0.0432 c 0.01,-0.12093 0.03,-0.14553 0.063,-0.0627 0.03,0.0749 0.026,0.16448 -0.01,0.19898 -0.034,0.0345 -0.059,-0.0268 -0.054,-0.13626 z m -72.8684,-0.14707 c 0,-0.14274 0.024,-0.20113 0.052,-0.12976 0.029,0.0714 0.029,0.18816 0,0.25953 -0.029,0.0714 -0.052,0.013 -0.052,-0.12977 z m 37.1568,-0.0606 c 0.01,-0.12094 0.03,-0.14554 0.063,-0.0627 0.03,0.0749 0.026,0.16448 -0.01,0.19897 -0.035,0.0345 -0.059,-0.0268 -0.055,-0.13625 z m -59.6708,-0.51042 c 8e-4,-0.28548 0.021,-0.38995 0.045,-0.23215 0.024,0.1578 0.023,0.39138 0,0.51907 -0.025,0.12768 -0.044,-0.001 -0.043,-0.28692 z m 82.6134,0.19898 c 0.01,-0.12094 0.03,-0.14554 0.063,-0.0627 0.03,0.0749 0.026,0.16448 -0.01,0.19897 -0.035,0.0345 -0.059,-0.0268 -0.055,-0.13625 z m -27.8218,-0.20763 c 0.01,-0.12093 0.03,-0.14553 0.063,-0.0627 0.03,0.0749 0.026,0.16448 -0.01,0.19898 -0.034,0.0345 -0.059,-0.0268 -0.054,-0.13626 z m 4.983,-0.31143 c 0.01,-0.12094 0.03,-0.14554 0.063,-0.0627 0.03,0.0749 0.026,0.16448 -0.01,0.19898 -0.035,0.0345 -0.059,-0.0268 -0.055,-0.13625 z m -58.0154,-0.25089 c 0,-0.19984 0.021,-0.28159 0.048,-0.18167 0.026,0.0999 0.026,0.26343 0,0.36335 -0.026,0.0999 -0.048,0.0182 -0.048,-0.18168 z m 75.5718,0.0519 c 0,-0.17129 0.025,-0.2288 0.052,-0.12779 0.026,0.10101 0.025,0.24115 0,0.31144 -0.028,0.0703 -0.05,-0.0124 -0.048,-0.18365 z m -87.0071,-0.009 c 0.01,-0.12093 0.03,-0.14553 0.063,-0.0627 0.03,0.0749 0.026,0.16448 -0.01,0.19898 -0.035,0.0345 -0.059,-0.0268 -0.055,-0.13626 z m 88.7599,-0.10381 c 0.01,-0.12094 0.03,-0.14554 0.063,-0.0627 0.03,0.0749 0.026,0.16448 -0.01,0.19897 -0.035,0.0345 -0.059,-0.0268 -0.055,-0.13625 z m -0.1038,-0.72669 c 0.01,-0.12094 0.03,-0.14553 0.063,-0.0627 0.03,0.0749 0.026,0.16448 -0.01,0.19898 -0.034,0.0345 -0.059,-0.0268 -0.054,-0.13626 z m -53.5756,-0.39389 c 0,-0.0216 0.082,-0.10331 0.1817,-0.18167 0.1646,-0.12913 0.1683,-0.12546 0.039,0.0392 -0.1357,0.17293 -0.2209,0.22792 -0.2209,0.14248 z m -16.9258,-0.50582 c 0.2545,-0.27121 0.4764,-0.49311 0.4931,-0.49311 0.078,0 0,0.0932 -0.4628,0.5234 l -0.4931,0.46282 z m 85.2816,-0.10382 -0.4104,-0.4412 0.4412,0.41037 c 0.2427,0.2257 0.4412,0.42424 0.4412,0.4412 0,0.0785 -0.09,-5e-5 -0.472,-0.41037 z m -8.0406,0.30491 c 0,-0.0179 0.1518,-0.16969 0.3374,-0.33739 l 0.3374,-0.30491 -0.3049,0.33739 c -0.2842,0.3145 -0.3699,0.38511 -0.3699,0.30491 z m -15.3643,-0.53848 c 0.1937,-0.19984 0.3755,-0.36335 0.4041,-0.36335 0.028,0 -0.1066,0.16351 -0.3003,0.36335 -0.1937,0.19984 -0.3755,0.36334 -0.404,0.36334 -0.029,0 0.1065,-0.1635 0.3002,-0.36334 z m -76.6657,-0.0519 c 0.1033,-0.11419 0.2113,-0.20763 0.2398,-0.20763 0.029,0 -0.033,0.0934 -0.136,0.20763 -0.1033,0.11419 -0.2112,0.20762 -0.2398,0.20762 -0.028,0 0.033,-0.0934 0.136,-0.20762 z m 50.6087,-0.0392 c 0,-0.0216 0.082,-0.10331 0.1817,-0.18167 0.1646,-0.12913 0.1683,-0.12546 0.039,0.0392 -0.1356,0.17292 -0.2209,0.22792 -0.2209,0.14247 z m -9.0836,-0.16843 c 0.035,-0.0571 0.085,-0.10381 0.1099,-0.10381 0.025,0 0.046,0.0467 0.046,0.10381 0,0.0571 -0.05,0.10382 -0.1099,0.10382 -0.061,0 -0.081,-0.0467 -0.046,-0.10382 z m 18.2059,-0.0779 c -0.1291,-0.16465 -0.1255,-0.16832 0.039,-0.0392 0.1,0.0784 0.1817,0.16011 0.1817,0.18167 0,0.0854 -0.085,0.0305 -0.2209,-0.14248 z m 7.5916,-0.0779 c 0.1341,-0.14274 0.2671,-0.25953 0.2957,-0.25953 0.028,0 -0.058,0.11679 -0.1919,0.25953 -0.1341,0.14275 -0.2672,0.25954 -0.2957,0.25954 -0.029,0 0.058,-0.11679 0.1919,-0.25954 z m 15.202,-0.0779 -0.3049,-0.33739 0.3374,0.30491 c 0.1856,0.1677 0.3374,0.31953 0.3374,0.33739 0,0.0802 -0.086,0.01 -0.3699,-0.30491 z m 18.9391,0.15572 c -0.1291,-0.16465 -0.1254,-0.16832 0.039,-0.0392 0.1,0.0784 0.1817,0.16011 0.1817,0.18167 0,0.0854 -0.085,0.0305 -0.2209,-0.14248 z m -105.7852,-0.10381 c -0.1291,-0.16465 -0.1254,-0.16832 0.039,-0.0392 0.1,0.0784 0.1817,0.16011 0.1817,0.18167 0,0.0854 -0.085,0.0304 -0.2209,-0.14248 z m 9.6546,0 c -0.1291,-0.16465 -0.1254,-0.16832 0.039,-0.0392 0.1,0.0784 0.1817,0.16011 0.1817,0.18167 0,0.0854 -0.085,0.0304 -0.2209,-0.14248 z m 18.8939,0 c -0.1291,-0.16465 -0.1254,-0.16832 0.039,-0.0392 0.173,0.13561 0.228,0.22086 0.1425,0.22086 -0.022,0 -0.1033,-0.0817 -0.1817,-0.18167 z m 50.8173,-1.01217 c 2e-4,-0.68517 0.017,-0.95195 0.037,-0.59286 0.02,0.3591 0.02,0.91968 -4e-4,1.24576 -0.021,0.32606 -0.037,0.0323 -0.037,-0.6529 z m 15.5323,0.93431 c 0.1341,-0.14274 0.2672,-0.25953 0.2957,-0.25953 0.029,0 -0.058,0.11679 -0.1919,0.25953 -0.1341,0.14274 -0.2671,0.25953 -0.2957,0.25953 -0.028,0 0.058,-0.11679 0.1919,-0.25953 z m -91.8743,0.0127 c 0,-0.0216 0.082,-0.10331 0.1817,-0.18167 0.1647,-0.12913 0.1683,-0.12546 0.039,0.0392 -0.1356,0.17292 -0.2209,0.22791 -0.2209,0.14247 z m 42.4462,-0.14247 c -0.1291,-0.16466 -0.1254,-0.16833 0.039,-0.0392 0.1729,0.13562 0.2279,0.22087 0.1425,0.22087 -0.022,0 -0.1033,-0.0818 -0.1817,-0.18167 z m 7.5397,-0.026 c 0.1033,-0.11419 0.2112,-0.20762 0.2398,-0.20762 0.028,0 -0.033,0.0934 -0.136,0.20762 -0.1034,0.1142 -0.2113,0.20763 -0.2398,0.20763 -0.029,0 0.033,-0.0934 0.136,-0.20763 z m 26.7837,0 c 0.1033,-0.11419 0.2112,-0.20762 0.2398,-0.20762 0.028,0 -0.033,0.0934 -0.136,0.20762 -0.1034,0.1142 -0.2113,0.20763 -0.2398,0.20763 -0.029,0 0.033,-0.0934 0.136,-0.20763 z m -86.3203,0.0646 c 0,-0.0216 0.082,-0.10331 0.1816,-0.18167 0.1647,-0.12913 0.1684,-0.12546 0.039,0.0392 -0.1356,0.17293 -0.2208,0.22792 -0.2208,0.14248 z m 41.7846,-0.37606 c 0.1033,-0.11419 0.2113,-0.20762 0.2398,-0.20762 0.029,0 -0.033,0.0934 -0.136,0.20762 -0.1033,0.1142 -0.2112,0.20763 -0.2398,0.20763 -0.028,0 0.033,-0.0934 0.136,-0.20763 z m 28.2272,-0.0259 -0.1978,-0.23358 0.2336,0.19776 c 0.1285,0.10877 0.2336,0.21388 0.2336,0.23358 0,0.0831 -0.083,0.0217 -0.2694,-0.19776 z m 41.579,-0.15572 -0.2517,-0.28548 0.2855,0.25167 c 0.157,0.13842 0.2855,0.26689 0.2855,0.28549 0,0.0814 -0.084,0.0151 -0.3193,-0.25168 z m -101.3134,-0.18167 c 0.1937,-0.19984 0.3756,-0.36334 0.4041,-0.36334 0.029,0 -0.1066,0.1635 -0.3003,0.36334 -0.1936,0.19984 -0.3755,0.36334 -0.404,0.36334 -0.029,0 0.1065,-0.1635 0.3002,-0.36334 z m 105.9502,0.27453 c -0.03,-0.0489 0.05,-0.0688 0.1779,-0.0443 0.1368,0.0262 0.3494,-0.0473 0.5159,-0.17825 0.388,-0.30518 0.3925,-0.83332 0.01,-1.13445 -0.3623,-0.285 -0.614,-0.27137 -0.936,0.0507 -0.3223,0.32235 -0.4307,0.27505 -0.1537,-0.0671 0.2805,-0.34633 0.9913,-0.34812 1.2706,-0.003 0.3,0.37058 0.2623,0.9834 -0.077,1.25031 -0.2789,0.21939 -0.7082,0.28658 -0.8073,0.12635 z m -14.024,-0.22262 c 0.1034,-0.1142 0.2113,-0.20763 0.2398,-0.20763 0.029,0 -0.033,0.0934 -0.136,0.20763 -0.1033,0.11419 -0.2112,0.20762 -0.2398,0.20762 -0.028,0 0.033,-0.0934 0.136,-0.20762 z m -97.2401,0.0329 c 0.075,-0.03 0.1645,-0.0263 0.199,0.008 0.035,0.0345 -0.027,0.059 -0.1363,0.0545 -0.1209,-0.005 -0.1455,-0.0296 -0.063,-0.0627 z m 8.0974,0 c 0.075,-0.03 0.1645,-0.0263 0.199,0.008 0.035,0.0345 -0.027,0.059 -0.1363,0.0545 -0.1209,-0.005 -0.1455,-0.0296 -0.063,-0.0627 z m 15.5719,0 c 0.075,-0.03 0.1645,-0.0263 0.199,0.008 0.035,0.0345 -0.027,0.059 -0.1363,0.0545 -0.1209,-0.005 -0.1455,-0.0296 -0.063,-0.0627 z m 1.5507,0.002 c 0.071,-0.0288 0.1882,-0.0288 0.2596,0 0.071,0.0288 0.013,0.0524 -0.1298,0.0524 -0.1427,0 -0.2011,-0.0236 -0.1298,-0.0524 z m 15.7861,-0.002 c 0.075,-0.03 0.1644,-0.0263 0.1989,0.008 0.034,0.0345 -0.027,0.059 -0.1362,0.0545 -0.121,-0.005 -0.1456,-0.0296 -0.063,-0.0627 z m 1.9724,0 c 0.075,-0.03 0.1645,-0.0263 0.199,0.008 0.035,0.0345 -0.027,0.059 -0.1363,0.0545 -0.1209,-0.005 -0.1455,-0.0296 -0.063,-0.0627 z m 15.8833,0 c 0.075,-0.03 0.1645,-0.0263 0.199,0.008 0.035,0.0345 -0.027,0.059 -0.1362,0.0545 -0.121,-0.005 -0.1456,-0.0296 -0.063,-0.0627 z m 2.0763,0 c 0.075,-0.03 0.1645,-0.0263 0.199,0.008 0.034,0.0345 -0.027,0.059 -0.1363,0.0545 -0.1209,-0.005 -0.1455,-0.0296 -0.063,-0.0627 z m 40.1755,0 c 0.075,-0.03 0.1645,-0.0263 0.199,0.008 0.035,0.0345 -0.027,0.059 -0.1362,0.0545 -0.121,-0.005 -0.1456,-0.0296 -0.063,-0.0627 z m 1.9725,0 c 0.075,-0.03 0.1645,-0.0263 0.199,0.008 0.034,0.0345 -0.027,0.059 -0.1363,0.0545 -0.1209,-0.005 -0.1455,-0.0296 -0.063,-0.0627 z m 7.7535,-0.0329 c -0.035,-0.0571 -0.017,-0.10382 0.04,-0.10382 0.057,0 0.1327,0.0467 0.168,0.10382 0.035,0.0571 0.017,0.10381 -0.04,0.10381 -0.057,0 -0.1327,-0.0467 -0.168,-0.10381 z m -55.5917,-0.0392 c 0,-0.0216 0.082,-0.10331 0.1816,-0.18167 0.1647,-0.12913 0.1684,-0.12546 0.039,0.0392 -0.1356,0.17293 -0.2208,0.22792 -0.2208,0.14248 z m 4.6521,-0.0317 c 0.075,-0.03 0.1645,-0.0263 0.1989,0.008 0.034,0.0345 -0.027,0.059 -0.1362,0.0545 -0.1209,-0.005 -0.1455,-0.0296 -0.063,-0.0627 z m 25.2265,0 c 0.075,-0.03 0.1644,-0.0263 0.1989,0.008 0.035,0.0345 -0.027,0.059 -0.1362,0.0545 -0.1209,-0.005 -0.1455,-0.0296 -0.063,-0.0627 z m 4.6326,-0.26648 -0.3049,-0.33739 0.3374,0.30491 c 0.1855,0.1677 0.3373,0.31953 0.3373,0.33739 0,0.0802 -0.086,0.01 -0.3698,-0.30491 z m -43.66,0.0519 c -0.1291,-0.16465 -0.1255,-0.16832 0.039,-0.0392 0.1729,0.13561 0.2279,0.22086 0.1425,0.22086 -0.022,0 -0.1033,-0.0817 -0.1817,-0.18167 z m 26.5893,-0.18167 c 0.1937,-0.19984 0.3755,-0.36335 0.4041,-0.36335 0.028,0 -0.1066,0.16351 -0.3003,0.36335 -0.1937,0.19984 -0.3755,0.36334 -0.4041,0.36334 -0.028,0 0.1066,-0.1635 0.3003,-0.36334 z m 9.447,0.32415 c 0,-0.0216 0.082,-0.10331 0.1816,-0.18167 0.1647,-0.12913 0.1684,-0.12546 0.039,0.0392 -0.1356,0.17293 -0.2208,0.22792 -0.2208,0.14248 z m -69.6662,-0.3501 -0.2517,-0.28549 0.2855,0.25167 c 0.2668,0.23523 0.3331,0.3193 0.2516,0.3193 -0.019,0 -0.147,-0.12847 -0.2854,-0.28548 z m -16.187,-0.0652 c 0,-0.0216 0.082,-0.10331 0.1817,-0.18168 0.1647,-0.12912 0.1683,-0.12545 0.039,0.0392 -0.1356,0.17293 -0.2209,0.22792 -0.2209,0.14248 z m 29.671,-1.06985 c 0.075,-0.03 0.1645,-0.0263 0.199,0.008 0.035,0.0345 -0.027,0.059 -0.1363,0.0545 -0.1209,-0.005 -0.1455,-0.0296 -0.063,-0.0627 z m 32.4934,0 c 0.075,-0.03 0.1645,-0.0263 0.199,0.008 0.034,0.0345 -0.027,0.059 -0.1363,0.0545 -0.1209,-0.005 -0.1455,-0.0296 -0.063,-0.0627 z m 2.9068,0 c 0.075,-0.03 0.1644,-0.0263 0.1989,0.008 0.034,0.0345 -0.027,0.059 -0.1362,0.0545 -0.121,-0.005 -0.1456,-0.0296 -0.063,-0.0627 z m 39.1374,0 c 0.075,-0.03 0.1644,-0.0263 0.1989,0.008 0.034,0.0345 -0.027,0.059 -0.1362,0.0545 -0.121,-0.005 -0.1456,-0.0296 -0.063,-0.0627 z m 2.8029,0 c 0.075,-0.03 0.1645,-0.0263 0.199,0.008 0.034,0.0345 -0.027,0.059 -0.1363,0.0545 -0.1209,-0.005 -0.1455,-0.0296 -0.063,-0.0627 z m -104.0292,-0.10782 c 0.1843,-0.0229 0.5113,-0.0233 0.7267,-8.3e-4 0.2154,0.0225 0.065,0.0412 -0.3351,0.0417 -0.3996,4.2e-4 -0.5759,-0.0179 -0.3916,-0.0409 z m 9.605,-7.3e-4 c 0.2141,-0.0224 0.5645,-0.0224 0.7786,0 0.2141,0.0224 0.039,0.0407 -0.3893,0.0407 -0.4282,0 -0.6034,-0.0183 -0.3893,-0.0407 z m 15.2636,-8.3e-4 c 0.273,-0.0215 0.6934,-0.0212 0.9343,6.2e-4 0.241,0.0218 0.018,0.0393 -0.4962,0.039 -0.5139,-3.1e-4 -0.711,-0.0181 -0.4381,-0.0396 z m 17.3368,0 c 0.2729,-0.0215 0.6933,-0.0212 0.9343,6.2e-4 0.2409,0.0218 0.018,0.0393 -0.4963,0.039 -0.5138,-3.1e-4 -0.711,-0.0181 -0.438,-0.0396 z m 17.8019,0.003 c 0.1292,-0.0248 0.316,-0.0239 0.4153,0.002 0.099,0.026 -0.01,0.0463 -0.2348,0.0452 -0.2284,-0.001 -0.3096,-0.0224 -0.1805,-0.0472 z m 0.9331,2.1e-4 c 0.1285,-0.0247 0.3387,-0.0247 0.4672,0 0.1284,0.0247 0.023,0.045 -0.2336,0.045 -0.2569,0 -0.362,-0.0202 -0.2336,-0.045 z m 14.8972,-10e-4 c 0.157,-0.0238 0.4139,-0.0238 0.5709,0 0.157,0.0238 0.029,0.0432 -0.2855,0.0432 -0.314,0 -0.4425,-0.0195 -0.2854,-0.0432 z m 10.7473,-0.002 c 0.2442,-0.0219 0.6179,-0.0216 0.8305,7.3e-4 0.2126,0.0223 0.013,0.0403 -0.4439,0.0399 -0.4568,-4.1e-4 -0.6308,-0.0186 -0.3866,-0.0406 z m 15.673,1.1e-4 c 0.2427,-0.0219 0.6397,-0.0219 0.8824,0 0.2427,0.0218 0.044,0.0397 -0.4412,0.0397 -0.4853,0 -0.6839,-0.0179 -0.4412,-0.0397 z"
           id="path37602" />
        <path
           style="fill:#0db2e6;stroke-width:0.103813"
           d="m -2403.1081,924.99249 c -0.815,-0.0514 -0.89,-0.0753 -1.0319,-0.3289 -0.1371,-0.24509 -0.1345,-0.30173 0.025,-0.54501 l 0.1778,-0.2715 h 3.5146 c 3.8712,0 3.7822,-0.0151 3.7822,0.64311 0,0.58834 -0.1155,0.61085 -2.991,0.58292 -1.4287,-0.0139 -2.9932,-0.0502 -3.4766,-0.0806 z m 8.7848,-0.0895 c -0.2046,-0.22615 -0.223,-0.6347 -0.04,-0.88523 0.1191,-0.16292 0.4705,-0.18653 3.6178,-0.24311 3.4694,-0.0624 3.4869,-0.0616 3.7091,0.16061 0.2632,0.26317 0.2933,0.76128 0.06,0.99444 -0.1418,0.14187 -0.6203,0.16314 -3.6692,0.16314 -3.2649,0 -3.518,-0.0131 -3.678,-0.18985 z m 9.7333,-0.0689 c -0.1001,-0.15269 -0.144,-0.35484 -0.1071,-0.49311 0.1517,-0.56966 -0.017,-0.54577 3.8444,-0.54577 2.7257,0 3.6111,0.031 3.7099,0.12976 0.1709,0.1709 0.1662,0.79312 -0.01,1.00248 -0.1207,0.14547 -0.5672,0.16542 -3.7037,0.16542 h -3.5665 z m 10.1515,0.1342 c -0.1479,-0.14792 -0.1626,-0.79639 -0.023,-1.01736 0.084,-0.13242 0.6234,-0.16018 3.6068,-0.18552 3.9199,-0.0333 3.9115,-0.0347 3.9115,0.63081 0,0.71882 0.1217,0.69665 -3.8226,0.69665 -2.6212,0 -3.5806,-0.0326 -3.6727,-0.12458 z m 9.797,-0.0386 c -0.09,-0.0897 -0.1631,-0.32065 -0.1631,-0.51318 0,-0.66422 0.052,-0.67325 3.841,-0.67325 3.8406,0 3.8411,1e-4 3.8411,0.72892 0,0.29487 -0.055,0.43508 -0.2008,0.51318 -0.127,0.0679 -1.4796,0.10747 -3.6779,0.10747 -3.0226,0 -3.4985,-0.0213 -3.6403,-0.16314 z m 9.8052,0.0102 c -0.1604,-0.19327 -0.1654,-0.86742 -0.01,-1.02537 0.084,-0.084 1.1558,-0.12821 3.6188,-0.14918 3.9127,-0.0333 3.8818,-0.0384 3.8818,0.63573 0,0.71668 0.1374,0.69173 -3.8099,0.69173 -3.0053,0 -3.5758,-0.0237 -3.683,-0.15291 z m -54.9712,-0.12153 c -1.2522,-0.15529 -1.1938,-0.13341 -1.1938,-0.44708 0,-0.17253 0.053,-0.28821 0.1298,-0.2806 0.071,0.007 0.9095,-0.0245 1.8625,-0.0703 1.9898,-0.0956 2.1919,-0.0501 2.1403,0.48242 l -0.032,0.33049 -1.2977,0.0119 c -0.7137,0.007 -1.4378,-0.006 -1.6091,-0.0268 z"
           id="path37600" />
        <path
           style="fill:#df1836;stroke-width:0.103813"
           d="m -2433.553,917.82432 c -1.3341,-0.21138 -2.7025,-0.96099 -3.7169,-2.0362 -1.4658,-1.55358 -2.0084,-2.9241 -2.0084,-5.07335 0,-1.47404 0.1719,-2.21529 0.7893,-3.40409 0.7999,-1.5401 2.2527,-2.81996 3.9244,-3.45716 0.7308,-0.2786 0.8708,-0.29613 2.3855,-0.29889 1.7901,-0.003 2.1501,0.0755 3.4777,0.76138 1.3935,0.71987 2.8394,2.44668 3.3598,4.01264 0.9076,2.73098 0.2147,5.58853 -1.8526,7.63994 -0.8484,0.84186 -1.8095,1.40634 -2.9087,1.70821 -0.7002,0.19233 -2.6431,0.2754 -3.4501,0.14752 z m 3.491,-1.68204 c 1.6721,-0.70416 2.7141,-1.86225 3.342,-3.7146 0.2962,-0.87379 0.255,-2.61513 -0.085,-3.59286 -0.6513,-1.87257 -2.301,-3.3797 -4.1387,-3.78085 -0.8378,-0.18286 -2.389,-0.0841 -3.1197,0.19855 -1.6817,0.65062 -3.1009,2.25608 -3.5569,4.02386 -0.2071,0.80273 -0.2115,2.12836 -0.01,2.91266 0.6167,2.3959 2.5163,4.07748 4.8281,4.27396 1.0052,0.0854 2.0721,-0.0394 2.74,-0.32072 z m 14.1296,1.72215 c -1.2832,-0.19941 -2.573,-0.83901 -3.5891,-1.77983 -1.0632,-0.98435 -1.7056,-2.00887 -2.1301,-3.39739 -0.296,-0.96816 -0.2712,-3.18278 0.047,-4.15251 0.397,-1.21159 0.8967,-1.99401 1.9246,-3.01359 1.4782,-1.46614 2.8123,-2.01673 4.8941,-2.01979 1.9317,-0.003 3.3241,0.5631 4.6517,1.89074 0.484,0.484 0.8775,0.79713 0.9613,0.76498 0.1158,-0.0444 0.1469,-0.76681 0.1691,-3.92522 l 0.027,-3.87077 h 0.6748 0.6748 l 0.026,9.57462 0.026,9.57461 -0.2341,0.058 c -0.1288,0.0319 -0.3509,0.0363 -0.4937,0.01 -0.1427,-0.0265 -0.3646,-0.0517 -0.4931,-0.0559 -0.2262,-0.007 -0.2336,-0.0406 -0.2336,-1.0491 0,-1.35634 -0.076,-1.38841 -1.0656,-0.44957 -0.7921,0.75144 -1.8065,1.35162 -2.7754,1.64216 -0.5647,0.16931 -2.4603,0.29232 -3.0625,0.19873 z m 2.3946,-1.39755 c 0.7928,-0.14585 1.9253,-0.67356 2.6018,-1.21243 1.9842,-1.58031 2.5965,-4.76621 1.3914,-7.23881 -0.6329,-1.29858 -1.9831,-2.45146 -3.3608,-2.86967 -0.925,-0.2808 -2.4445,-0.30794 -3.2627,-0.0583 -1.9518,0.5956 -3.5051,2.21131 -4.0177,4.17912 -0.5079,1.94982 0.1223,4.16972 1.6051,5.65421 1.3455,1.34702 3.1375,1.89635 5.0429,1.54585 z m 15.206,1.3114 c -2.0035,-0.38155 -3.6844,-1.7203 -4.6542,-3.70697 -0.6644,-1.36109 -0.7898,-1.91895 -0.7778,-3.46035 0.01,-0.97237 0.06,-1.40523 0.2374,-1.97244 0.8024,-2.56042 2.6797,-4.43561 4.9826,-4.97702 1.0064,-0.23661 2.7816,-0.21139 3.7956,0.0539 2.8028,0.73338 4.7856,3.15656 5.0872,6.21702 l 0.072,0.73042 h -6.2444 -6.2444 l -0.1165,0.25583 c -0.2249,0.49359 0.327,2.42367 0.9481,3.31558 1.561,2.24173 4.3631,2.95026 7.0203,1.77512 0.8986,-0.39737 1.5837,-0.96686 2.2224,-1.84734 0.3141,-0.43287 0.637,-0.78996 0.7176,-0.79354 0.2444,-0.0109 1.0472,0.51035 1.0472,0.67989 0,0.17241 -0.4554,0.87672 -1.0109,1.56343 -0.6823,0.84345 -1.9026,1.6312 -3.1071,2.00588 -0.9318,0.28983 -2.8825,0.36863 -3.975,0.16057 z m 6.8907,-8.82833 c -0.013,-0.62945 -0.6125,-1.77192 -1.2844,-2.44738 -0.9287,-0.93358 -2.6656,-1.64961 -4.0016,-1.64961 -1.3299,0 -2.8677,0.63219 -3.7962,1.56064 -0.8672,0.86727 -1.6898,2.62163 -1.3761,2.93525 0.038,0.0386 2.4094,0.058 5.2685,0.0433 l 5.1983,-0.0269 -0.01,-0.41526 z m 35.4086,8.88254 c -2.5828,-0.42593 -4.8032,-2.50547 -5.5469,-5.1951 -0.2701,-0.97706 -0.2953,-2.82352 -0.051,-3.77626 0.4914,-1.9196 1.9852,-3.78515 3.7297,-4.65775 1.1255,-0.56297 1.5588,-0.65184 3.1663,-0.64945 1.3069,0.002 1.5942,0.0339 2.1801,0.2427 0.9776,0.34841 1.7183,0.8341 2.5434,1.66771 0.3997,0.40383 0.7801,0.73431 0.8453,0.73441 0.1953,3.1e-4 0.2447,-0.27516 0.2447,-1.36263 v -1.03438 l 0.7007,0.0307 0.7008,0.0307 0.027,6.81644 0.027,6.81644 -0.3901,0.0557 c -0.2145,0.0306 -0.5068,0.0387 -0.6495,0.0179 -0.1428,-0.0208 -0.2946,-0.0417 -0.3374,-0.0464 -0.043,-0.005 -0.078,-0.42528 -0.078,-0.93448 0,-0.96019 -0.054,-1.25424 -0.2288,-1.25424 -0.057,0 -0.4135,0.285 -0.7934,0.63334 -0.8245,0.75598 -1.7944,1.34709 -2.7106,1.65187 -0.7493,0.24927 -2.4918,0.35904 -3.3784,0.21284 z m 3.403,-1.60204 c 1.7624,-0.66648 2.9495,-1.89966 3.5109,-3.64705 0.1822,-0.56713 0.2329,-0.96602 0.2309,-1.81672 0,-1.85451 -0.5465,-3.12549 -1.8662,-4.37403 -1.0722,-1.01442 -2.2408,-1.47063 -3.7696,-1.47163 -2.7453,-0.002 -4.9112,1.7137 -5.6092,4.44283 -0.2464,0.96317 -0.2578,1.51196 -0.052,2.49286 0.4601,2.19137 2.187,4.03763 4.2709,4.56602 0.9124,0.23135 2.3932,0.14466 3.2841,-0.19228 z m -110.7901,1.30374 c -0.077,-0.0258 -0.111,-2.11607 -0.111,-6.87998 v -6.84299 h 0.7267 0.7267 v 0.96638 c 0,0.65468 0.046,1.02916 0.1423,1.161 0.133,0.1818 0.1946,0.13954 0.9355,-0.64108 1.2871,-1.35624 2.4586,-1.8508 4.2166,-1.78019 0.9155,0.0368 1.0831,0.0769 1.7984,0.43042 0.9149,0.45215 1.4024,0.95462 1.9389,1.99856 0.1999,0.38881 0.4142,0.72287 0.4764,0.74237 0.062,0.0195 0.2921,-0.23455 0.511,-0.56455 0.6357,-0.95826 1.4025,-1.63438 2.4157,-2.12981 l 0.9052,-0.44263 h 1.2995 c 1.26,0 1.3206,0.0104 1.995,0.34226 1.236,0.60819 1.9553,1.54425 2.3834,3.10178 0.2102,0.76453 0.2258,1.09537 0.2663,5.62791 0.033,3.73024 0.014,4.83336 -0.084,4.89434 -0.1436,0.0887 -1.178,0.0472 -1.3415,-0.0538 -0.07,-0.0431 -0.1066,-1.52058 -0.1071,-4.28994 -8e-4,-4.55566 -0.072,-5.63659 -0.4234,-6.45402 -0.2803,-0.65166 -1.059,-1.37546 -1.7231,-1.60174 -0.6119,-0.2085 -1.8937,-0.2126 -2.5674,-0.008 -0.9472,0.28735 -1.9174,1.0621 -2.4682,1.97112 -0.7546,1.24528 -0.9131,2.44701 -0.9139,6.9295 -5e-4,3.2625 -0.013,3.50456 -0.1823,3.51649 -0.6756,0.0476 -1.0729,0.0458 -1.1545,-0.005 -0.053,-0.0333 -0.1168,-2.03622 -0.1456,-4.57514 -0.031,-2.73507 -0.098,-4.7763 -0.1712,-5.1763 -0.1607,-0.88406 -0.5202,-1.56032 -1.1014,-2.07184 -0.665,-0.58536 -1.2919,-0.7745 -2.4183,-0.72962 -0.774,0.0308 -1.0075,0.0863 -1.6068,0.38149 -1.1427,0.5629 -1.9452,1.50947 -2.4195,2.8537 -0.309,0.87567 -0.4556,2.84372 -0.4556,6.11498 0,2.47987 -0.029,3.19837 -0.1297,3.20884 -0.339,0.0352 -1.1137,0.0392 -1.2127,0.006 z m 77.0437,-0.032 -0.2309,-0.0854 0.027,-6.77685 0.027,-6.77685 h 0.7267 0.7267 l 0.052,0.87419 c 0.032,0.5411 0.099,0.88967 0.1751,0.91482 0.068,0.0223 0.2544,-0.11409 0.4148,-0.30321 1.07,-1.26169 2.0597,-1.84914 3.1153,-1.84914 0.6688,0 1.3816,0.21071 1.3816,0.40839 0,0.0592 -0.1398,0.33483 -0.3108,0.61262 l -0.3107,0.50508 -0.7585,-0.0487 c -0.6636,-0.0426 -0.8226,-0.0158 -1.2723,0.21443 -0.8884,0.45478 -1.5511,1.29069 -1.984,2.50247 -0.3213,0.89961 -0.4505,2.70963 -0.4505,6.31277 0,1.92919 -0.035,3.51182 -0.078,3.51695 -0.4786,0.0573 -1.0639,0.0472 -1.2499,-0.0216 z m 9.1916,0.0366 c -0.1708,-0.0372 -0.1817,-0.4498 -0.1817,-6.88363 v -6.84403 h 0.7232 0.7232 l 0.029,1.11476 c 0.036,1.37679 0.1509,1.46073 0.8823,0.64721 0.7434,-0.8268 1.8019,-1.51759 2.8045,-1.83018 0.7704,-0.24021 0.9863,-0.26414 1.9777,-0.21928 1.2411,0.0562 1.7127,0.20245 2.6181,0.81208 1.1211,0.75489 1.7703,1.90356 2.0229,3.57917 0.1194,0.79231 0.1561,2.03791 0.1566,5.31255 l 6e-4,4.27757 -0.3374,0.0578 c -0.2782,0.0476 -0.6501,0.0344 -1.0225,-0.0365 -0.034,-0.007 -0.089,-2.05565 -0.1217,-4.55364 -0.038,-2.9041 -0.1041,-4.74769 -0.1832,-5.11278 -0.2827,-1.30407 -0.9443,-2.21048 -1.9617,-2.68764 -0.5187,-0.24326 -0.7002,-0.2709 -1.7718,-0.26984 -1.1232,10e-4 -1.2352,0.0207 -1.8933,0.3303 -1.1563,0.54407 -2.2368,1.71223 -2.7181,2.93862 -0.3185,0.81144 -0.4732,2.83532 -0.4744,6.20281 -5e-4,1.72718 -0.036,3.14453 -0.079,3.14966 -0.3202,0.0383 -1.045,0.0475 -1.1938,0.015 z"
           id="path37598" />
        <path
           style="fill:#b82f45;stroke-width:0.103813"
           d="m -2433.9385,917.8664 c -0.3681,-0.0805 -1.0662,-0.33844 -1.5513,-0.57325 -0.7065,-0.34198 -1.0485,-0.59521 -1.7184,-1.27261 -0.9492,-0.95984 -1.4108,-1.68071 -1.8573,-2.9009 -0.2905,-0.79386 -0.3104,-0.94324 -0.3127,-2.35296 0,-1.35606 0.025,-1.58762 0.2737,-2.33579 0.3954,-1.18963 0.9404,-2.05943 1.8918,-3.01926 0.6577,-0.6636 1.0161,-0.9295 1.7129,-1.27069 0.4846,-0.2373 1.1595,-0.502 1.4998,-0.58822 0.6992,-0.17711 2.6484,-0.211 3.4453,-0.0599 2.032,0.38537 3.9437,1.89949 4.9218,3.89822 0.5028,1.02755 0.6817,1.71607 0.7571,2.91388 l 0.058,0.92889 -0.1504,-1.11665 c -0.183,-1.35877 -0.4471,-2.18302 -1.006,-3.13967 -0.5759,-0.98584 -1.8044,-2.18453 -2.7277,-2.6615 -1.3276,-0.68584 -1.6876,-0.76465 -3.4777,-0.76138 -1.5147,0.003 -1.6547,0.0203 -2.3855,0.29889 -1.6717,0.6372 -3.1245,1.91706 -3.9244,3.45716 -0.6174,1.1888 -0.7893,1.93005 -0.7893,3.40409 0,2.14925 0.5426,3.51977 2.0084,5.07335 1.4717,1.55988 3.3486,2.25683 5.6618,2.10237 1.8671,-0.12468 3.1803,-0.69671 4.412,-1.9219 1.2104,-1.20398 1.8279,-2.3653 2.131,-4.00807 0.096,-0.51819 0.1368,-0.62125 0.1435,-0.3592 0.025,0.98357 -0.7512,2.81525 -1.6593,3.91526 -0.9751,1.1811 -2.3384,2.02392 -3.802,2.35034 -0.9111,0.20322 -2.6247,0.20297 -3.5556,-5.2e-4 z m 17.4531,0.003 c -2.3082,-0.50532 -4.3465,-2.41826 -5.1754,-4.85707 -0.2588,-0.76149 -0.2869,-0.98539 -0.2884,-2.29711 0,-1.66944 0.1181,-2.19513 0.8058,-3.52963 0.6227,-1.20833 1.8896,-2.45939 3.0828,-3.04419 1.3219,-0.64788 1.9653,-0.77713 3.5767,-0.71858 1.5255,0.0554 2.1215,0.21839 3.2044,0.87621 0.6081,0.36936 1.9392,1.60302 1.9392,1.79719 0,0.0498 -0.3631,-0.27252 -0.8069,-0.71629 -1.3141,-1.3141 -2.7143,-1.88099 -4.6391,-1.87816 -2.0818,0.003 -3.4159,0.55365 -4.8941,2.01979 -1.0279,1.01958 -1.5276,1.802 -1.9246,3.01359 -0.2008,0.61282 -0.238,0.94631 -0.2376,2.12816 6e-4,1.52607 0.1255,2.12671 0.6742,3.2426 0.886,1.80172 2.531,3.21263 4.4055,3.77844 0.4579,0.13823 0.9665,0.18801 1.9205,0.18801 0.9541,0 1.4626,-0.0498 1.9206,-0.18801 1.0134,-0.30591 2.0225,-0.89693 2.815,-1.64865 0.8342,-0.7914 1.1577,-0.95226 0.4507,-0.22415 -0.6149,0.63332 -1.5976,1.33139 -2.3307,1.65558 -1.2431,0.54975 -3.0761,0.71366 -4.4986,0.40226 z m 18.04,0.009 c -1.9991,-0.3986 -3.7254,-1.79875 -4.7158,-3.82483 -0.554,-1.13323 -0.7199,-1.90272 -0.7199,-3.33882 0,-1.43917 0.1659,-2.20553 0.7246,-3.34846 0.8456,-1.72963 2.3527,-3.09682 4.0284,-3.65445 1.2545,-0.41749 3.4627,-0.43971 4.6737,-0.047 1.7952,0.58212 3.3436,1.92109 4.1569,3.59459 0.475,0.97754 0.7854,2.18842 0.7854,3.06448 v 0.43963 l -6.3227,0.0275 c -3.4774,0.0151 -6.301,-0.008 -6.2745,-0.0503 0.026,-0.0428 2.8544,-0.0779 6.2842,-0.0779 h 6.236 l -0.072,-0.73042 c -0.2426,-2.46203 -1.6203,-4.59395 -3.6761,-5.68877 -1.3258,-0.70604 -3.5988,-0.9602 -5.2067,-0.58218 -2.3029,0.54142 -4.1802,2.4166 -4.9826,4.97702 -0.1778,0.56722 -0.2299,1.00007 -0.2374,1.97244 -0.012,1.54141 0.1134,2.09927 0.7778,3.46036 0.4265,0.87357 0.6705,1.22252 1.315,1.88006 1.4285,1.4573 3.1091,2.05406 5.463,1.93984 1.6989,-0.0824 2.801,-0.47139 4.0688,-1.43605 0.7395,-0.5627 1.9004,-2.03291 1.9004,-2.40677 0,-0.16954 -0.8028,-0.69075 -1.0472,-0.67989 -0.081,0.004 -0.4035,0.36067 -0.7176,0.79354 -0.8756,1.20694 -1.9462,1.90703 -3.4638,2.2649 -2.6893,0.63421 -5.3571,-0.74919 -6.3305,-3.28272 -0.279,-0.72593 -0.5331,-1.86436 -0.4631,-2.07434 0.024,-0.0728 0.1241,0.28471 0.2219,0.79441 0.591,3.0812 3.0833,4.95339 6.0274,4.52773 1.8732,-0.27083 3.1924,-1.12382 4.241,-2.74204 0.1766,-0.27259 0.3358,-0.49562 0.3536,-0.49562 0.1354,0 1.386,0.68783 1.386,0.76229 0,0.29133 -0.7692,1.37186 -1.4979,2.1041 -1.3968,1.40371 -2.9985,2.02317 -5.1789,2.00305 -0.5815,-0.005 -1.3634,-0.0708 -1.7375,-0.14538 z m 41.8648,-0.0483 c -4.0989,-1.10652 -6.3865,-5.57726 -4.9533,-9.68038 0.7876,-2.25506 3.0259,-4.22971 5.2785,-4.65692 0.6931,-0.13144 2.4247,-0.12233 3.0986,0.0163 1.2706,0.26136 3.0408,1.40521 3.7311,2.4108 0.1249,0.18199 -0.1233,-0.0124 -0.5517,-0.43209 -0.915,-0.89652 -1.5301,-1.30276 -2.5254,-1.66783 -0.6551,-0.2403 -0.875,-0.26664 -2.232,-0.26744 -1.6069,-9.3e-4 -2.0422,0.0885 -3.1663,0.65081 -1.7445,0.8726 -3.2383,2.73814 -3.7297,4.65774 -0.2439,0.95274 -0.2187,2.7992 0.051,3.77627 0.6577,2.37865 2.4157,4.24096 4.7164,4.99636 0.6162,0.20231 0.9398,0.23805 2.1282,0.23505 1.1801,-0.003 1.5081,-0.0406 2.0763,-0.23785 0.9342,-0.32438 1.8933,-0.91175 2.751,-1.68476 0.6747,-0.60808 0.6031,-0.44053 -0.1038,0.24275 -0.5696,0.55053 -1.6753,1.21052 -2.5037,1.49436 -1.1218,0.38439 -2.9421,0.45013 -4.0656,0.14683 z m -107.0538,-7.11537 v -7.01576 l 0.8565,0.0302 0.8564,0.0301 0.052,1.12516 0.052,1.12517 0.5947,-0.67393 c 0.7427,-0.84159 1.5974,-1.41889 2.5576,-1.72765 0.6398,-0.2057 0.8965,-0.23225 1.8575,-0.19205 0.9867,0.0413 1.1949,0.0848 1.8078,0.37813 0.9363,0.448 1.5704,1.08821 2.0241,2.04347 0.2028,0.4271 0.3828,0.77655 0.4,0.77655 0.017,0 0.2398,-0.29198 0.4946,-0.64883 0.8723,-1.22171 1.8046,-1.93621 3.0845,-2.36406 0.5709,-0.19083 0.8507,-0.21944 1.8168,-0.18582 1.0271,0.0358 1.2105,0.0729 1.8243,0.37004 0.7607,0.36818 1.5959,1.1713 1.9597,1.88442 0.1241,0.24309 0.3239,0.80025 0.4442,1.23813 0.2049,0.74619 0.2213,1.1105 0.2624,5.80512 l 0.044,5.00896 h -0.8917 -0.8917 l 0.025,-4.59371 0.025,-4.59372 0.028,4.408 c 0.016,2.4244 0.068,4.44785 0.1169,4.49657 0.1169,0.11693 1.1939,0.17941 1.3569,0.0787 0.099,-0.061 0.1176,-1.1641 0.084,-4.89434 -0.041,-4.53254 -0.056,-4.86338 -0.2663,-5.62791 -0.4281,-1.55753 -1.1474,-2.49359 -2.3834,-3.10178 -0.6744,-0.33186 -0.735,-0.34226 -1.995,-0.34226 h -1.2995 l -0.9052,0.44263 c -1.0132,0.49543 -1.78,1.17155 -2.4157,2.12981 -0.2189,0.33 -0.4488,0.58404 -0.511,0.56455 -0.062,-0.0195 -0.2765,-0.35356 -0.4764,-0.74237 -0.5365,-1.04394 -1.024,-1.54641 -1.9389,-1.99856 -0.7153,-0.35352 -0.8829,-0.39365 -1.7984,-0.43042 -1.758,-0.0706 -2.9295,0.42395 -4.2166,1.78019 -0.7409,0.78062 -0.8025,0.82288 -0.9355,0.64108 -0.096,-0.13184 -0.1423,-0.50632 -0.1423,-1.161 v -0.96638 h -0.7267 -0.7267 v 6.85164 c 0,3.76841 0.035,6.85641 0.078,6.86223 0.043,0.006 0.2881,0.0208 0.545,0.0333 0.9038,0.044 0.8305,0.33069 0.8305,-3.25136 0,-3.25894 0.147,-5.22832 0.4556,-6.10288 0.4743,-1.34423 1.2768,-2.2908 2.4195,-2.8537 0.5993,-0.29523 0.8328,-0.35065 1.6068,-0.38149 1.1264,-0.0449 1.7533,0.14425 2.4183,0.72961 0.5812,0.51153 0.9407,1.18779 1.1014,2.07184 0.073,0.40001 0.1403,2.44124 0.1712,5.1763 0.029,2.53893 0.092,4.54181 0.1456,4.57515 0.082,0.0512 0.4789,0.0531 1.1545,0.005 0.1692,-0.0119 0.1817,-0.254 0.1823,-3.5165 9e-4,-4.48248 0.1593,-5.68421 0.9139,-6.9295 0.5508,-0.90901 1.521,-1.68376 2.4682,-1.97111 0.6737,-0.20438 1.9555,-0.20027 2.5674,0.008 1.1012,0.37522 1.9269,1.5268 1.999,2.78794 l 0.036,0.62833 -0.097,-0.62288 c -0.1464,-0.93721 -0.3822,-1.45788 -0.8903,-1.96605 -0.6634,-0.66333 -1.3995,-0.91637 -2.5361,-0.87169 -0.7518,0.0296 -0.9905,0.0868 -1.5862,0.38021 -1.3203,0.65041 -2.1786,1.82193 -2.5229,3.44376 -0.1285,0.60482 -0.1771,1.6764 -0.2178,4.80134 l -0.052,4.02274 h -0.806 -0.8061 l -0.056,-4.59371 c -0.07,-5.69294 -0.1564,-6.27767 -1.063,-7.18425 -0.6112,-0.61127 -1.3022,-0.88498 -2.2373,-0.88618 -1.7207,-0.002 -3.1769,0.93907 -3.9332,2.5424 -0.5245,1.11187 -0.5616,1.46478 -0.6223,5.91732 l -0.057,4.15251 -0.8564,0.0302 -0.8565,0.0302 z m 54.5236,5.83947 0.022,-1.1679 0.034,1.06408 c 0.032,1.01643 0.044,1.06443 0.2635,1.0718 0.1265,0.004 0.3468,0.0294 0.4895,0.0559 0.1428,0.0265 0.3651,0.022 0.4942,-0.01 l 0.2346,-0.0582 -0.027,-9.60044 c -0.015,-5.28025 0.01,-9.60044 0.051,-9.60044 0.043,10e-6 0.078,4.36793 0.078,9.7065 v 9.7065 h -0.8305 -0.8305 l 0.022,-1.1679 z m 22.4017,-5.83947 v -7.00736 h 0.8824 0.8824 l -0.019,0.96027 -0.019,0.96027 -0.058,-0.88241 -0.059,-0.88241 h -0.7267 -0.7267 l -0.027,6.77606 -0.027,6.77607 0.2343,0.0848 c 0.1893,0.0685 0.8319,0.0814 1.2465,0.0251 0.043,-0.006 0.078,-1.58902 0.078,-3.51821 0,-3.60314 0.1292,-5.41316 0.4505,-6.31277 0.4329,-1.21178 1.0956,-2.04769 1.984,-2.50247 0.4497,-0.23024 0.6087,-0.25703 1.2723,-0.21443 l 0.7585,0.0487 0.3107,-0.50508 c 0.171,-0.27779 0.3108,-0.55347 0.3108,-0.61262 0,-0.1975 -0.7127,-0.40842 -1.3722,-0.40612 -1.018,0.004 -2.2336,0.68339 -2.936,1.64195 -0.1713,0.23374 -0.3738,0.44999 -0.4501,0.48054 -0.2181,0.0874 0.4545,-0.71326 1.0454,-1.24455 0.7845,-0.70529 1.2407,-0.90647 2.1834,-0.96276 0.8099,-0.0484 1.7371,0.16786 1.7371,0.40511 0,0.0538 -0.1896,0.39807 -0.4214,0.76509 -0.3926,0.62155 -0.4393,0.66053 -0.6816,0.56842 -0.9995,-0.38001 -2.3102,0.20246 -3.0501,1.35543 -0.8281,1.29056 -1.0364,2.91121 -1.0371,8.07051 l -4e-4,3.14033 h -0.8824 -0.8824 z m 9.2393,0 v -7.00736 h 0.8305 0.8305 l -0.022,1.16789 -0.022,1.1679 -0.033,-1.11599 -0.033,-1.11599 h -0.7232 -0.7232 v 6.83954 c 0,6.42732 0.011,6.84227 0.1817,6.88497 0.1496,0.0374 0.8887,0.0308 1.1938,-0.0106 0.043,-0.006 0.083,-1.47045 0.089,-3.25473 0.01,-1.78428 0.05,-3.52445 0.097,-3.86703 0.064,-0.46164 0.074,-0.28946 0.041,0.66513 -0.025,0.7084 -0.045,2.49528 -0.045,3.97084 v 2.68283 h -0.8305 -0.8305 z m 10.4538,2.30983 c -0.068,-4.95492 -0.1051,-5.35294 -0.5917,-6.3069 -0.5819,-1.14065 -1.4661,-1.66393 -2.9378,-1.73876 -0.7954,-0.0405 -1.0669,-0.0106 -1.6242,0.17841 -1.753,0.5946 -3.0687,2.12298 -3.3938,3.94251 -0.097,0.5449 -0.1236,0.60233 -0.1315,0.28802 -0.036,-1.41942 1.3883,-3.40812 2.9759,-4.15514 0.6581,-0.30964 0.7701,-0.32918 1.8933,-0.3303 1.0716,-10e-4 1.2531,0.0266 1.7718,0.26984 1.0174,0.47716 1.679,1.38357 1.9617,2.68764 0.079,0.36509 0.1452,2.20868 0.1832,5.11278 0.033,2.49799 0.087,4.54713 0.1217,4.55364 0.3724,0.0709 0.7442,0.0842 1.0225,0.0365 l 0.3374,-0.0578 -6e-4,-4.27757 c -6e-4,-3.27464 -0.037,-4.52024 -0.1566,-5.31255 -0.2526,-1.67561 -0.9018,-2.82428 -2.0229,-3.57917 -0.9054,-0.60963 -1.377,-0.75593 -2.6181,-0.81208 -0.9914,-0.0449 -1.2073,-0.0209 -1.9778,0.21928 -0.9993,0.31158 -2.0607,1.00296 -2.7971,1.82204 -0.5908,0.6571 -0.7535,0.70066 -0.2164,0.058 0.7902,-0.94573 1.9885,-1.72434 3.1925,-2.07436 0.473,-0.13752 0.8779,-0.16664 1.8123,-0.13036 1.0718,0.0416 1.2798,0.082 1.9056,0.3698 0.9637,0.44331 1.8237,1.28135 2.2952,2.23674 0.6127,1.24159 0.6868,2.01804 0.6873,7.20741 l 4e-4,4.4899 h -0.814 -0.8141 z m 17.8887,3.47773 c 0,-0.82591 0.034,-1.16951 0.1022,-1.06408 0.055,0.0856 0.1014,0.58784 0.1022,1.11599 0,0.52815 0.037,0.96416 0.079,0.96892 0.043,0.005 0.1946,0.0256 0.3374,0.0464 0.1427,0.0208 0.435,0.0127 0.6495,-0.0179 l 0.3901,-0.0557 -0.027,-6.81644 -0.027,-6.81644 -0.7008,-0.0307 -0.7007,-0.0307 v 1.06882 c 0,0.58785 -0.047,1.1389 -0.1023,1.22454 -0.068,0.10524 -0.1011,-0.25656 -0.1022,-1.11598 v -1.27171 h 0.8824 0.8824 v 7.00736 7.00736 h -0.8824 -0.8824 v -1.2198 z m -83.6747,-0.0393 c -2.3118,-0.19648 -4.2114,-1.87806 -4.8281,-4.27396 -0.2018,-0.7843 -0.1974,-2.10993 0.01,-2.91266 0.456,-1.76778 1.8752,-3.37324 3.5569,-4.02386 0.7307,-0.28268 2.2819,-0.38141 3.1197,-0.19855 1.3181,0.28773 2.6969,1.25741 3.4926,2.45617 0.4382,0.66012 0.8822,1.86397 0.8697,2.35812 -0.01,0.22375 -0.055,0.11375 -0.1543,-0.34734 -0.2367,-1.09285 -0.7091,-1.92733 -1.5933,-2.81458 -1.1745,-1.17857 -2.2609,-1.64936 -3.806,-1.64936 -3.5922,0 -6.2327,3.45851 -5.3853,7.05377 0.25,1.06036 0.7421,1.94798 1.4995,2.70462 1.0577,1.05662 2.3094,1.5572 3.8937,1.5572 1.5202,0 2.8197,-0.51354 3.8396,-1.51731 0.9736,-0.95817 1.5206,-2.18531 1.713,-3.84286 l 0.095,-0.81669 -0.046,0.8897 c -0.1192,2.31159 -1.414,4.16316 -3.5363,5.05687 -0.6679,0.28127 -1.7348,0.40615 -2.74,0.32072 z m 16.9734,-0.004 c -1.9448,-0.36581 -3.8112,-2.21288 -4.3513,-4.30618 -0.7739,-2.99982 1.0154,-6.15112 4.0118,-7.06546 0.8182,-0.24967 2.3377,-0.22253 3.2627,0.0583 1.8323,0.55619 3.3245,2.16122 3.8224,4.11128 0.2291,0.89754 0.2025,2.21247 -0.065,3.20324 -0.7618,2.82336 -3.6714,4.5649 -6.6808,3.99885 z m 2.3461,-0.13179 c 1.0604,-0.22478 2.0179,-0.74126 2.8032,-1.51218 1.009,-0.99033 1.5099,-2.10135 1.6178,-3.58803 0.2022,-2.78604 -1.4437,-5.25125 -4.009,-6.00474 -0.8174,-0.2401 -2.4034,-0.22034 -3.2478,0.0405 -1.8031,0.55693 -3.3149,2.21627 -3.7761,4.14468 -0.7045,2.94522 1.1878,6.11257 4.1101,6.87955 0.8304,0.21796 1.6047,0.23041 2.5018,0.0403 z m 57.5689,0.0952 c -2.0839,-0.52839 -3.8108,-2.37465 -4.2709,-4.56602 -0.206,-0.9809 -0.1946,-1.52969 0.052,-2.49286 0.698,-2.72913 2.8639,-4.44464 5.6092,-4.44283 1.9917,10e-4 3.6516,0.92717 4.7881,2.67065 1.1086,1.70072 1.1576,4.3854 0.1129,6.18406 -0.6155,1.05964 -1.7353,1.97382 -3.007,2.45472 -0.8909,0.33694 -2.3717,0.42363 -3.2841,0.19228 z m 2.5183,-0.0962 c 1.5194,-0.32575 3.0408,-1.43902 3.7142,-2.7178 0.9525,-1.80869 0.9296,-4.0974 -0.058,-5.80075 -1.0436,-1.79992 -2.7053,-2.75103 -4.8063,-2.75103 -2.0052,0 -3.5514,0.81218 -4.6375,2.43595 -0.697,1.04214 -0.9863,1.98705 -0.9863,3.22184 0,3.65617 3.268,6.36349 6.774,5.61179 z m -45.9011,-6.98723 c 1.4417,-0.0163 3.8008,-0.0163 5.2425,0 1.4417,0.0163 0.2621,0.0296 -2.6213,0.0296 -2.8833,0 -4.0629,-0.0133 -2.6212,-0.0296 z m -2.6681,-0.38179 c -0.011,-0.44525 0.8332,-1.93594 1.4412,-2.54394 0.9285,-0.92845 2.4663,-1.56064 3.7962,-1.56064 1.336,0 3.0729,0.71603 4.0016,1.64961 0.5935,0.59666 1.2007,1.6808 1.2968,2.31564 0.039,0.25881 0.01,0.21587 -0.1432,-0.18091 -0.653,-1.7461 -1.7949,-2.87001 -3.4348,-3.38055 -0.7919,-0.24654 -2.3814,-0.29535 -3.1222,-0.0959 -1.6445,0.44281 -2.9233,1.63981 -3.5831,3.35379 -0.1361,0.3536 -0.2497,0.55289 -0.2525,0.44287 z m -7.1455,-6.72946 c -0.012,-2.15541 0.012,-3.91897 0.055,-3.91901 0.071,-7e-5 0.069,3.07938 0,6.48837 -0.016,0.74227 -0.039,-0.41395 -0.052,-2.56936 z m 63.6287,2.28388 c -0.014,-0.49299 -0.014,-0.49311 0.3232,-0.47756 0.314,0.0145 0.3176,0.0186 0.052,0.0588 -0.3542,0.0537 -0.3854,0.3409 -0.037,0.3409 0.235,0 0.3825,0.18026 0.3678,0.44969 0,0.0667 -0.049,0.0162 -0.1004,-0.1123 -0.053,-0.131 -0.1834,-0.23358 -0.2977,-0.23358 -0.1287,0 -0.2203,0.086 -0.2487,0.23358 -0.025,0.12847 -0.051,0.0117 -0.059,-0.25953 z"
           id="path37596" />
      </g>
    </g>
  </g>
</svg>
